<?xml version="1.0" encoding="UTF-8"?>
<!DOCTYPE svg PUBLIC "-//W3C//DTD SVG 1.1//EN" "http://www.w3.org/Graphics/SVG/1.1/DTD/svg11.dtd">
<!-- Creator: CorelDRAW 2017 -->
<svg xmlns="http://www.w3.org/2000/svg" xml:space="preserve" width="95px" height="95px" version="1.1" style="shape-rendering:geometricPrecision; text-rendering:geometricPrecision; image-rendering:optimizeQuality; fill-rule:evenodd; clip-rule:evenodd"
viewBox="0 0 95 95"
 xmlns:xlink="http://www.w3.org/1999/xlink"
 data-name="Layer 1">
 <defs>
  <style type="text/css">
   <![CDATA[
    .str0 {stroke:white;stroke-width:0.38;stroke-miterlimit:2.61313}
    .fil0 {fill:#FEFEFE}
   ]]>
  </style>
 </defs>
 <g id="Layer_x0020_1">
  <metadata id="CorelCorpID_0Corel-Layer"/>
  <g id="_2507865281504">
   <path class="fil0" d="M53.78 80.39c-0.14,0.09 -0.3,0.16 -0.45,0.22 0.43,0.2 0.87,0.41 1.28,0.62 0.51,-0.25 0.74,-0.76 0.91,-1.29 -0.41,0.3 -0.91,0.47 -1.43,0.47 -0.02,0 -0.04,0 -0.06,0 -0.08,0 -0.16,-0.01 -0.25,-0.02z"/>
   <path class="fil0" d="M47.53 69.38c-1.44,0 -2.6,1.16 -2.6,2.6 0,1.44 1.16,2.6 2.6,2.6 1.44,0 2.61,-1.16 2.61,-2.6 0,0 0,-0.01 0,-0.01 -0.01,-1.44 -1.18,-2.59 -2.61,-2.59 0,0 0,0 0,0l0 0z"/>
   <path class="fil0" d="M55.91 72l-1.77 -1.77 0.65 -2.42 -2.41 -0.65 -0.64 -2.43 -2.42 0.65 -1.77 -1.77 -1.78 1.77 -2.41 -0.65 -0.66 2.42 -2.43 0.62 0.65 2.42 -1.78 1.77 1.78 1.77 -0.65 2.42 2.42 0.66 0.64 2.42 2.42 -0.65 1.78 1.78 1.77 -1.78 2.42 0.66 0.65 -2.42 2.42 -0.64 -0.64 -2.42 1.76 -1.76zm-8.38 4.05c-2.25,0 -4.07,-1.82 -4.07,-4.07 0,-2.25 1.82,-4.07 4.07,-4.07 2.24,0 4.07,1.81 4.07,4.06 0,0 0,0 0,0 0,2.25 -1.82,4.08 -4.07,4.08l0 0z"/>
   <polygon class="fil0" points="55.03,77.49 53.47,77.91 52.94,79.88 52.67,80.88 51.67,80.61 49.69,80.08 48.24,81.52 47.51,82.25 47.46,82.2 49.48,87.24 53.1,83.79 57.66,84.03 "/>
   <polygon class="fil0" points="46.78,81.52 45.33,80.06 43.36,80.59 42.36,80.85 42.09,79.85 41.57,77.88 39.89,77.42 37.24,84.03 41.79,83.79 45.42,87.24 47.44,82.18 "/>
   <path class="fil0" d="M69.8 27.82l0 -3.06 -0.44 -0.17c-2.72,-0.97 -5.6,-1.46 -8.49,-1.46 -0.02,0 -0.04,0 -0.06,0 -0.34,0 -0.7,0.01 -1.03,0.03 0.2,0.44 0.36,0.9 0.46,1.38 0.17,0 0.4,0 0.57,0 2.57,0 5.14,0.41 7.59,1.2l0 28.41c-2.06,-0.79 -4.25,-1.19 -6.45,-1.19 -0.1,0 -0.21,0 -0.3,0 -6.17,0 -12.04,2.36 -13.8,3.14l0 -11.31 0.82 0.91 0 -16.96c1.55,-1.31 3.33,-2.34 5.23,-3.04 -0.04,-0.22 -0.07,-0.44 -0.07,-0.66 0,-0.29 0.04,-0.57 0.11,-0.84 -2.32,0.77 -4.47,1.99 -6.33,3.58 -3.6,-3.09 -8.04,-4.66 -13.18,-4.66 -0.03,0 -0.05,0 -0.08,0 -2.89,0 -5.76,0.5 -8.48,1.46l-0.45 0.17 0 2.84c-1.45,0.27 -2.36,0.76 -2.36,1.56l0 29.25 21.55 0c0.86,0.7 1.94,1.09 3.05,1.09 1.11,0 2.19,-0.39 3.06,-1.09l20.99 0 0 -29.25c0.02,-0.65 -0.72,-1.07 -1.91,-1.33zm-22.41 28.27c-1.79,-0.74 -7.95,-3.08 -14.12,-3.08 -2.43,0 -4.59,0.38 -6.43,1.12l0 -28.41c2.45,-0.79 5.02,-1.19 7.59,-1.2 4.74,0 8.81,1.43 12.14,4.23l0 16.96 0.82 -0.9 0 11.29 0 -0.01z"/>
   <path class="fil0" d="M29.6 29.46l0.29 1.09c7.27,-1.93 13.82,1.65 13.88,1.68l0.55 -0.98c-0.28,-0.16 -7,-3.85 -14.72,-1.79z"/>
   <path class="fil0" d="M29.6 32.66l0.29 1.09c7.27,-1.93 13.82,1.65 13.88,1.68l0.55 -0.99c-0.28,-0.15 -7,-3.83 -14.72,-1.78z"/>
   <path class="fil0" d="M29.6 35.67l0.29 1.1c7.28,-1.93 13.82,1.64 13.89,1.68l0.55 -0.99c-0.29,-0.17 -7.01,-3.84 -14.73,-1.79z"/>
   <path class="fil0" d="M29.6 38.97l0.29 1.09c7.28,-1.93 13.82,1.64 13.89,1.68l0.55 -0.99c-0.29,-0.16 -7.01,-3.84 -14.73,-1.78z"/>
   <path class="fil0" d="M29.6 42.02l0.29 1.08c7.28,-1.93 13.82,1.64 13.89,1.68l0.55 -0.99c-0.29,-0.14 -7.01,-3.82 -14.73,-1.77z"/>
   <path class="fil0" d="M29.6 45.15l0.29 1.1c7.27,-1.93 13.82,1.64 13.88,1.67l0.55 -0.98c-0.28,-0.16 -7,-3.84 -14.72,-1.79z"/>
   <path class="fil0" d="M29.6 48.3l0.29 1.09c7.27,-1.93 13.82,1.64 13.88,1.68l0.55 -0.98c-0.28,-0.15 -7,-3.84 -14.72,-1.79z"/>
   <path class="fil0" d="M51.25 34.53l0.55 0.99c0.07,-0.04 6.61,-3.61 13.89,-1.68l0.29 -1.09c-7.73,-2.06 -14.45,1.62 -14.73,1.78z"/>
   <path class="fil0" d="M51.25 37.53l0.55 0.99c0.07,-0.04 6.61,-3.61 13.89,-1.68l0.29 -1.1c-7.73,-2.03 -14.45,1.64 -14.73,1.79z"/>
   <path class="fil0" d="M51.25 40.82l0.55 0.99c0.07,-0.04 6.61,-3.61 13.89,-1.68l0.29 -1.09c-7.73,-2.04 -14.45,1.63 -14.73,1.78z"/>
   <path class="fil0" d="M51.25 43.89l0.55 0.99c0.07,-0.04 6.61,-3.61 13.89,-1.68l0.29 -1.1c-7.73,-2.04 -14.45,1.63 -14.73,1.79z"/>
   <path class="fil0" d="M51.25 47.02l0.55 0.99c0.07,-0.04 6.61,-3.61 13.89,-1.68l0.29 -1.09c-7.73,-2.05 -14.45,1.63 -14.73,1.78z"/>
   <path class="fil0" d="M51.25 50.17l0.55 0.98c0.07,-0.03 6.61,-3.61 13.89,-1.67l0.29 -1.1c-7.73,-2.04 -14.45,1.63 -14.73,1.79z"/>
   <rect class="fil0" x="46.47" y="28.81" width="2.2" height="28.92"/>
   <path class="fil0" d="M47.52 13.26c-3.01,0 -5.5,0.61 -5.5,1.36l0 6.13c0,-0.76 2.49,-1.36 5.5,-1.36 3.01,0 5.49,0.61 5.49,1.36l0 -6.13c0,-0.75 -2.48,-1.36 -5.49,-1.36z"/>
   <path class="fil0" d="M47.52 20.75c-3.01,0 -5.5,0.61 -5.5,1.36 0,0.76 2.49,1.37 5.5,1.37 1.09,0 5.49,-0.28 5.49,-1.37 0,-0.74 -2.49,-1.36 -5.49,-1.36z"/>
   <path class="fil0" d="M57.78 22.92l0 -7.88 0.99 -0.49c0.23,-0.12 0.38,-0.35 0.38,-0.61 0,-0.26 -0.15,-0.49 -0.38,-0.61l-10.94 -5.49c-0.1,-0.05 -0.2,-0.08 -0.31,-0.08 -0.11,0 -0.21,0.03 -0.3,0.08l-10.95 5.49c-0.23,0.12 -0.37,0.35 -0.37,0.61 0,0.26 0.14,0.49 0.37,0.61l4.39 2.19 0 -2.12c0,-2.37 4.31,-2.72 6.86,-2.72 2.55,0 6.86,0.35 6.86,2.72l0 2.12 2.04 -1.01 0 7.2c-0.81,0.29 -1.35,1.06 -1.35,1.92 0,1.13 0.92,2.05 2.04,2.05 1.13,0 2.05,-0.92 2.05,-2.05 0,-0.87 -0.55,-1.64 -1.38,-1.93l0 0z"/>
   <path class="fil0" d="M51.25 31.33l0.55 0.99c0.07,-0.04 6.61,-3.61 13.89,-1.68l0.29 -1.09c-7.73,-2.05 -14.45,1.62 -14.73,1.78z"/>
   <path class="fil0 str0" d="M12.98 20.84c-0.14,1.54 0.43,2.66 1.35,3.33 0.85,-1.34 1.45,-2.83 1.74,-4.39 0.24,-1.48 0,-2.72 -0.73,-3.54 -1.37,1.4 -2.23,3.06 -2.36,4.6z"/>
   <path class="fil0 str0" d="M9.09 26.76c0.22,1.5 1.03,2.51 2.08,3.01 0.45,-1.23 0.69,-2.53 0.69,-3.85 0,-0.21 -0.01,-0.43 -0.02,-0.64 -0.12,-1.47 -0.64,-2.62 -1.55,-3.31 -0.98,1.55 -1.42,3.29 -1.2,4.79z"/>
   <path class="fil0 str0" d="M6.62 33.09c0.54,1.43 1.55,2.28 2.67,2.61 0.08,-0.5 0.11,-1.02 0.11,-1.53 0,-1 -0.14,-1.99 -0.42,-2.94 -0.44,-1.41 -1.21,-2.45 -2.24,-2.97 -0.61,1.65 -0.65,3.41 -0.12,4.83z"/>
   <path class="fil0 str0" d="M5.52 39.65c0.82,1.31 1.98,1.99 3.15,2.14 -0.08,-1.51 -0.5,-2.99 -1.21,-4.33 -0.72,-1.3 -1.7,-2.19 -2.82,-2.55 -0.06,0.38 -0.09,0.76 -0.09,1.14 0,1.26 0.34,2.51 0.97,3.6l0 0z"/>
   <path class="fil0 str0" d="M5.75 46.25c1.07,1.16 2.34,1.65 3.52,1.61 -0.38,-1.48 -1.08,-2.87 -2.04,-4.06 -0.97,-1.17 -2.11,-1.89 -3.29,-2.06 0.07,1.67 0.72,3.26 1.81,4.51l0 0z"/>
   <path class="fil0 str0" d="M7.26 52.72c1.27,0.98 2.62,1.27 3.77,1.04 -0.66,-1.4 -1.61,-2.66 -2.78,-3.69 -1.18,-0.99 -2.44,-1.52 -3.63,-1.52 0.4,1.64 1.33,3.11 2.64,4.17l0 0z"/>
   <path class="fil0 str0" d="M10.01 58.87c1.44,0.76 2.82,0.84 3.91,0.44 -0.94,-1.29 -2.12,-2.38 -3.48,-3.21 -1.35,-0.8 -2.69,-1.13 -3.85,-0.92 0.72,1.56 1.92,2.85 3.42,3.69l0 0z"/>
   <path class="fil0 str0" d="M13.94 64.52c1.58,0.53 2.96,0.39 3.95,-0.18 -1.18,-1.12 -2.57,-2.01 -4.08,-2.63 -1.5,-0.58 -2.88,-0.69 -3.98,-0.3 1.02,1.42 2.46,2.51 4.11,3.11l0 0z"/>
   <path class="fil0 str0" d="M19.01 69.49c1.69,0.28 3.04,-0.08 3.9,-0.79 -1.42,-0.92 -2.98,-1.58 -4.62,-1.96 -1.6,-0.34 -2.99,-0.24 -4,0.31 1.31,1.26 2.95,2.1 4.72,2.44l0 0z"/>
   <path class="fil0 str0" d="M25.19 73.59c1.76,0 3.04,-0.55 3.73,-1.4 -1.61,-0.67 -3.34,-1.07 -5.08,-1.19 -1.68,-0.09 -3.04,0.23 -3.92,0.94 1.57,1.02 3.4,1.6 5.27,1.65l0 0z"/>
   <path class="fil0 str0" d="M32.42 76.65c1.8,-0.27 2.97,-1.03 3.48,-1.97 -1.29,-0.29 -2.61,-0.43 -3.93,-0.43 -0.52,0 -1.05,0.02 -1.57,0.07 -1.72,0.18 -3.02,0.71 -3.75,1.55 1.38,0.57 2.86,0.87 4.36,0.87 0.47,0 0.95,-0.03 1.41,-0.09l0 0z"/>
   <path class="fil0 str0" d="M18.26 24.11c-1.48,0.45 -2.84,0.48 -3.93,0.06 1.05,-1.31 2.48,-2.25 4.09,-2.71 1.58,-0.41 2.94,-0.19 3.9,0.42 -1.2,0.99 -2.58,1.75 -4.06,2.23l0 0z"/>
   <path class="fil0 str0" d="M14.97 29.12c-1.33,0.66 -2.65,0.9 -3.8,0.65 0.72,-1.42 1.91,-2.55 3.35,-3.22 1.42,-0.64 2.79,-0.62 3.86,-0.18 -0.93,1.14 -2.09,2.08 -3.41,2.75l0 0z"/>
   <path class="fil0 str0" d="M12.88 34.49c-1.16,0.85 -2.4,1.28 -3.59,1.22 0.4,-1.48 1.31,-2.78 2.58,-3.65 0.8,-0.56 1.75,-0.86 2.73,-0.86 0.33,0 0.66,0.03 0.99,0.1 -0.65,1.25 -1.58,2.35 -2.71,3.19l0 0z"/>
   <path class="fil0 str0" d="M11.95 40.03c-0.96,1.01 -2.1,1.63 -3.28,1.76 0.09,-1.5 0.73,-2.92 1.79,-3.98 0.85,-0.85 2.01,-1.33 3.22,-1.33 0.08,0 0.17,0.01 0.26,0.01 -0.37,1.32 -1.05,2.54 -1.99,3.54l0 0z"/>
   <path class="fil0 str0" d="M12.15 45.63c-0.76,1.14 -1.75,1.93 -2.88,2.25 -0.04,-0.28 -0.06,-0.57 -0.06,-0.85 0,-1.19 0.36,-2.36 1.03,-3.34 0.73,-1.06 1.89,-1.73 3.17,-1.86 -0.1,1.36 -0.53,2.66 -1.26,3.8l0 0z"/>
   <path class="fil0 str0" d="M13.43 51.1c-0.5,1.24 -1.34,2.17 -2.39,2.66 -0.22,-0.63 -0.34,-1.29 -0.34,-1.95 0,-0.8 0.17,-1.6 0.49,-2.33 0.51,-1.15 1.53,-2 2.75,-2.31 0.04,0.32 0.06,0.65 0.06,0.98 0,1.01 -0.2,2.01 -0.57,2.95l0 0z"/>
   <path class="fil0 str0" d="M15.75 56.3c-0.26,1.31 -0.89,2.37 -1.83,3.01 -0.76,-1.37 -1.04,-2.92 -0.7,-4.26 0.28,-1.21 1.11,-2.21 2.25,-2.71 0.27,0.81 0.41,1.66 0.41,2.52 0,0.48 -0.05,0.97 -0.13,1.44l0 0z"/>
   <path class="fil0 str0" d="M19.08 61.08c0,1.34 -0.4,2.47 -1.19,3.26 -1.04,-1.24 -1.62,-2.72 -1.56,-4.1 0.02,-1.23 0.65,-2.37 1.68,-3.04 0.66,1.19 1.03,2.52 1.07,3.88l0 0z"/>
   <path class="fil0 str0" d="M23.37 65.29c0.3,1.32 0.15,2.51 -0.46,3.41 -1.31,-1.06 -2.21,-2.44 -2.44,-3.8 -0.04,-0.23 -0.07,-0.47 -0.07,-0.71 0,-0.96 0.39,-1.88 1.09,-2.55 0.9,1.05 1.55,2.31 1.88,3.65l0 0z"/>
   <path class="fil0 str0" d="M28.6 68.77c0.6,1.25 0.73,2.44 0.32,3.42 -1.57,-0.83 -2.79,-2.04 -3.32,-3.36 -0.53,-1.32 -0.34,-2.5 0.3,-3.38 1.12,0.9 2.05,2.03 2.7,3.32l0 0z"/>
   <path class="fil0 str0" d="M34.72 71.36c0.92,1.13 1.35,2.28 1.17,3.32 -1.82,-0.57 -3.35,-1.57 -4.21,-2.79 -0.86,-1.22 -0.93,-2.4 -0.5,-3.37 1.35,0.71 2.55,1.68 3.54,2.84l0 0z"/>
   <path class="fil0 str0" d="M38.75 74.91c-12.44,-2.39 -22.34,-9.78 -27.02,-20.56 -1.73,-3.92 -2.63,-8.18 -2.63,-12.47 0,-2.1 0.22,-4.2 0.64,-6.25 1.38,-6.56 4.94,-12.48 10.3,-17.13l-0.6 -0.54c-5.49,4.75 -9.14,10.82 -10.55,17.53 -0.44,2.1 -0.66,4.26 -0.66,6.4 0,4.38 0.92,8.72 2.68,12.73 2.69,6.11 7.09,11.33 12.65,15.01 4.33,2.91 9.47,4.93 14.97,6 0.08,-0.24 0.15,-0.46 0.22,-0.72z"/>
   <path class="fil0 str0" d="M21.19 15.31c-2.35,1.63 -2.98,3.01 -3.44,4.88 2.04,-0.72 3.37,-1.16 5.51,-2.66 2.03,-1.38 3.88,-3.02 5.52,-4.84 -2.72,0.15 -5.35,1.06 -7.59,2.62l0 0z"/>
   <path class="fil0 str0" d="M82.02 20.82c0.14,1.54 -0.44,2.66 -1.35,3.33 -0.86,-1.34 -1.45,-2.83 -1.75,-4.39 -0.23,-1.48 0,-2.72 0.73,-3.54 1.38,1.39 2.24,3.06 2.37,4.6z"/>
   <path class="fil0 str0" d="M85.91 26.73c-0.23,1.5 -1.04,2.51 -2.08,3.02 -0.46,-1.23 -0.69,-2.54 -0.69,-3.86 0,-0.21 0,-0.43 0.02,-0.64 0.12,-1.47 0.64,-2.62 1.55,-3.31 0.98,1.55 1.42,3.29 1.2,4.79z"/>
   <path class="fil0 str0" d="M88.38 33.06c-0.54,1.43 -1.54,2.28 -2.67,2.61 -0.08,-0.51 -0.11,-1.03 -0.11,-1.54 0,-0.99 0.14,-1.98 0.41,-2.93 0.45,-1.41 1.21,-2.44 2.25,-2.97 0.6,1.65 0.66,3.41 0.12,4.83z"/>
   <path class="fil0 str0" d="M89.47 39.62c-0.82,1.31 -1.98,1.99 -3.15,2.14 0.09,-1.51 0.5,-2.99 1.22,-4.33 0.72,-1.3 1.69,-2.19 2.82,-2.55 0.06,0.38 0.09,0.76 0.09,1.14 0,1.26 -0.34,2.51 -0.98,3.6l0 0z"/>
   <path class="fil0 str0" d="M89.24 46.22c-1.06,1.16 -2.33,1.65 -3.51,1.61 0.38,-1.48 1.08,-2.87 2.04,-4.06 0.97,-1.17 2.1,-1.89 3.29,-2.06 -0.08,1.67 -0.72,3.26 -1.82,4.51l0 0z"/>
   <path class="fil0 str0" d="M87.73 52.69c-1.26,0.98 -2.61,1.27 -3.76,1.04 0.66,-1.41 1.61,-2.66 2.78,-3.69 1.18,-1 2.44,-1.52 3.63,-1.52 -0.4,1.64 -1.33,3.11 -2.65,4.17l0 0z"/>
   <path class="fil0 str0" d="M84.99 58.84c-1.44,0.76 -2.82,0.84 -3.91,0.44 0.93,-1.29 2.12,-2.38 3.47,-3.21 1.36,-0.8 2.69,-1.13 3.86,-0.92 -0.72,1.55 -1.92,2.85 -3.42,3.69l0 0z"/>
   <path class="fil0 str0" d="M81.06 64.49c-1.58,0.54 -2.96,0.39 -3.96,-0.18 1.19,-1.12 2.57,-2.01 4.09,-2.62 1.49,-0.58 2.87,-0.7 3.98,-0.31 -1.03,1.42 -2.46,2.51 -4.11,3.11l0 0z"/>
   <path class="fil0 str0" d="M75.98 69.46c-1.69,0.28 -3.04,-0.08 -3.9,-0.8 1.42,-0.91 2.98,-1.57 4.62,-1.95 1.6,-0.34 2.99,-0.24 4,0.31 -1.3,1.25 -2.95,2.1 -4.72,2.44l0 0z"/>
   <path class="fil0 str0" d="M69.81 73.56c-1.76,0 -3.04,-0.55 -3.74,-1.39 1.62,-0.68 3.35,-1.09 5.09,-1.22 1.68,-0.08 3.04,0.24 3.92,0.95 -1.57,1.03 -3.4,1.61 -5.27,1.66l0 0z"/>
   <path class="fil0 str0" d="M62.58 76.62c-1.8,-0.27 -2.97,-1.03 -3.48,-1.97 1.29,-0.29 2.61,-0.43 3.93,-0.43 0.51,0 1.04,0.02 1.55,0.06 1.72,0.19 3.01,0.72 3.74,1.56 -1.37,0.57 -2.85,0.87 -4.34,0.87 -0.47,0 -0.94,-0.03 -1.4,-0.09l0 0z"/>
   <path class="fil0 str0" d="M76.74 24.08c1.47,0.46 2.83,0.48 3.93,0.06 -1.05,-1.31 -2.48,-2.25 -4.1,-2.7 -1.57,-0.42 -2.93,-0.2 -3.9,0.41 1.2,0.99 2.58,1.75 4.06,2.23l0.01 0z"/>
   <path class="fil0 str0" d="M80.03 29.09c1.33,0.66 2.64,0.9 3.8,0.65 -0.73,-1.42 -1.91,-2.56 -3.35,-3.22 -1.42,-0.64 -2.79,-0.62 -3.86,-0.18 0.93,1.14 2.09,2.08 3.41,2.75l0 0z"/>
   <path class="fil0 str0" d="M13.14 34.45c-1.16,0.85 -2.41,1.28 -3.6,1.22 0.4,-1.48 1.32,-2.78 2.58,-3.65 0.8,-0.56 1.75,-0.86 2.73,-0.86 0.33,0 0.67,0.03 0.99,0.1 -0.65,1.25 -1.58,2.35 -2.7,3.19l0 0z"/>
   <path class="fil0 str0" d="M83.04 40c0.97,1.02 2.11,1.63 3.28,1.76 -0.08,-1.5 -0.72,-2.91 -1.78,-3.97 -0.86,-0.86 -2.01,-1.34 -3.22,-1.34 -0.09,0 -0.19,0.01 -0.28,0.01 0.37,1.33 1.06,2.54 2.01,3.54l-0.01 0z"/>
   <path class="fil0 str0" d="M82.85 45.59c0.76,1.14 1.75,1.93 2.88,2.25 0.04,-0.28 0.06,-0.57 0.06,-0.85 0,-1.19 -0.36,-2.36 -1.04,-3.34 -0.73,-1.05 -1.88,-1.73 -3.16,-1.85 0.1,1.35 0.53,2.66 1.26,3.79l0 0z"/>
   <path class="fil0 str0" d="M81.57 51.07c0.51,1.24 1.34,2.17 2.39,2.66 0.23,-0.63 0.34,-1.29 0.34,-1.95 0,-0.8 -0.16,-1.6 -0.48,-2.33 -0.52,-1.15 -1.53,-2 -2.75,-2.31 -0.04,0.32 -0.06,0.66 -0.06,0.98 0,1.01 0.19,2.01 0.56,2.95l0 0z"/>
   <path class="fil0 str0" d="M79.25 56.27c0.25,1.31 0.89,2.36 1.83,3 0.76,-1.37 1.04,-2.91 0.7,-4.25 -0.28,-1.21 -1.12,-2.22 -2.26,-2.71 -0.27,0.81 -0.4,1.66 -0.4,2.51 0,0.49 0.04,0.97 0.13,1.45l0 0z"/>
   <path class="fil0 str0" d="M75.92 61.06c0,1.33 0.39,2.47 1.18,3.25 1.05,-1.23 1.63,-2.71 1.57,-4.09 -0.03,-1.23 -0.66,-2.37 -1.68,-3.04 -0.67,1.18 -1.04,2.52 -1.07,3.88l0 0z"/>
   <path class="fil0 str0" d="M71.62 65.26c-0.3,1.32 -0.15,2.51 0.47,3.4 1.3,-1.05 2.2,-2.43 2.43,-3.79 0.05,-0.24 0.07,-0.47 0.07,-0.71 0,-0.96 -0.39,-1.88 -1.08,-2.55 -0.9,1.05 -1.55,2.31 -1.89,3.65l0 0z"/>
   <path class="fil0 str0" d="M66.4 68.74c-0.61,1.25 -0.74,2.44 -0.33,3.42 1.57,-0.83 2.79,-2.04 3.32,-3.36 0.53,-1.32 0.34,-2.5 -0.29,-3.38 -1.13,0.9 -2.05,2.03 -2.7,3.32l0 0z"/>
   <path class="fil0 str0" d="M60.28 71.33c-0.93,1.13 -1.36,2.28 -1.18,3.32 1.82,-0.57 3.35,-1.57 4.21,-2.79 0.86,-1.22 0.93,-2.41 0.51,-3.37 -1.35,0.71 -2.56,1.67 -3.54,2.84l0 0z"/>
   <path class="fil0 str0" d="M56.22 74.88c12.45,-2.39 22.35,-9.78 27.03,-20.56 1.72,-3.92 2.63,-8.18 2.63,-12.47 0,-2.1 -0.22,-4.2 -0.64,-6.25 -1.38,-6.56 -4.94,-12.48 -10.31,-17.13l0.61 -0.54c5.49,4.75 9.14,10.82 10.55,17.53 0.43,2.1 0.66,4.26 0.66,6.4 0,4.38 -0.92,8.72 -2.68,12.73 -2.68,6.11 -7.08,11.32 -12.63,15.01 -4.33,2.91 -9.48,4.93 -14.96,6 -0.09,-0.24 -0.16,-0.46 -0.26,-0.72z"/>
   <path class="fil0 str0" d="M73.8 15.28c2.36,1.63 2.99,3.01 3.45,4.87 -2.05,-0.71 -3.37,-1.16 -5.52,-2.65 -2.02,-1.38 -3.88,-3.02 -5.51,-4.84 2.72,0.15 5.35,1.06 7.58,2.62l0 0z"/>
   <path class="fil0 str0" d="M81.85 34.44c1.16,0.84 2.41,1.28 3.59,1.22 -0.39,-1.48 -1.31,-2.78 -2.57,-3.65 -0.8,-0.56 -1.76,-0.87 -2.73,-0.87 -0.34,0 -0.67,0.04 -0.99,0.11 0.65,1.25 1.57,2.34 2.7,3.19l0 0z"/>
  </g>
 </g>
</svg>
