<?xml version="1.0" encoding="UTF-8"?>
<!DOCTYPE svg PUBLIC "-//W3C//DTD SVG 1.1//EN" "http://www.w3.org/Graphics/SVG/1.1/DTD/svg11.dtd">
<!-- Creator: CorelDRAW 2017 -->
<svg xmlns="http://www.w3.org/2000/svg" xml:space="preserve" width="430px" height="690px" version="1.1" style="shape-rendering:geometricPrecision; text-rendering:geometricPrecision; image-rendering:optimizeQuality; fill-rule:evenodd; clip-rule:evenodd"
viewBox="0 0 430 690"
 xmlns:xlink="http://www.w3.org/1999/xlink">
 <defs>
  <style type="text/css">
   <![CDATA[
    .fil16 {fill:black;fill-rule:nonzero}
    .fil2 {fill:#1D0E0A;fill-rule:nonzero}
    .fil30 {fill:#1D1521;fill-rule:nonzero}
    .fil1 {fill:#2A160E;fill-rule:nonzero}
    .fil32 {fill:#31225B;fill-rule:nonzero}
    .fil24 {fill:#312334;fill-rule:nonzero}
    .fil7 {fill:#340C0C;fill-rule:nonzero}
    .fil19 {fill:#3F231A;fill-rule:nonzero}
    .fil15 {fill:#441D0F;fill-rule:nonzero}
    .fil6 {fill:#4F0E0C;fill-rule:nonzero}
    .fil33 {fill:#563997;fill-rule:nonzero}
    .fil20 {fill:#5B3B36;fill-rule:nonzero}
    .fil14 {fill:#602F16;fill-rule:nonzero}
    .fil22 {fill:#721A1A;fill-rule:nonzero}
    .fil25 {fill:#774B2B;fill-rule:nonzero}
    .fil23 {fill:#996D38;fill-rule:nonzero}
    .fil27 {fill:#9E723B;fill-rule:nonzero}
    .fil9 {fill:#A57452;fill-rule:nonzero}
    .fil26 {fill:#AC8044;fill-rule:nonzero}
    .fil28 {fill:#B6874D;fill-rule:nonzero}
    .fil10 {fill:#BABABA;fill-rule:nonzero}
    .fil17 {fill:#BF4949;fill-rule:nonzero}
    .fil8 {fill:#C19C83;fill-rule:nonzero}
    .fil3 {fill:#DBDBDB;fill-rule:nonzero}
    .fil29 {fill:#E1AD89;fill-rule:nonzero}
    .fil34 {fill:#E58094;fill-rule:nonzero}
    .fil0 {fill:#F0BE95;fill-rule:nonzero}
    .fil21 {fill:#F2D1C4;fill-rule:nonzero}
    .fil11 {fill:#F8A701;fill-rule:nonzero}
    .fil31 {fill:#F98282;fill-rule:nonzero}
    .fil4 {fill:#F9CDA8;fill-rule:nonzero}
    .fil5 {fill:#FB9A80;fill-rule:nonzero}
    .fil12 {fill:#FDCD49;fill-rule:nonzero}
    .fil13 {fill:white;fill-rule:nonzero}
    .fil18 {fill:#441D0F;fill-rule:nonzero;fill-opacity:0.701961}
   ]]>
  </style>
 </defs>
 <g id="Layer_x0020_1">
  <metadata id="CorelCorpID_0Corel-Layer"/>
  <g id="_2085695855616">
   <path class="fil0" d="M313.23 98.49c5.93,-1.53 10.54,6.89 9.34,12.89 -1.6,7.98 -9.46,10.45 -13.98,11.67 -0.13,-6.81 1.96,-16.27 3.25,-22.83l1.39 -1.73z"/>
   <path class="fil1" d="M225.97 24.06c-11.34,15.27 -15.54,32.97 -16.89,51.46 -0.42,7.68 1.12,13.62 3.53,20.67 1.81,5.37 10.85,17.41 11.47,5.46 0.44,-6.54 -0.27,-13.63 -1.52,-19.85 5,-5.5 4.28,-13.72 8.98,-20.07 4.43,-6.05 11.45,-10.16 18.8,-12.29 3.66,-1.21 7.92,-1.87 11.9,-1.66 3.41,0.22 7.43,2.41 10.55,2.07 3.41,-0.07 6.75,-3.54 10.14,-4.46 3.39,-0.92 6.51,-0.98 9.94,-0.19 18.52,3.05 20.5,16.93 20.53,33.12 -0.14,7.39 0.85,14.47 0.14,21.59 -0.23,3.13 -1.54,8.55 2.95,5.91 2.81,-1.76 4.66,-8.62 6.04,-11.2 4.36,-9.18 6.2,-16.88 6.28,-27.11 0.03,-13.07 0.36,-25.29 -9.76,-34.76 -12.74,-12.25 -29.52,-13.06 -46.3,-14.15 -13.09,-0.88 -24.7,1.05 -37.43,3.85l-9.35 1.61z"/>
   <path class="fil2" d="M374.68 197.76c0.31,-0.32 -0.02,-1.24 0.6,-1.26 7.45,-1.39 15.93,2.81 21.63,7.68 9.82,8.52 -10.32,13.58 -17.62,6.56l-4.61 -12.98z"/>
   <path class="fil3" d="M377.46 196.46c-2.28,-4.94 8.04,-2.65 10.55,-1.76 2.51,0.88 9.08,2.62 10.37,4.78 1.92,3.07 -2.71,5.03 -6.14,4.79l-14.78 -7.81z"/>
   <path class="fil3" d="M252.65 181.66c-1.26,-0.39 -7.05,0.56 -9.08,2.67 -5.3,5.09 -5.04,18.37 -5.34,24.6 -0.13,14.11 -2.36,27.85 -3.34,41.57 -0.84,20.36 -0.46,40.27 -0.49,60.19 0.07,3.33 -1.03,10.82 0.68,13.27 2.55,3.28 11.28,3.94 15.03,4.28 8.31,0.67 28.24,1.11 33.49,-6.47 3.22,-5.04 1.7,-19.54 1.58,-25.35 0.19,-11.62 -0.86,-22.81 0.16,-34.45 1.73,-17.88 3.44,-36.6 1.43,-54.4 -1.01,-9.12 -0.37,-19.09 -9.58,-23.06 -2.1,-1.21 -4.19,-2 -6.69,-2.36l-17.85 -0.49z"/>
   <path class="fil4" d="M377.59 203.4c6.69,-23.34 4.6,-47.04 7.72,-70.7 0.9,-4.96 4.82,-31.41 8.68,-30.31 4.34,1.25 0.66,26.87 0.86,31.63 -0.07,2.07 -0.49,3.55 -0.56,5.61 2.7,-7.58 3.94,-15.57 6.01,-22.81 0.97,-3.38 1.45,-10.54 4.21,-12.88 3.52,-3.17 9.25,-3.1 7.59,2.69 7.94,-7.65 3.99,11.59 3.5,15.11 -1.59,7.38 -3.8,15.1 -5.87,22.34 1.45,-6.9 6.9,-16.82 14.01,-17.92 -0.43,12.41 -9.25,17.72 -14.71,27.64 -4.42,8.14 -3.76,25.88 -16.86,24.21 -2.62,9.17 -4.77,18.48 -5.89,27.88l-8.69 -2.49z"/>
   <path class="fil5" d="M401.18 141.11c0,0 0.13,-0.57 0.39,-1.54 0.28,-0.97 0.64,-2.37 1.16,-4.01 1,-3.31 2.49,-7.65 4.12,-11.94 1.37,-4.36 2.88,-8.67 4.13,-11.88 0.61,-1.6 1.2,-2.92 1.58,-3.86 0.39,-0.93 0.64,-1.45 0.64,-1.45 0,0 -0.09,0.57 -0.3,1.56 -0.22,0.98 -0.48,2.4 -0.9,4.08 -0.8,3.36 -2.03,7.82 -3.41,12.22 -1.64,4.29 -3.42,8.52 -4.87,11.65 -0.71,1.57 -1.38,2.85 -1.81,3.76 -0.45,0.9 -0.73,1.41 -0.73,1.41z"/>
   <path class="fil4" d="M379.95 131.37c-7.39,2.06 -4.17,40.06 3.48,44.35 13.65,7.04 8.77,-17.86 5.4,-22.48 -2.55,-3.87 -3.38,-0.97 -5.24,-7.25 -1.1,-3.45 -1.44,-7.72 -1.44,-11.38l-2.2 -3.24z"/>
   <path class="fil5" d="M392.03 172.91c0,0 -0.01,-0.46 0.03,-1.28 0,-0.4 0.08,-0.9 0.04,-1.46 -0.05,-0.55 -0.12,-1.17 -0.15,-1.84 0,-0.65 -0.18,-1.4 -0.27,-2.16 -0.08,-0.77 -0.22,-1.58 -0.4,-2.41 -0.16,-0.83 -0.32,-1.69 -0.54,-2.55 -0.23,-0.86 -0.39,-1.75 -0.69,-2.59 -0.25,-0.87 -0.48,-1.74 -0.82,-2.53 -0.17,-0.4 -0.29,-0.83 -0.46,-1.2 -0.19,-0.35 -0.37,-0.71 -0.54,-1.05 -0.43,-0.67 -0.95,-1.44 -1.38,-1.85 -0.48,-0.48 -1.16,-0.83 -1.71,-1.48 -0.51,-0.61 -0.78,-1.26 -0.93,-1.81 -0.21,-0.56 -0.31,-1.04 -0.39,-1.45 -0.16,-0.8 -0.23,-1.26 -0.23,-1.26 0,0 0.23,0.42 0.57,1.14 0.17,0.37 0.37,0.82 0.68,1.27 0.26,0.49 0.62,0.96 1.06,1.36 0.4,0.36 1.13,0.61 1.86,1.17 0.78,0.62 1.26,1.21 1.81,1.96 0.51,0.8 1.03,1.65 1.34,2.52 0.39,0.87 0.65,1.78 0.93,2.68 0.29,0.91 0.45,1.84 0.66,2.74 0.22,0.9 0.28,1.82 0.4,2.69 0.14,0.87 0.17,1.73 0.17,2.54 0.01,0.81 0.06,1.56 -0.05,2.29 -0.06,0.72 -0.16,1.37 -0.23,1.93 -0.09,0.57 -0.28,1.03 -0.38,1.42 -0.23,0.77 -0.38,1.21 -0.38,1.21z"/>
   <path class="fil5" d="M390.96 138.71c0,0 1.32,-0.01 3.25,0.18 0.97,0.07 2.07,0.18 3.28,0.36 0.6,0.1 1.23,0.15 1.86,0.32 0.63,0.14 1.27,0.29 1.91,0.44 0.64,0.22 1.27,0.44 1.89,0.66 0.63,0.18 1.17,0.59 1.74,0.85 1.14,0.54 2.01,1.38 2.78,1.99 0.4,0.3 0.66,0.7 0.93,0.99 0.26,0.31 0.48,0.58 0.66,0.81 0.36,0.45 0.54,0.72 0.54,0.72 0,0 -0.28,-0.17 -0.79,-0.45 -0.24,-0.15 -0.53,-0.32 -0.86,-0.53 -0.34,-0.19 -0.67,-0.48 -1.11,-0.67 -0.43,-0.21 -0.88,-0.44 -1.35,-0.69 -0.45,-0.28 -0.98,-0.47 -1.52,-0.69 -0.55,-0.2 -1.07,-0.47 -1.66,-0.64 -0.58,-0.18 -1.17,-0.37 -1.76,-0.56 -2.4,-0.65 -4.91,-1.25 -6.77,-1.87 -1.84,-0.62 -3.02,-1.22 -3.02,-1.22z"/>
   <path class="fil4" d="M202.17 360.72c-2.04,1.28 -5.77,1.77 -7.81,3.89 -4.9,3.83 -5.19,10.47 -5.08,16.28 0.22,11.21 9.67,27.62 21.36,30.72 2.25,-12.08 -2.61,-27.35 -5.75,-39.32 1.32,3.71 4.32,8.63 7.27,11.06 4.46,-5.48 -4.12,-19.84 -9.16,-23.06l-0.83 0.43z"/>
   <path class="fil6" d="M252.19 666.41c0.19,-5.12 -2.11,-10.97 -4.07,-15.74l-24.89 0.92c-5.21,5.17 -14.16,10.07 -21.47,14.49 -4,2.33 -15.6,7.26 -17.78,11.59 5.82,10 56.6,-4.07 68.21,-11.26z"/>
   <path class="fil7" d="M183.98 677.67c-1.14,2.27 0.31,4.37 6.79,5.84 9.63,2.14 20.78,0.48 30.66,-1.95 4.53,-1 9.37,-4.92 13.93,-5.09 5.38,-0.61 7.16,2.65 12.81,-1.71 2.81,-2.19 3.91,-5.13 4.02,-8.35 -11.61,7.19 -62.39,21.26 -68.21,11.26z"/>
   <path class="fil6" d="M257.95 668.06c-0.56,-5.09 1.31,-11.09 2.91,-15.99l24.89 -0.91c5.57,4.77 14.86,9 22.48,12.87 4.16,2.03 16.08,6.09 18.57,10.25 -5.06,10.4 -56.73,0.11 -68.85,-6.22z"/>
   <path class="fil7" d="M326.8 674.28c1.31,2.18 0.02,4.38 -6.33,6.33 -9.45,2.84 -20.69,2.01 -30.72,0.3 -4.6,-0.66 -9.71,-4.21 -14.27,-4.04 -5.41,-0.22 -6.95,3.16 -12.91,-0.77 -2.96,-1.98 -4.26,-4.83 -4.62,-8.04 12.12,6.33 63.79,16.62 68.85,6.22z"/>
   <path class="fil8" d="M201.92 348.3c0,0 5.49,117.5 9.18,136.8 3.69,19.3 -2.77,62.35 3.68,95.13 3.23,16.39 8.77,35.44 5.72,51.87 -0.55,2.98 -1.92,5.12 1.46,7.68 -3.58,1.82 -3.61,5.75 -0.05,7.33 -11.18,3.91 8.32,7.56 11.4,7.64 4.29,0.1 19.32,2.62 20.47,-2.61l1.77 -239.52c0,0 1.16,116.22 2.53,119.51 1.37,3.3 -5.92,94.29 -0.71,118.2 0.77,3.53 13.4,4.27 15.68,4.22 4.43,-0.09 15.21,-1.27 17.92,-5.26 2.08,-3.07 1.12,-11.04 -2.95,-12.11 2.22,-1.91 4.19,-4.38 3.46,-7.52 -0.56,-0.07 -1.08,0.01 -1.6,-0.16 7.15,-4.13 1.97,-7.99 -0.02,-12.33 0,0 6.39,-79.35 7.52,-99.95 1.13,-20.6 14.44,-149.77 9.45,-166.85l-11.49 -24.57 -86.3 7.79 -7.47 0.28 0.35 14.43z"/>
   <path class="fil9" d="M219.29 645.93c0,0 0.45,0.09 1.24,0.25 0.38,0.12 0.87,0.11 1.4,0.19 0.52,0.09 1.15,0.06 1.81,0.1 1.33,0 2.87,-0.08 4.53,-0.31 0.82,-0.08 1.67,-0.26 2.54,-0.38 0.87,-0.15 1.75,-0.31 2.63,-0.49 3.52,-0.69 7.08,-1.48 9.81,-1.87 2.72,-0.42 4.58,-0.41 4.58,-0.41 0,0 -1.73,0.64 -4.32,1.51 -2.59,0.87 -6.07,1.98 -9.69,2.7 -1.82,0.32 -3.65,0.62 -5.41,0.67 -1.75,0.09 -3.4,-0.04 -4.79,-0.3 -0.69,-0.15 -1.32,-0.26 -1.87,-0.49 -0.54,-0.2 -1.02,-0.34 -1.36,-0.55 -0.7,-0.4 -1.1,-0.62 -1.1,-0.62z"/>
   <path class="fil9" d="M224.65 639.5c0,0 0.25,-0.01 0.68,0.01 0.43,0.01 1.05,0.12 1.74,0.12 0.35,0.01 0.72,0.02 1.1,0.06 0.39,0.03 0.82,0 1.25,0.04 0.85,0.06 1.77,0.04 2.68,0.07 1.84,0.03 3.7,0.07 5.12,0.15 1.42,0.07 2.41,0.24 2.41,0.24 0,0 -0.88,0.48 -2.28,0.88 -0.7,0.2 -1.53,0.41 -2.43,0.51 -0.46,0.05 -0.92,0.16 -1.4,0.15 -0.48,0.01 -0.97,0.03 -1.45,0.04 -0.98,-0.07 -1.96,-0.09 -2.86,-0.32 -0.9,-0.16 -1.74,-0.44 -2.44,-0.74 -0.71,-0.24 -1.18,-0.61 -1.56,-0.83 -0.36,-0.23 -0.56,-0.38 -0.56,-0.38z"/>
   <path class="fil9" d="M283.17 638.59c0,0 -0.22,0.2 -0.61,0.52 -0.2,0.16 -0.45,0.35 -0.73,0.57 -0.26,0.23 -0.66,0.38 -1.06,0.58 -0.41,0.19 -0.87,0.43 -1.37,0.59 -0.49,0.13 -1.01,0.28 -1.57,0.4 -0.54,0.15 -1.12,0.21 -1.71,0.25 -0.59,0.02 -1.19,0.13 -1.79,0.07 -0.6,-0.06 -1.19,-0.11 -1.78,-0.17 -0.59,-0.04 -1.15,-0.27 -1.7,-0.39 -0.54,-0.14 -1.07,-0.27 -1.53,-0.52 -0.47,-0.22 -0.9,-0.44 -1.3,-0.65 -0.8,-0.39 -1.33,-0.99 -1.73,-1.3 -0.38,-0.35 -0.58,-0.55 -0.58,-0.55 0,0 0.29,0.08 0.79,0.22 0.5,0.11 1.12,0.43 1.95,0.58 0.42,0.08 0.86,0.18 1.31,0.3 0.44,0.14 0.96,0.14 1.46,0.23 1.01,0.17 2.09,0.23 3.18,0.28 0.54,0.08 1.08,-0.01 1.62,0 0.53,-0.02 1.07,0.03 1.57,-0.06 0.51,-0.06 1.01,-0.09 1.48,-0.12 0.46,-0.07 0.89,-0.14 1.29,-0.21 0.4,-0.09 0.8,-0.07 1.13,-0.2 0.35,-0.1 0.65,-0.18 0.89,-0.24 0.5,-0.13 0.79,-0.18 0.79,-0.18z"/>
   <path class="fil9" d="M265.94 627.39c0,0 0.38,0.11 1.03,0.31 0.66,0.17 1.55,0.61 2.66,0.86 0.55,0.15 1.13,0.31 1.74,0.5 0.6,0.2 1.3,0.28 1.97,0.46 1.36,0.36 2.85,0.56 4.32,0.84 1.49,0.18 2.97,0.42 4.38,0.52 0.71,0.04 1.39,0.17 2.04,0.19 0.65,0.03 1.26,0.08 1.84,0.13 1.14,0.12 2.1,0.11 2.78,0.19 0.68,0.07 1.07,0.11 1.07,0.11 0,0 -0.38,0.1 -1.04,0.28 -0.66,0.15 -1.61,0.44 -2.77,0.56 -1.16,0.15 -2.53,0.31 -4,0.27 -0.73,-0.01 -1.5,0.04 -2.26,-0.07 -0.77,-0.08 -1.56,-0.16 -2.34,-0.24 -0.77,-0.16 -1.54,-0.32 -2.3,-0.48 -0.77,-0.12 -1.48,-0.41 -2.19,-0.63 -0.7,-0.25 -1.37,-0.45 -1.99,-0.75 -0.63,-0.29 -1.2,-0.59 -1.73,-0.86 -1.08,-0.5 -1.79,-1.16 -2.36,-1.54 -0.54,-0.41 -0.85,-0.65 -0.85,-0.65z"/>
   <path class="fil9" d="M221.98 380.46c0,0 0.27,1.91 0.75,5.25 0.43,3.35 1.14,8.12 1.84,13.87 0.69,5.74 1.59,12.44 2.39,19.62 0.81,7.19 1.67,14.86 2.53,22.52 0.48,7.71 0.97,15.42 1.42,22.64 0.46,7.23 0.74,13.98 1.05,19.76 0.31,5.78 0.45,10.61 0.6,13.98 0.11,3.37 0.17,5.3 0.17,5.3 0,0 -0.2,-1.92 -0.56,-5.28 -0.31,-3.36 -0.83,-8.16 -1.31,-13.92 -0.48,-5.77 -1.12,-12.48 -1.65,-19.69 -0.54,-7.2 -1.11,-14.89 -1.68,-22.58 -0.77,-7.67 -1.54,-15.35 -2.27,-22.54 -0.72,-7.2 -1.26,-13.93 -1.79,-19.69 -0.53,-5.77 -0.84,-10.58 -1.12,-13.95 -0.24,-3.37 -0.37,-5.29 -0.37,-5.29z"/>
   <path class="fil9" d="M226.53 521.07c0,0 0.24,1.19 0.66,3.27 0.38,2.08 1,5.05 1.6,8.63 0.61,3.57 1.39,7.74 1.92,12.25 0.59,4.51 1.16,9.32 1.72,14.14 0.44,4.82 0.89,9.64 1.23,14.17 0.39,4.52 0.58,8.75 0.81,12.38 0.22,3.62 0.29,6.65 0.39,8.77 0.06,2.12 0.1,3.33 0.1,3.33 0,0 -0.18,-1.2 -0.48,-3.3 -0.26,-2.1 -0.72,-5.1 -1.12,-8.71 -0.42,-3.6 -0.9,-7.81 -1.42,-12.31 -0.52,-4.51 -0.99,-9.32 -1.47,-14.13 -0.52,-4.8 -1.05,-9.6 -1.48,-14.11 -0.25,-2.25 -0.38,-4.44 -0.62,-6.5 -0.24,-2.07 -0.47,-4.02 -0.67,-5.83 -0.43,-3.6 -0.67,-6.62 -0.89,-8.73 -0.18,-2.11 -0.28,-3.32 -0.28,-3.32z"/>
   <path class="fil9" d="M255.55 412.62c0,0 0.02,-1.25 0.05,-3.45 0.03,-2.19 0.17,-5.33 0.19,-9.08 0,-1.87 0,-3.9 0,-6.05 0.04,-2.14 -0.11,-4.4 -0.14,-6.74 -0.06,-4.68 -0.33,-9.68 -0.54,-14.67 -0.26,-5 -0.51,-10 -0.75,-14.69 -0.25,-4.68 -0.33,-9.08 -0.47,-12.83 -0.12,-3.76 -0.04,-6.9 -0.07,-9.1 0.02,-2.19 0.03,-3.44 0.03,-3.44 0,0 0.13,1.24 0.35,3.43 0.19,2.18 0.47,5.3 0.8,9.05 0.32,3.74 0.69,8.11 1.09,12.79 0.17,2.34 0.4,4.75 0.53,7.22 0.15,2.47 0.3,4.97 0.46,7.47 0.08,2.51 0.17,5.02 0.26,7.49 0.12,2.47 0.04,4.91 0.05,7.26 -0.02,2.36 -0.02,4.63 -0.17,6.79 -0.12,2.16 -0.23,4.2 -0.33,6.09 -0.06,1.88 -0.3,3.59 -0.47,5.11 -0.17,1.52 -0.32,2.84 -0.44,3.93 -0.28,2.18 -0.43,3.42 -0.43,3.42z"/>
   <path class="fil9" d="M260.74 333.56c0,0 0.46,3.54 1.15,8.86 0.31,2.66 0.75,5.77 1.05,9.12 0.33,3.34 0.49,6.94 0.53,10.54 -0.06,1.81 -0.04,3.61 -0.21,5.39 -0.09,1.78 -0.35,3.52 -0.6,5.2 -0.26,1.68 -0.67,3.28 -1.08,4.79 -0.5,1.48 -0.86,2.91 -1.46,4.14 -0.28,0.63 -0.54,1.22 -0.78,1.79 -0.28,0.56 -0.62,1.05 -0.89,1.52 -0.57,0.95 -1.04,1.78 -1.58,2.38 -0.99,1.22 -1.56,1.91 -1.56,1.91 0,0 0.45,-0.77 1.24,-2.12 0.45,-0.64 0.81,-1.52 1.25,-2.5 0.48,-0.96 0.86,-2.12 1.28,-3.37 0.49,-1.22 0.74,-2.64 1.11,-4.1 0.28,-1.48 0.54,-3.06 0.75,-4.69 0.19,-1.64 0.34,-3.34 0.42,-5.07 0.14,-1.73 0.1,-3.51 0.15,-5.27 -0.03,-1.77 -0.01,-3.54 -0.1,-5.29 -0.06,-1.75 -0.13,-3.47 -0.2,-5.14 -0.15,-3.34 -0.29,-6.46 -0.42,-9.13 -0.23,-5.38 -0.05,-8.96 -0.05,-8.96l0 0z"/>
   <path class="fil9" d="M244.68 421.98c0,0 1.06,-1.41 2.81,-3.33 0.44,-0.49 0.91,-1.01 1.43,-1.54 0.5,-0.56 1.11,-1.07 1.72,-1.62 1.22,-1.1 2.56,-2.21 3.91,-3.34 2.82,-2.04 5.67,-4.06 8.01,-5.24 2.31,-1.25 3.92,-1.93 3.92,-1.93 0,0 -1.26,1.24 -3.28,2.87 -1.02,0.81 -2.21,1.74 -3.45,2.77 -1.25,1.03 -2.64,2.04 -4,3.09 -1.33,1.06 -2.67,2.13 -3.97,3.08 -0.63,0.5 -1.3,0.91 -1.87,1.39 -0.57,0.48 -1.14,0.9 -1.66,1.3 -2.07,1.58 -3.57,2.5 -3.57,2.5z"/>
   <path class="fil9" d="M280.81 506.62c0,0 -0.04,-1.57 -0.1,-4.33 -0.03,-1.37 -0.07,-3.04 0.09,-4.96 0.12,-1.91 0.21,-4.1 0.45,-6.44 0.18,-2.34 0.51,-4.89 0.59,-7.57 0.14,-2.69 0.28,-5.53 0.43,-8.47 0.16,-2.94 0.33,-5.98 0.5,-9.07 0.19,-3.09 0.37,-6.22 0.35,-9.35 0.11,-6.27 0.43,-12.52 0.36,-18.41 -0.02,-5.88 0.15,-11.38 0.16,-16.09 0.02,-4.72 0.16,-8.65 0.2,-11.4 0.08,-2.75 0.13,-4.32 0.13,-4.32 0,0 0.09,1.57 0.25,4.32 0.12,2.75 0.37,6.67 0.53,11.38 0.14,4.71 0.35,10.21 0.43,16.11 0.08,2.95 0.07,5.99 0.01,9.1 -0.03,3.1 -0.07,6.25 -0.1,9.41 -0.03,3.15 -0.26,6.29 -0.49,9.37 -0.21,3.09 -0.43,6.12 -0.63,9.06 -0.18,2.94 -0.46,5.74 -0.71,8.48 -0.19,2.72 -0.63,5.23 -0.91,7.57 -0.3,2.33 -0.58,4.46 -0.82,6.36 -0.3,1.89 -0.38,3.56 -0.44,4.93 -0.18,2.75 -0.28,4.32 -0.28,4.32z"/>
   <path class="fil9" d="M275.76 538.57c0,0 0.13,1.02 0.36,2.8 0.19,1.77 0.54,4.31 0.82,7.37 0.15,1.52 0.31,3.18 0.48,4.93 0.19,1.74 0.21,3.6 0.29,5.52 0.14,3.84 0.22,7.94 0.31,12.05 -0.04,4.09 -0.08,8.18 -0.18,12.01 -0.13,3.83 -0.25,7.41 -0.35,10.47 -0.09,3.06 -0.29,5.62 -0.38,7.41 -0.12,1.79 -0.19,2.81 -0.19,2.81 0,0 -0.07,-1.02 -0.19,-2.81 -0.08,-1.79 -0.27,-4.35 -0.35,-7.41 -0.08,-3.07 -0.24,-6.65 -0.28,-10.48 -0.06,-3.83 -0.05,-7.92 -0.05,-12 -0.04,-4.07 -0.09,-8.14 -0.07,-11.97 -0.03,-1.91 0.09,-3.76 0.01,-5.51 -0.05,-1.76 -0.1,-3.42 -0.15,-4.95 -0.1,-3.07 -0.07,-5.63 -0.1,-7.42 0.01,-1.79 0.02,-2.82 0.02,-2.82z"/>
   <path class="fil6" d="M234.95 322.55c-5.19,-0.43 -10.25,-1.13 -15.3,-1.83 -3.73,-0.59 -9.04,-0.35 -12.41,-2.55l0.53 13.41c4.26,0.45 8.79,1.42 13.19,1.86 8.16,0.9 16.5,1.47 24.8,2.23 0.19,-4.11 0.79,-8.28 0.95,-12.37 -3.92,-0.15 -7.84,-0.37 -11.76,-0.75z"/>
   <path class="fil6" d="M302.74 318.97c-1.2,-0.11 -2.25,0.44 -3.31,0.73 -9.89,2.99 -21.03,3.97 -31.7,4.07 -0.4,4.24 -0.08,8.81 -0.16,13.26 6.1,-0.04 12.25,-0.39 18.24,-0.87 4.64,-0.35 15.76,-2.16 16.73,-7.23 0.6,-3.06 0.39,-6.91 0.2,-9.96z"/>
   <path class="fil10" d="M258.88 323.68c-4.06,-0.13 -8.12,-0.22 -12.17,-0.38 -0.16,4.09 -0.76,8.26 -0.95,12.37 2.11,0.2 4.22,0.39 6.33,0.62 5.04,0.58 10.24,0.77 15.48,0.74 0.08,-4.45 -0.24,-9.02 0.16,-13.26 -3,0.03 -5.97,0 -8.85,-0.09z"/>
   <path class="fil11" d="M259.89 201.86c-3.77,15.6 -4.22,22.22 -8.61,48.45 -1.71,8.44 -4.66,29.02 -3.06,32.81 2.82,6.69 9.57,18.41 14.34,23.6 3.93,-5.68 9.15,-17.83 12.29,-24.12 1.62,-3.23 -5.43,-55.08 -9.98,-80.83l-4.98 0.09z"/>
   <path class="fil12" d="M260.24 187.85c-1.53,1.59 -6.11,5.72 -6.39,7.91 -0.86,3.44 3.92,8.95 7.05,10.13 4.39,1.47 8.03,-3.27 9.81,-7.66 1.79,-4.08 1.44,-6.25 -1.74,-9.62l-8.73 -0.76z"/>
   <path class="fil13" d="M253.23 179.89c-2.47,0.67 -7.77,0.15 -9.92,2.06 -4.59,4.14 -5.28,16.29 -3.31,21.86 2.67,9.29 10.76,8.82 16.24,2.17 4.87,-5.38 5.38,-11.31 6.49,-18.18 1.37,6.51 8.98,29.71 18.8,22.36 7.36,-5.75 0.52,-21.18 -1.17,-27.99 -7.45,0.76 -20.36,9.42 -27.07,0.83l-0.06 -3.11z"/>
   <path class="fil4" d="M228.8 35.77c-1.95,2.77 -3.55,5.82 -4.79,8.92 -3.42,8.48 -5.06,17.65 -6.2,26.68 -0.98,7.98 -1.71,14.24 -0.02,28.41 -2.03,-2.49 -4.58,-1.78 -7.38,0.26 -3.63,2.92 -3.87,5.36 -3.21,9.89 1,7.94 7.39,14.76 15.33,14.32 4.83,14.4 11.66,29.48 30.48,33.37 1.29,7.93 0.63,17.32 1.06,25.27 4.06,4.18 22.04,6.03 21.3,-0.7 -0.35,-3.12 -1.22,-18.73 -2.17,-23.83 8.84,-2.16 12.72,-3.37 18.61,-7.18 7.29,-4.69 12.55,-11.89 16.38,-19.63 3.27,-7.17 6.23,-15.18 7.22,-22.87 0.72,-7.12 2.58,-13.69 3.86,-20.82 1.25,-8.83 0.77,-18.77 0.31,-27.85 -1.38,-26.96 -26.41,-42.95 -51.97,-42.45 -13.14,0.26 -26.31,4.56 -35.59,14.26 -1.16,1.22 -2.24,2.55 -3.22,3.95z"/>
   <path class="fil14" d="M273.73 12.06c-7.71,-5.42 -10.6,-6.06 -16.58,-6.51 -13.65,-0.59 -28.91,3.69 -38.95,13.26 -10.04,9.28 -16.04,22.19 -19.48,35.04 -0.8,2.86 -1.76,4.51 -1.91,5.79 -0.16,1.28 30.75,16.38 34.1,13.47 1.68,-1.45 8.49,-16.08 11.55,-19.54 3.88,-5.19 9.43,-12.12 16.53,-11.97 5.12,0.18 11.16,4.04 14.64,7.67 5.31,-4.37 7.46,-10.95 15.1,-12.23 5.95,-0.68 11.1,1.2 14.89,5.96 6.41,8.39 7.53,22.01 6.31,32.26 6.54,0.16 28.28,-7.52 30.24,-8.54 1.7,-0.89 -0.39,-5.11 -1.03,-8.79 -2.53,-13.3 -5.13,-30.01 -14.99,-40.05 -6.95,-6.96 -16.41,-11.33 -26.08,-11.71 -7.68,-0.41 -15.08,-1.24 -24.34,5.89z"/>
   <path class="fil5" d="M261.6 102.62c1.09,2.16 2.03,4.41 3.27,6.45 0.28,0.52 0.64,0.99 0.97,1.48 0.31,0.5 0.69,0.95 1.07,1.39 0.36,0.46 0.78,0.86 1.22,1.24 0.41,0.4 0.85,0.77 1.35,1.07 0.51,0.32 0.9,0.65 1.46,0.91 0.54,0.29 1.01,0.49 1.56,0.69 1.07,0.36 2.16,0.64 3.24,0.62 0.53,-0.02 1.06,-0.07 1.55,-0.22 0.49,-0.12 0.94,-0.37 1.35,-0.64 0.42,-0.29 0.78,-0.64 1.1,-1.04 0.31,-0.42 0.57,-0.87 0.8,-1.36l-0.03 0.09c0.12,-0.69 0.36,-1.35 0.34,-2.08 0.09,-0.71 0,-1.45 -0.05,-2.18 -0.18,-1.46 -0.5,-2.94 -1.02,-4.37 -0.22,-0.72 -0.55,-1.41 -0.83,-2.12l-0.48 -1.03c-0.1,-0.25 -0.37,-0.65 -0.54,-0.98l-2.36 -4.11c-0.39,-0.68 -0.73,-1.42 -1.07,-2.14 -0.36,-0.72 -0.7,-1.45 -0.94,-2.23 -0.26,-0.78 -0.59,-1.52 -0.69,-2.34 -0.12,-0.81 -0.39,-1.59 -0.37,-2.41 -0.02,-0.81 -0.01,-1.62 0,-2.43l0.39 -2.37c0.24,-1.57 0.85,-3.06 1.3,-4.56l-0.4 2.33c-0.14,0.77 -0.32,1.53 -0.32,2.31l-0.14 2.32 0.21 2.29c0.03,0.77 0.34,1.48 0.49,2.22 0.13,0.75 0.5,1.43 0.78,2.14 0.27,0.7 0.64,1.38 1.03,2.05 0.37,0.67 0.73,1.34 1.17,2l2.47 4c0.22,0.37 0.41,0.6 0.64,1.07l0.55 1.09c0.31,0.75 0.66,1.49 0.91,2.27 0.58,1.52 0.95,3.13 1.18,4.78 0.06,0.84 0.14,1.68 0.03,2.54 0.01,0.85 -0.27,1.7 -0.46,2.55l-0.02 0.06 -0.02 0.03c-0.29,0.6 -0.63,1.19 -1.05,1.74 -0.45,0.54 -0.95,1.04 -1.55,1.42 -0.6,0.37 -1.25,0.69 -1.93,0.84 -0.68,0.18 -1.37,0.22 -2.04,0.22 -1.35,-0.04 -2.63,-0.37 -3.81,-0.89 -0.57,-0.24 -1.2,-0.56 -1.71,-0.88 -0.51,-0.28 -1.05,-0.74 -1.54,-1.11 -0.52,-0.36 -0.97,-0.8 -1.4,-1.27 -0.46,-0.44 -0.88,-0.9 -1.23,-1.42 -0.78,-0.98 -1.4,-2.07 -1.91,-3.19 -0.53,-1.11 -0.95,-2.25 -1.37,-3.39 -0.41,-1.14 -0.78,-2.29 -1.15,-3.45z"/>
   <path class="fil15" d="M240.98 65.24c0.74,-5.98 8.96,-6.71 12.45,-2.8 -3.68,0.93 -7.9,3 -11.59,3.35l-0.86 -0.55z"/>
   <path class="fil15" d="M288.93 61.75c6.77,-2.41 11.34,-0.79 12.05,6.02l-12.05 -6.02z"/>
   <path class="fil16" d="M247.57 81.12c-3.87,0.98 -3.56,10.74 1.29,10.45 4.25,-0.47 4.83,-10.11 0.66,-10.8l-1.95 0.35z"/>
   <path class="fil16" d="M295.83 86.26c3.51,1.89 0.83,11.28 -3.8,9.81 -4,-1.5 -2.22,-10.98 2,-10.63l1.8 0.82z"/>
   <path class="fil13" d="M264.25 128.91c6.11,1.15 14.41,4.56 17.39,-1.85l-33.24 -7.22c0.95,6.28 9.17,7.82 15.85,9.07z"/>
   <path class="fil17" d="M281.64 127.06c-2.98,6.41 -11.28,3 -17.39,1.85 -6.68,-1.25 -14.9,-2.79 -15.85,-9.07l-3.25 -0.7c-1.25,8.54 9.74,18.27 17.44,20.11 10.85,2.35 17.55,-3.46 23.36,-11.25l-4.31 -0.94z"/>
   <path class="fil5" d="M260.89 158.2c0,0 1.28,-0.22 3.17,-0.3 0.48,-0.02 0.99,-0.03 1.53,-0.05 0.53,-0.07 1.08,-0.16 1.65,-0.21 0.57,-0.05 1.16,-0.13 1.75,-0.16 0.6,-0.04 1.2,-0.05 1.81,-0.18 1.22,-0.17 2.44,-0.33 3.6,-0.42 1.16,-0.08 2.23,-0.31 3.18,-0.37 1.87,-0.19 3.18,-0.16 3.18,-0.16 0,0 -1.14,0.61 -2.93,1.26 -0.91,0.32 -1.95,0.76 -3.12,0.97 -1.17,0.26 -2.43,0.47 -3.69,0.67 -1.27,0.18 -2.6,0.12 -3.81,0.12 -0.6,0 -1.19,-0.04 -1.74,-0.06 -0.54,-0.07 -1.04,-0.19 -1.5,-0.29 -1.86,-0.39 -3.08,-0.82 -3.08,-0.82z"/>
   <path class="fil18" d="M271.55 40.04c1.69,-8.53 0.7,-18.34 0.27,-26.83 -4.25,0.08 -16.3,-4.99 -19.44,-2.54 -5.23,4.08 7.04,6.77 9.44,7.52 -1.86,0.03 -8.5,-0.37 -8.72,2.02 -0.22,2.4 6.43,3.07 8.04,3.57 -2.4,0.04 -11.44,-0.58 -11.36,3.14 0.07,3.72 7.22,2.52 9.62,3.27 5.34,1.48 9.68,5.92 11.6,9.33l0.55 0.52z"/>
   <path class="fil18" d="M275.8 13.13c-1,3.21 -0.37,8.24 -0.56,11.96 -0.17,5.06 -1.4,10.12 -1.04,15.16 2.54,-6.42 7,-8.9 13.62,-10.09 1.59,-0.03 5.85,0.42 6.35,-1.45 1,-2.94 -3.79,-3.38 -5.65,-3.34 3.11,-4.31 7.84,-6.53 -0.92,-6.62 3.13,-2.99 7.33,-5.46 1.45,-7.2 -1.87,-0.5 -5.31,0.1 -7.16,0.4l-6.09 1.18z"/>
   <path class="fil15" d="M204.55 63.92c0,0 0.08,-1.68 0.45,-4.14 0.16,-1.23 0.4,-2.66 0.92,-4.15 0.45,-1.51 1,-3.11 1.56,-4.69 1.26,-3.07 2.68,-6.07 3.82,-8.27 1.13,-2.2 2.06,-3.62 2.06,-3.62 0,0 -0.31,1.65 -1.01,4.04 -0.69,2.42 -1.8,5.51 -3.04,8.57 -0.57,1.52 -1.13,3.03 -1.72,4.44 -0.27,0.72 -0.62,1.37 -0.85,2.05 -0.21,0.68 -0.44,1.31 -0.65,1.9 -0.82,2.35 -1.54,3.87 -1.54,3.87z"/>
   <path class="fil15" d="M215.28 69.29c0,0 0.26,-1.44 0.88,-3.5 0.16,-0.52 0.32,-1.08 0.52,-1.66 0.15,-0.59 0.29,-1.22 0.48,-1.85 0.33,-1.28 0.76,-2.6 1.18,-3.95 0.46,-1.36 0.91,-2.71 1.4,-3.96 0.44,-1.26 1.02,-2.4 1.53,-3.36 1.01,-1.93 1.82,-3.12 1.82,-3.12 0,0 -0.21,1.47 -0.76,3.52 -0.13,0.52 -0.28,1.07 -0.46,1.65 -0.19,0.57 -0.3,1.22 -0.49,1.86 -0.33,1.29 -0.75,2.65 -1.17,4 -0.46,1.36 -0.94,2.74 -1.44,4 -0.47,1.28 -1.02,2.4 -1.58,3.32 -1.05,1.87 -1.91,3.05 -1.91,3.05z"/>
   <path class="fil19" d="M226 219.96c3.02,-4.73 8.57,-7.64 12.54,-11.45 -3.17,-2.74 -11.84,-0.71 -14.71,-3.76 -2.23,-2.76 2.36,-7.21 4.49,-9.74 3.99,-5.04 8.48,-9.04 13.3,-12.73 -4.97,1.03 -10.49,2.7 -15.2,3.74 -13.02,2.59 -24.67,3.75 -27.19,18.27 -4.61,26.71 -7.82,53.86 -11.97,80.55 -0.83,5.62 -8.07,17.44 -3.35,19.68 -7.87,3.42 -1.68,33.66 -1.54,41.12 0.73,13.53 1.41,24.26 6.79,36.76 0.05,-5.41 0.41,-10.74 2.67,-14.99 1.87,-3.93 4.27,-4.09 7.98,-5.63 0.26,4.96 0.7,8.28 2.27,12.9 3.97,11.6 10.72,22.67 19.76,31.37 3.34,3.67 9.1,11.49 14.14,6.73 3.21,-3.33 2.54,-13.59 2.92,-17.8 2.27,-27.13 2.69,-53.76 3.55,-81.33 0.16,-3.89 0.31,-7.75 0.46,-11.62 -7.97,-22.91 -14.18,-45.78 -18.23,-69.9 -0.72,-4.97 -1.4,-8.07 1.32,-12.17z"/>
   <path class="fil20" d="M246.51 210.38c0.32,-7.48 -0.9,-22.4 3.65,-28.56l-1.88 -0.43c-1.98,0.04 -4.26,0.39 -6.66,0.89 -4.82,3.69 -9.31,7.69 -13.3,12.73 -2.13,2.53 -6.72,6.98 -4.49,9.74 2.87,3.05 11.54,1.02 14.71,3.76 -3.97,3.81 -9.52,6.72 -12.54,11.45 -2.72,4.1 -2.04,7.2 -1.32,12.17 4.05,24.12 10.26,46.99 18.23,69.9 0.77,-19.82 1.51,-39.39 1.9,-58.93 0.26,-10.75 0.98,-21.97 1.7,-32.72z"/>
   <path class="fil13" d="M375.07 201.8c0.91,-1.57 1.68,-4.91 2.34,-7.46l0.03 0.88c4.57,2.98 13.34,6.48 21.13,6.64 -0.74,3.8 -2.8,7.63 -3.99,10.45l-19.51 -10.51z"/>
   <path class="fil19" d="M374.66 196.52c-1.14,5.31 -12.38,51.63 -18.66,52.35 -3.19,-4.61 -3.18,-6.79 -5.57,-1.76 -6.33,-5.48 -12.45,-9.1 -17.87,-15.53 -5.41,-5.81 -9.8,-14.44 -13.98,-21.21 -2.9,-4.92 -4.24,-10.19 -6.51,-14.81 -2.61,-5.87 -8.26,-8.25 -13.28,-10.64l-16.49 -4.46c1.8,3.85 4.84,8.53 6.34,11.19 0.97,1.85 5.75,7.36 5.17,9.55 -0.24,3.74 -6.77,3.87 -9.22,5.79 -4,2.88 -1.79,4.08 1.71,8.06 3.18,3.67 6.02,5.17 6.11,9.84 0.43,6.53 -2.84,14.38 -3.65,20.62 -3.13,16.49 -8.84,39.1 -13.7,57.25 -0.43,19.63 -0.86,35.98 -1.15,43.59 -0.13,9.03 -0.64,51.69 1.93,55.38 5.76,8.6 17.88,2.45 24.32,-2.34 6.74,-5.74 10.61,-14.84 10.76,-23.25 -0.03,-17.44 -0.68,-34.86 -1.65,-52.27 -0.63,-16.49 -1.61,-67.21 -1.82,-77.53 11.18,11.55 21.88,20.12 35.73,28.31 8.52,5.02 20.8,12.62 31.64,10.23 8.99,-2.05 12.69,-20.13 15.33,-28.27 4.13,-11.91 6.43,-24.27 8.58,-38.77 0.42,-2.79 0.51,-5.93 0.77,-8.73 -5.94,-1.13 -24.37,-4.2 -24.84,-12.59z"/>
   <path class="fil20" d="M292.41 224.89c-0.09,-4.67 -2.93,-6.17 -6.11,-9.84 -3.5,-3.98 -5.71,-5.18 -1.71,-8.06 2.45,-1.92 8.98,-2.05 9.22,-5.79 0.58,-2.19 -4.2,-7.7 -5.17,-9.55 -1.5,-2.66 -4.54,-7.34 -6.34,-11.19l-6.05 -1.64c0.97,4 -0.12,74.42 -1.19,123.94 4.86,-18.15 10.57,-40.76 13.7,-57.25 0.81,-6.24 4.08,-14.09 3.65,-20.62z"/>
   <path class="fil15" d="M316.93 38.63c0,0 0.27,0.46 0.69,1.29 0.39,0.84 1.02,2.02 1.67,3.46 0.33,0.73 0.68,1.51 1.05,2.35 0.38,0.82 0.62,1.77 0.92,2.72 0.6,1.92 1.17,3.99 1.73,6.06 0.38,2.09 0.76,4.19 1.05,6.16 0.15,0.99 0.32,1.94 0.38,2.85 0.08,0.91 0.13,1.77 0.17,2.57 0.11,1.59 0.11,2.93 0.15,3.85 0.02,0.93 0,1.46 0,1.46 0,0 -0.15,-0.51 -0.38,-1.41 -0.21,-0.91 -0.56,-2.19 -0.89,-3.74 -0.16,-0.77 -0.34,-1.61 -0.51,-2.5 -0.15,-0.9 -0.43,-1.81 -0.62,-2.78 -0.45,-1.92 -0.86,-3.97 -1.27,-6.03 -0.51,-2.02 -1.03,-4.03 -1.45,-5.94 -0.25,-0.95 -0.36,-1.9 -0.65,-2.76 -0.26,-0.88 -0.51,-1.7 -0.73,-2.46 -0.45,-1.53 -0.74,-2.83 -0.98,-3.73 -0.23,-0.9 -0.33,-1.42 -0.33,-1.42z"/>
   <path class="fil15" d="M327.57 39.21c0,0 0.23,0.39 0.64,1.06 0.37,0.68 0.99,1.6 1.5,2.85 0.54,1.23 1.16,2.69 1.63,4.3 0.24,0.81 0.54,1.63 0.7,2.49 0.19,0.86 0.39,1.73 0.58,2.61 0.14,0.88 0.27,1.77 0.4,2.64 0.15,0.86 0.18,1.73 0.26,2.56 0.15,1.66 0.16,3.22 0.15,4.56 -0.03,2.67 -0.28,4.45 -0.28,4.45 0,0 -0.41,-1.75 -0.85,-4.36 -0.21,-1.3 -0.47,-2.82 -0.74,-4.44 -0.28,-1.61 -0.58,-3.33 -0.87,-5.05 -0.35,-1.71 -0.64,-3.43 -1.02,-5.01 -0.2,-0.79 -0.31,-1.59 -0.51,-2.3 -0.2,-0.72 -0.36,-1.41 -0.51,-2.05 -0.27,-1.28 -0.64,-2.35 -0.8,-3.11 -0.18,-0.76 -0.28,-1.2 -0.28,-1.2z"/>
   <path class="fil1" d="M204.03 194.86c0,0 -0.15,0.65 -0.42,1.88 -0.25,1.22 -0.74,3 -1.13,5.31 -0.41,2.3 -0.93,5.08 -1.26,8.32 -0.22,1.61 -0.38,3.33 -0.49,5.15 -0.14,1.82 -0.31,3.72 -0.36,5.73 -0.09,1.99 -0.17,4.07 -0.16,6.23 -0.04,2.15 -0.02,4.38 0.05,6.67 0.08,4.59 0.37,9.42 0.61,14.42 0.55,10 1.42,20.67 1.67,31.4 0.12,5.38 -0.09,10.74 -0.15,15.99 -0.09,5.27 -0.18,10.45 -0.26,15.46 -0.17,10.03 -0.47,19.39 -0.66,27.41 -0.1,4.01 -0.18,7.68 -0.36,10.95 -0.21,3.25 -0.33,6.09 -0.54,8.43 -0.44,4.66 -0.69,7.33 -0.69,7.33 0,0 0.11,-2.67 0.31,-7.34 0.11,-2.34 0.11,-5.18 0.19,-8.44 -0.01,-3.26 -0.01,-6.93 -0.02,-10.94 0.03,-8.03 -0.04,-17.39 0.06,-27.42 0.04,-5.01 0.09,-10.19 0.13,-15.46 0.02,-5.27 0.18,-10.61 0.03,-15.93 -0.16,-10.66 -0.94,-21.33 -1.41,-31.36 -0.24,-5.01 -0.37,-9.87 -0.34,-14.48 -0.01,-2.31 0.03,-4.55 0.12,-6.72 0.04,-2.17 0.18,-4.26 0.32,-6.27 0.11,-2.01 0.3,-3.93 0.52,-5.75 0.19,-1.82 0.42,-3.55 0.71,-5.16 0.46,-3.24 1.11,-6.02 1.6,-8.31 0.49,-2.3 1.1,-4.04 1.41,-5.25 0.34,-1.21 0.52,-1.85 0.52,-1.85z"/>
   <path class="fil1" d="M183.46 305.77c0,0 0.76,-0.53 1.97,-1.06 1.21,-0.56 2.9,-1.08 4.66,-1.37 0.44,-0.04 0.89,-0.09 1.33,-0.13 0.43,-0.07 0.87,-0.02 1.29,-0.02 0.84,-0.01 1.64,0.13 2.3,0.28 0.66,0.1 1.2,0.39 1.56,0.52 0.37,0.16 0.56,0.27 0.56,0.27 0,0 -0.23,0.06 -0.62,0.12 -0.39,0.08 -0.92,0.09 -1.56,0.22 -1.24,0.18 -2.91,0.44 -4.57,0.69 -1.67,0.26 -3.37,0.44 -4.68,0.51 -1.31,0.08 -2.24,-0.03 -2.24,-0.03z"/>
   <path class="fil1" d="M181.38 310.8c0,0 0.23,-0.13 0.64,-0.32 0.41,-0.16 0.95,-0.49 1.72,-0.63 0.38,-0.08 0.8,-0.18 1.26,-0.24 0.45,-0.1 0.91,-0.08 1.4,-0.09 0.48,0.01 1,-0.04 1.49,0.06 0.51,0.07 1.02,0.14 1.53,0.21 0.49,0.13 0.99,0.27 1.47,0.4 0.5,0.11 0.95,0.32 1.39,0.49 0.89,0.34 1.68,0.76 2.33,1.15 1.31,0.76 2.08,1.47 2.08,1.47 0,0 -1.04,-0.1 -2.49,-0.42 -1.41,-0.32 -3.29,-0.74 -5.18,-1.16 -0.93,-0.16 -1.85,-0.37 -2.73,-0.47 -0.43,-0.03 -0.87,-0.17 -1.26,-0.18 -0.39,-0.02 -0.77,-0.06 -1.13,-0.11 -0.72,-0.1 -1.38,-0.04 -1.81,-0.09 -0.45,-0.04 -0.71,-0.07 -0.71,-0.07z"/>
   <path class="fil1" d="M190.53 300.97c0,0 0.45,-0.5 1.19,-0.99 0.19,-0.12 0.39,-0.26 0.61,-0.38 0.24,-0.1 0.38,-0.32 0.6,-0.45 0.39,-0.31 0.82,-0.57 1.26,-0.83 0.44,-0.32 0.88,-0.64 1.34,-0.88 0.46,-0.24 0.88,-0.52 1.27,-0.71 0.77,-0.41 1.42,-0.58 1.42,-0.58 0,0 -0.17,0.62 -0.65,1.4 -0.23,0.4 -0.53,0.85 -0.95,1.23 -0.4,0.41 -0.87,0.79 -1.34,1.18 -0.57,0.29 -1.14,0.59 -1.7,0.8 -0.27,0.1 -0.55,0.23 -0.79,0.23 -0.25,0.04 -0.49,0.05 -0.72,0.06 -0.89,0.05 -1.54,-0.08 -1.54,-0.08z"/>
   <path class="fil1" d="M224.39 344.83c0,1.19 -0.08,2.36 -0.13,3.54 -0.03,1.19 -0.15,2.36 -0.22,3.53 0.05,2.34 0.05,4.64 0,6.94l-0.01 0.98 -0.95 -0.02c-1.82,-0.02 -3.64,0.01 -5.48,-0.03 -1.83,-0.02 -3.68,-0.1 -5.52,-0.23 -1.84,-0.16 -3.69,-0.4 -5.51,-0.76 -0.91,-0.21 -1.8,-0.47 -2.69,-0.71 -0.88,-0.3 -1.75,-0.62 -2.6,-0.97 0.92,0.1 1.82,0.24 2.72,0.37 0.92,0.06 1.82,0.11 2.72,0.21l2.72 0.11 2.71 0.04c3.63,0.01 7.28,-0.05 10.97,0.09l-0.96 0.96c0.15,-2.4 0.33,-4.8 0.57,-7.16 0.24,-1.16 0.48,-2.31 0.77,-3.46 0.29,-1.14 0.55,-2.29 0.89,-3.43z"/>
   <path class="fil1" d="M183.59 360.25c0,0 0.01,-0.29 0.04,-0.79 0.03,-0.25 0.06,-0.55 0.09,-0.9 0.03,-0.35 0.09,-0.73 0.28,-1.14 0.16,-0.42 0.34,-0.89 0.56,-1.37 0.21,-0.5 0.54,-0.9 0.85,-1.37 0.33,-0.45 0.63,-0.96 1.06,-1.34 0.41,-0.41 0.82,-0.83 1.23,-1.24 0.93,-0.7 1.82,-1.47 2.77,-1.97 0.92,-0.57 1.82,-1.01 2.62,-1.33 1.57,-0.68 2.71,-0.93 2.71,-0.93 0,0 -0.83,0.83 -2.13,1.9 -0.65,0.52 -1.4,1.13 -2.21,1.78 -0.82,0.62 -1.62,1.35 -2.46,2.03 -0.76,0.74 -1.61,1.42 -2.24,2.18 -0.3,0.38 -0.72,0.7 -0.95,1.06 -0.25,0.36 -0.51,0.69 -0.76,1.01 -0.26,0.29 -0.47,0.63 -0.61,0.95 -0.17,0.31 -0.31,0.57 -0.43,0.79 -0.25,0.44 -0.42,0.68 -0.42,0.68z"/>
   <path class="fil1" d="M350.43 247.11c0,0 0.34,0.85 0.58,2.13 0.26,1.29 0.44,3 0.46,4.7 0.01,0.85 0.04,1.69 -0.02,2.49 -0.04,0.8 -0.08,1.54 -0.12,2.18 -0.09,1.28 -0.32,2.18 -0.32,2.18 0,0 -0.43,-0.79 -0.81,-2.06 -0.44,-1.28 -0.6,-3.01 -0.7,-4.75 0,-1.72 0.15,-3.44 0.39,-4.72 0.22,-1.29 0.54,-2.15 0.54,-2.15z"/>
   <path class="fil1" d="M356 248.87c0,0 0.47,0.58 0.93,1.5 0.11,0.24 0.24,0.49 0.34,0.76 0.1,0.28 0.24,0.55 0.38,0.8 0.3,0.52 0.53,1.09 0.77,1.66 0.57,1.17 1.01,2.41 1.28,3.42 0.27,1 0.3,1.74 0.3,1.74 0,0 -0.62,-0.44 -1.3,-1.21 -0.7,-0.75 -1.46,-1.9 -2.08,-3.14 -0.24,-0.68 -0.48,-1.36 -0.64,-2.02 -0.2,-0.65 -0.13,-1.23 -0.15,-1.75 0,-1.03 0.17,-1.76 0.17,-1.76z"/>
   <path class="fil1" d="M290.97 342.91c0,0 0.21,0.47 0.4,1.39 0.18,0.91 0.43,2.21 0.63,3.77 0.21,1.54 0.45,3.33 0.72,5.26 0.14,0.94 0.32,1.92 0.56,2.84 0.11,0.46 0.27,0.91 0.45,1.27 0.09,0.18 0.18,0.37 0.27,0.43l0.05 0.07 0.02 0.02 0 0.02 0.01 0c-0.33,-0.22 -0.09,-0.06 -0.16,-0.1l0.09 0.04 0.35 0.18c0.58,0.24 1.54,0.24 2.49,0.15 0.95,-0.13 1.92,-0.26 2.84,-0.5 1.85,-0.43 3.57,-0.97 5.04,-1.46 1.47,-0.51 2.7,-0.93 3.53,-1.3 0.84,-0.36 1.3,-0.62 1.3,-0.62 0,0 -0.36,0.4 -1.11,0.95 -0.76,0.53 -1.86,1.28 -3.27,2.01 -1.41,0.74 -3.11,1.5 -5.04,2.09 -0.95,0.3 -1.98,0.58 -3.06,0.72 -1.07,0.1 -2.28,0.26 -3.64,-0.31l-0.35 -0.18 -0.09 -0.05 -0.17 -0.11 -0.01 -0.01 -0.03 -0.03 -0.05 -0.05 -0.19 -0.23c-0.3,-0.3 -0.42,-0.59 -0.56,-0.88 -0.27,-0.58 -0.43,-1.12 -0.55,-1.66 -0.27,-1.07 -0.34,-2.11 -0.44,-3.1 -0.16,-1.99 -0.15,-3.83 -0.12,-5.4 0.05,-1.57 0.09,-2.87 0.12,-3.79 0.01,-0.9 -0.03,-1.43 -0.03,-1.43z"/>
   <path class="fil1" d="M306.13 210.3c0,0 0.1,0.62 0.24,1.7 0.11,1.08 0.34,2.62 0.5,4.47 0.08,0.92 0.17,1.92 0.25,2.99 0.07,1.06 0.24,2.16 0.32,3.32 0.22,2.3 0.39,4.76 0.56,7.22 0.09,2.48 0.19,4.96 0.2,7.29 0.01,1.16 0.07,2.28 -0.03,3.35 -0.09,1.07 -0.17,2.08 -0.24,3.01 -0.16,1.86 -0.38,3.4 -0.49,4.48 -0.13,1.08 -0.23,1.69 -0.23,1.69 0,0 -0.07,-0.63 -0.15,-1.71 -0.06,-1.09 -0.2,-2.63 -0.26,-4.48 -0.03,-0.92 -0.07,-1.92 -0.1,-2.97 0,-1.06 -0.18,-2.17 -0.23,-3.32 -0.18,-2.31 -0.31,-4.77 -0.43,-7.23 -0.13,-2.47 -0.27,-4.95 -0.33,-7.27 -0.1,-2.33 -0.04,-4.49 0.03,-6.35 0.06,-1.85 0.19,-3.4 0.25,-4.48 0.07,-1.09 0.14,-1.71 0.14,-1.71z"/>
   <path class="fil1" d="M371.26 213.7c0,0 0.34,0.17 0.94,0.47 0.6,0.27 1.39,0.84 2.41,1.26 0.51,0.22 1.05,0.46 1.6,0.73 0.53,0.29 1.2,0.45 1.82,0.72 1.26,0.53 2.67,0.92 4.05,1.38 1.42,0.39 2.82,0.82 4.17,1.16 1.34,0.38 2.61,0.71 3.68,1.04 2.17,0.63 3.59,1.21 3.59,1.21 0,0 -1.53,0.08 -3.79,-0.1 -1.13,-0.08 -2.44,-0.21 -3.85,-0.45 -0.69,-0.13 -1.43,-0.21 -2.15,-0.42 -0.73,-0.18 -1.47,-0.36 -2.21,-0.55 -0.72,-0.26 -1.45,-0.52 -2.16,-0.77 -0.72,-0.22 -1.37,-0.61 -2.03,-0.92 -0.64,-0.33 -1.27,-0.6 -1.82,-1.02 -0.56,-0.37 -1.08,-0.74 -1.54,-1.08 -0.96,-0.66 -1.52,-1.42 -2.01,-1.88 -0.45,-0.49 -0.7,-0.78 -0.7,-0.78z"/>
   <path class="fil21" d="M96.92 672.85c0.8,0.99 1.05,2.22 1.74,3.1 3.23,-0.86 6.31,-3.16 9.3,-4.68 1.82,-0.9 3.37,-1.81 4.87,-2.85 -0.08,-1.5 -0.3,-3.07 -0.32,-4.3 -0.06,-2.58 -0.23,-5.15 -0.51,-7.71 -0.28,-2.46 -0.55,-4.92 -0.83,-7.37 -0.14,-1.34 -0.1,-4.25 -1.01,-5.13l-13.01 3.76c0.88,4.46 1.76,8.91 2.42,13.38 0.26,1.78 -0.05,2.68 -1.48,4.06 -1.32,1.14 -2.97,2.19 -4.41,3.11 -0.91,0.62 -1.83,1.27 -2.74,1.92 0.65,0.09 1.29,0.23 1.9,0.45 1.47,0.64 3.05,1.05 4.08,2.26z"/>
   <path class="fil6" d="M107.96 671.27c-2.99,1.52 -6.07,3.82 -9.3,4.68 -0.69,-0.88 -0.94,-2.11 -1.74,-3.1 -1.03,-1.21 -2.61,-1.62 -4.08,-2.26 -0.61,-0.22 -1.25,-0.36 -1.9,-0.45 -2.52,1.78 -5.06,3.64 -7.73,5.25 -1.77,1.16 -7.97,4.21 -6.89,7.32 0.96,3.11 6.85,1.3 8.75,0.93 4.12,-0.99 7.9,-1.97 11.78,-3.62 3.22,-1.42 6.08,-3.27 9.3,-4.8 1.88,-0.82 6,-2.03 6.52,-3.83 0.21,-0.85 0.22,-1.89 0.16,-2.97 -1.5,1.04 -3.05,1.95 -4.87,2.85z"/>
   <path class="fil22" d="M90.09 672.78c-1.87,1.61 -4.86,2.91 -6.95,4.52 -1.21,0.92 -3.31,2.31 -1.39,3.05 0.9,0.31 2.46,-0.28 3.23,-0.52 2.56,-0.62 4.78,-1.78 6.99,-2.95 1.33,-0.7 3.12,-0.63 2.64,-2.07 -0.36,-1.12 -2.5,-1.74 -3.41,-2.39l0 -0.11 -1.11 0.47z"/>
   <path class="fil21" d="M131.61 672.09c-0.76,1.03 -0.96,2.26 -1.61,3.17 -3.26,-0.71 -6.44,-2.88 -9.5,-4.27 -1.85,-0.81 -3.44,-1.65 -4.99,-2.63 0.02,-1.5 0.17,-3.08 0.14,-4.31 -0.06,-2.57 0,-5.15 0.17,-7.73 0.17,-2.46 0.33,-4.93 0.5,-7.39 0.09,-1.35 -0.09,-4.26 0.79,-5.17l13.16 3.18c-0.68,4.49 -1.37,8.98 -1.83,13.47 -0.19,1.79 0.17,2.68 1.65,3.99 1.37,1.09 3.07,2.06 4.55,2.92 0.94,0.58 1.88,1.19 2.82,1.8 -0.64,0.11 -1.28,0.28 -1.88,0.53 -1.44,0.71 -2.99,1.19 -3.97,2.44z"/>
   <path class="fil6" d="M120.5 670.99c3.06,1.39 6.24,3.56 9.5,4.27 0.65,-0.91 0.85,-2.14 1.61,-3.17 0.98,-1.25 2.53,-1.73 3.97,-2.44 0.6,-0.25 1.24,-0.42 1.88,-0.53 2.59,1.67 5.22,3.41 7.96,4.91 1.81,1.07 8.14,3.84 7.2,7 -0.82,3.15 -6.79,1.6 -8.7,1.31 -4.16,-0.8 -7.98,-1.62 -11.93,-3.1 -3.27,-1.26 -6.22,-2.99 -9.5,-4.37 -1.92,-0.75 -6.08,-1.77 -6.68,-3.55 -0.25,-0.84 -0.31,-1.88 -0.3,-2.96 1.55,0.98 3.14,1.82 4.99,2.63z"/>
   <path class="fil22" d="M138.54 671.72c1.94,1.52 4.93,2.68 7.09,4.2 1.25,0.87 3.37,2.17 1.49,2.99 -0.89,0.36 -2.48,-0.17 -3.27,-0.37 -2.58,-0.51 -4.85,-1.58 -7.11,-2.65 -1.36,-0.64 -3.04,-0.49 -2.62,-1.95 0.31,-1.12 1.51,-1.84 3.41,-2.54l0 -0.11 1.01 0.43z"/>
   <path class="fil23" d="M147.1 53.78c-9.87,-10.97 2.55,-25.22 14.94,-26.73 16.11,-1.91 29.52,14.26 22.39,29.33 -5.33,11.92 -16.19,12.15 -27.12,9.91l-10.21 -12.51z"/>
   <path class="fil24" d="M180.12 62.32c3.81,5.54 7.74,10.99 11.88,16.29 0.76,0.96 2.09,-0.39 1.34,-1.34 -4.03,-5.18 -7.86,-10.5 -11.58,-15.91 -0.69,-1 -2.33,-0.05 -1.64,0.96z"/>
   <path class="fil24" d="M145.28 8.93c4.45,8.23 9.9,15.84 15.12,23.58 0.68,1.01 2.33,0.06 1.64,-0.96 -5.22,-7.74 -10.67,-15.34 -15.12,-23.58 -0.58,-1.08 -2.22,-0.12 -1.64,0.96z"/>
   <path class="fil25" d="M162.73 29.83c0,0 0.05,0.13 0.11,0.36 0.05,0.24 0.16,0.54 0.11,0.96 -0.01,0.43 -0.11,0.92 -0.27,1.37 -0.13,0.49 -0.41,0.91 -0.65,1.37 -0.3,0.41 -0.59,0.84 -0.95,1.16 -0.33,0.35 -0.69,0.62 -1.02,0.83 -0.66,0.43 -1.23,0.56 -1.23,0.56 0,0 0.11,-0.58 0.39,-1.26 0.29,-0.7 0.71,-1.54 1.21,-2.31 0.24,-0.38 0.52,-0.75 0.76,-1.1 0.26,-0.36 0.5,-0.65 0.71,-0.92 0.24,-0.25 0.42,-0.55 0.57,-0.73 0.15,-0.19 0.26,-0.29 0.26,-0.29z"/>
   <path class="fil4" d="M94.95 63.15c-1.45,0.84 -2.81,1.77 -4.04,2.77 -5.27,4.31 -7.33,12.76 -8.67,19.11 -1.97,9.36 -1.99,22.41 -0.54,31.7 -16.56,-4.3 -14.95,26.73 3.66,25.39 1.43,8.35 3.77,15.76 9.8,21.83 3.18,3.04 6.67,6.38 10.74,7.85 2.5,0.87 11.73,4.36 11.73,4.36 1.04,2.73 0.89,18.66 0.89,18.66 1.91,2.13 7.18,1.7 9.66,1.34 4.64,-0.73 5.32,2.05 5.86,-2 0.83,-4.67 0.31,-13.98 0.21,-18.64 10.29,-2.35 17.66,-2.25 24.94,-9.87 5.78,-5.72 9.58,-16.67 10.01,-25.38 7.42,-1.41 13.83,-6.52 15.52,-14.32 1.12,-5.61 -3.78,-15.42 -11.46,-11.53 -0.36,-6.59 0.47,-8.11 -0.92,-14.6 -1.68,-5.87 -2.43,-11.75 -4.73,-17.6 -3.29,-8.01 -7.47,-14.44 -14.72,-19.56 -7.34,-5.18 -15.36,-4.89 -23.85,-5.81 -5.57,-0.6 -11.29,-0.72 -16.83,0.23 -5.55,0.95 -12.01,3 -17.26,6.07z"/>
   <path class="fil26" d="M74.67 79.6c-1.32,6.96 -2.11,16.82 -1.02,23.94 0.74,5.89 9.21,23.41 11.09,10.01 0.76,-7.47 -0.99,-16.75 1.64,-23.95 3.23,-8.46 25,-7.7 32.74,-8.8 11.77,-1.5 27.51,-6.2 35.07,-15.68 0.72,4.95 0.2,9.31 2.48,14.23 2.29,5.23 6.42,9.49 9.02,14.4 4.21,7.68 3.49,17.63 8,24.68 15.6,-10.91 10.12,-33.77 2.98,-47.91 -1.96,-4.3 -3.92,-8.61 -8.3,-10.37 -1.26,-0.6 -3.74,-0.23 -4.68,-0.83 -1.89,-1.21 -1.3,-2.77 -2.59,-4.61 -3.22,-5.21 -11.69,-9.06 -18.24,-10.47 -7.19,-1.7 -16.5,-1.19 -23.92,0.22 -7.11,1.4 -39.26,8.81 -44.27,35.14z"/>
   <path class="fil27" d="M163.43 61.5c-0.9,1.57 -5.22,3.22 -5.47,5.71 -0.26,2.18 4.54,8.6 5.52,10.75 0.99,2.77 2.35,8.33 6.38,7.62 0.86,-3.43 -1.07,-6.18 -2.39,-9.57 1.91,2.13 2.9,4.9 6.02,5.46 -0.06,-3.11 -1.67,-5.56 -2.97,-8.33 1.3,2.77 2.93,6.15 6.04,6.4 1.43,-5.63 -8.39,-14.11 -11.89,-18.07l-1.24 0.03z"/>
   <path class="fil28" d="M131.15 48.85c-9.59,1.76 -19.83,2.3 -29.36,6.86 -7.37,3.89 -13.44,10.54 -0.72,9.64 -2.12,2.23 -5.8,4.48 -6.35,7.91 2.82,0.87 5.26,-1.05 7.4,-2.65 -8.84,7.65 3.23,5.83 7.88,5.42 7.13,-1.09 15.2,-1.27 21.33,-4.82 8.59,-4.85 0.03,-13.05 0.17,-20.82l-0.35 -1.54z"/>
   <path class="fil5" d="M125.13 114.22c0,0 0.01,0.47 -0.02,1.28 -0.07,0.41 0.1,0.88 0.16,1.41 0.03,0.52 0.32,1.11 0.48,1.73 0.23,0.62 0.56,1.26 0.91,1.92 0.4,0.63 0.82,1.29 1.37,1.89 0.24,0.33 0.52,0.62 0.84,0.88 0.32,0.25 0.59,0.59 0.95,0.79l0.96 0.64c0.21,0.09 0.44,0.2 0.63,0.27 0.17,0.04 0.31,0.1 0.5,0.13 0.37,0.1 0.75,0.13 1.17,0.14 0.43,0.05 0.85,-0.12 1.74,0.21 0.44,0.18 0.77,0.64 0.89,0.95 0.14,0.35 0.18,0.63 0.21,0.89 0.06,0.53 0.04,1 0.03,1.45 -0.02,0.43 -0.04,0.93 -0.11,1.33 -0.02,0.39 -0.17,0.87 -0.32,1.33 -0.29,0.88 -0.75,1.55 -1.25,2.13 -0.51,0.56 -1.05,0.99 -1.6,1.26 -0.5,0.33 -1.03,0.41 -1.42,0.56 -0.41,0.11 -0.75,0.08 -0.96,0.11 -0.22,0.01 -0.34,0.02 -0.34,0.02 0,0 0.46,-0.16 1.17,-0.48 0.33,-0.22 0.78,-0.4 1.15,-0.8 0.41,-0.33 0.78,-0.81 1.13,-1.33 0.33,-0.54 0.62,-1.19 0.75,-1.84 0.07,-0.31 0.15,-0.61 0.13,-1.07 0.01,-0.43 0.01,-0.78 0,-1.22 -0.02,-0.41 -0.04,-0.83 -0.11,-1.19 -0.06,-0.38 -0.22,-0.54 -0.12,-0.43 0.04,-0.03 -0.5,-0.03 -0.98,-0.01 -0.5,-0.01 -1.05,-0.03 -1.58,-0.16 -0.26,-0.05 -0.55,-0.17 -0.82,-0.25 -0.25,-0.1 -0.43,-0.2 -0.65,-0.29 -0.56,-0.34 -0.87,-0.59 -1.31,-0.89 -0.43,-0.26 -0.73,-0.67 -1.08,-1 -0.35,-0.33 -0.65,-0.7 -0.91,-1.09 -0.59,-0.72 -0.97,-1.54 -1.33,-2.3 -0.32,-0.78 -0.55,-1.55 -0.69,-2.26 -0.08,-0.74 -0.23,-1.37 -0.14,-1.99 0.07,-0.6 0.03,-1.12 0.18,-1.5 0.24,-0.78 0.39,-1.22 0.39,-1.22z"/>
   <path class="fil13" d="M127.24 153.62c7.04,0.09 12.73,0.37 15.39,-4.39 -9.57,1.72 -18.86,1.28 -28.51,-0.12 2.87,3.58 6.89,4.42 13.12,4.51z"/>
   <path class="fil17" d="M146.08 148.55c-1.16,0.26 -2.31,0.48 -3.45,0.68 -2.66,4.76 -8.35,4.48 -15.39,4.39 -6.23,-0.09 -10.25,-0.93 -13.12,-4.51 -0.94,-0.14 -1.88,-0.27 -2.83,-0.42l-0.9 1.26c2.33,7.1 8.61,10.37 15.76,10.53 6.21,-0.14 21.68,-2.97 19.93,-11.93z"/>
   <path class="fil29" d="M30.18 302.37c4.81,7.05 13,11.84 18.12,18.56 3.2,4.58 9.82,22.77 17.8,18.55 1.54,-0.65 5.07,-9.43 5.04,-10.98 -0.09,-4.04 -5.46,-7.96 -8.31,-10.38 -4.12,-3.95 -8.55,-7.58 -12.67,-11.52 -2.54,-2.43 -5.16,-8.28 -7.99,-9.77l0.01 0.31 -12 5.23z"/>
   <path class="fil29" d="M180.9 305.27c-3.58,6.29 -12.22,9.28 -17.39,14.36 1.35,4.63 1.75,8.97 2.48,13.62 0.72,4.64 0.53,10.24 6.08,7.94 4.61,-1.96 5.7,-8.82 9.04,-12.31 3.33,-3.81 6.68,-6.99 9.38,-11.39l-9.59 -12.22z"/>
   <path class="fil24" d="M76.32 307.21c-1.52,12.63 -12.08,23.67 -17.24,34.58 -10.34,20.94 -7.1,49.34 -1.13,75.65 5.1,22.5 9.63,35.89 16.43,58.25 7.77,25.93 4.72,39.41 0.77,64.7 -5.58,32.53 11.65,65.47 20.42,95.89 -4.01,3.02 -7.43,3.75 -1.03,8.11 0.02,0.01 -1.81,2.05 -1.92,2.28 -0.38,0.8 -0.38,2.15 0.18,2.89 0.69,0.93 1.77,0.62 2.73,1.1 -0.2,-0.1 -2.16,2.04 -2.2,2.35 -0.82,6.43 28.13,4.99 32.1,4.87 4.56,-0.13 19.15,0.84 14.4,-7.6 -0.32,-0.58 -0.56,-0.16 -0.54,-0.85 0.01,-0.28 0.71,-1.15 0.84,-1.52 0.59,-1.66 0.1,-3.05 -0.32,-4.66 -0.58,-2.24 1.77,-4 1.11,-6.42 -0.63,-2.37 -2.51,-4.18 -2.05,-6.82 0.99,-5.76 9.28,-39.66 10.27,-46.38 1.06,-7.2 1.6,-14.66 2.24,-21.94 1.38,-15.66 1.61,-31.41 1.27,-47.12 -0.64,-28.79 13.48,-60.81 19.37,-90.05 4.25,-21.14 4.79,-32.29 3.47,-51.17 -1.27,-17.08 -7.99,-42.37 -17.26,-54.77l-81.91 -11.37z"/>
   <path class="fil30" d="M111.79 391.64c0,0 0.2,1.02 0.57,2.92 0.09,0.48 0.2,1.01 0.31,1.6 0.08,0.59 0.15,1.24 0.24,1.93 0.17,1.4 0.39,3.01 0.46,4.83 0.29,3.62 0.25,8.03 0.16,13.08 -0.1,5.04 -0.44,10.73 -0.41,16.92 -0.04,12.41 -0.08,26.9 -0.12,42.42 -0.05,7.75 -0.11,15.77 -0.16,23.92 -0.01,2.04 -0.03,4.08 -0.04,6.13 0.05,2.05 0.09,4.11 0.13,6.17 0.09,4.11 0.17,8.25 0.26,12.38 0.12,8.27 0.25,16.54 0.38,24.68 0.07,4.08 0.14,8.11 0.21,12.1 0.13,3.99 0.26,7.94 0.39,11.81 0.23,7.76 0.46,15.26 0.67,22.37 0.22,7.1 0.38,13.83 0.46,20.04 0.17,12.41 0.31,22.76 0.41,30 0.07,7.24 0.11,11.38 0.11,11.38 0,0 -0.18,-4.13 -0.48,-11.37 -0.26,-7.24 -0.65,-17.57 -1.11,-29.98 -0.18,-6.2 -0.44,-12.92 -0.77,-20.03 -0.3,-7.11 -0.61,-14.6 -0.93,-22.35 -0.15,-3.88 -0.3,-7.82 -0.46,-11.81 -0.09,-4 -0.18,-8.04 -0.27,-12.11 -0.17,-8.16 -0.34,-16.44 -0.51,-24.72 -0.06,-4.14 -0.13,-8.28 -0.19,-12.4 -0.03,-2.06 -0.07,-4.12 -0.1,-6.17 0.03,-2.05 0.05,-4.1 0.07,-6.14 0.1,-8.14 0.19,-16.16 0.29,-23.92 0.25,-15.52 0.49,-30 0.69,-42.41 0.05,-6.23 0.54,-11.91 0.78,-16.94 0.21,-5.03 0.36,-9.42 0.17,-13.04 -0.02,-1.8 -0.19,-3.41 -0.31,-4.81 -0.06,-0.69 -0.12,-1.34 -0.17,-1.94 -0.1,-0.58 -0.18,-1.12 -0.26,-1.6 -0.31,-1.91 -0.47,-2.94 -0.47,-2.94z"/>
   <path class="fil30" d="M88.2 383.16c0,0 0.77,0.15 2.11,0.44 1.34,0.3 3.27,0.75 5.52,1.43 2.25,0.69 4.88,1.49 7.66,2.39 2.79,0.85 5.76,1.75 8.76,2.28l2.26 0.33c0.75,0.08 1.5,0.1 2.25,0.15 0.74,0.08 1.48,-0.03 2.21,-0.02l1.08 -0.04 1.07 -0.15c1.41,-0.15 2.75,-0.47 4.03,-0.79 1.28,-0.3 2.42,-0.83 3.52,-1.19 1.06,-0.48 2.03,-0.91 2.89,-1.3 0.88,-0.37 1.56,-0.84 2.17,-1.15 1.21,-0.65 1.91,-1.02 1.91,-1.02 0,0 -0.61,0.49 -1.71,1.33 -0.56,0.39 -1.19,0.97 -2.02,1.45 -0.82,0.5 -1.74,1.11 -2.79,1.66 -1.1,0.47 -2.24,1.11 -3.55,1.54 -0.66,0.21 -1.33,0.44 -2.03,0.66 -0.69,0.23 -1.43,0.3 -2.17,0.46l-1.13 0.21 -1.16 0.09c-0.78,0.04 -1.57,0.17 -2.37,0.09 -0.79,-0.04 -1.59,-0.05 -2.4,-0.12l-2.38 -0.32c-1.57,-0.33 -3.14,-0.67 -4.63,-1.13 -1.52,-0.4 -2.94,-0.97 -4.34,-1.44 -2.78,-1.02 -5.29,-2.12 -7.48,-2.96 -2.18,-0.85 -3.97,-1.64 -5.27,-2.09 -1.29,-0.48 -2.01,-0.79 -2.01,-0.79z"/>
   <path class="fil30" d="M115.05 327.96c0,0 0.19,0.97 0.51,2.67 0.15,0.85 0.33,1.88 0.54,3.06 0.23,1.19 0.29,2.55 0.43,4.03 0.11,1.49 0.24,3.09 0.38,4.8 0.06,1.69 0.15,3.48 0.18,5.34 0.04,1.85 0.12,3.77 0.07,5.71 -0.02,1.94 -0.04,3.92 -0.06,5.89 -0.1,3.95 -0.24,7.89 -0.43,11.58 -0.18,3.7 -0.47,7.14 -0.62,10.09 -0.41,5.9 -0.68,9.84 -0.68,9.84 0,0 -0.06,-0.99 -0.17,-2.71 -0.09,-1.73 -0.23,-4.2 -0.22,-7.16 -0.01,-2.96 -0.05,-6.41 0.02,-10.11 0.06,-3.69 0.14,-7.63 0.21,-11.57 0.06,-3.93 0.2,-7.87 0.21,-11.55 0.01,-1.85 0.07,-3.63 0.11,-5.32 -0.02,-1.68 -0.05,-3.27 -0.06,-4.74 -0.06,-1.47 0.03,-2.82 -0.07,-4.03 -0.08,-1.2 -0.15,-2.24 -0.2,-3.1 -0.1,-1.73 -0.15,-2.72 -0.15,-2.72z"/>
   <path class="fil30" d="M106.79 328.14c0,0 0.15,0.77 0.28,2.14 0.1,1.37 0.25,3.33 0.27,5.67 0.03,2.34 0.06,5.07 0.1,8 0.03,2.91 0.03,6.02 0.15,9.12 0.09,3.09 0.28,6.18 0.62,9.04 0.2,1.42 0.37,2.81 0.65,4.08 0.26,1.29 0.61,2.48 1.03,3.53 0.43,1.04 0.9,1.97 1.44,2.7 0.26,0.39 0.59,0.65 0.85,0.96 0.3,0.24 0.6,0.45 0.86,0.65 0.6,0.29 1.07,0.54 1.43,0.6 0.36,0.09 0.55,0.14 0.55,0.14 0,0 -0.2,-0.01 -0.57,-0.04 -0.37,0 -0.9,-0.13 -1.57,-0.37 -0.31,-0.17 -0.66,-0.35 -1.03,-0.57 -0.32,-0.28 -0.73,-0.54 -1.05,-0.91 -0.7,-0.7 -1.35,-1.64 -1.88,-2.72 -1.09,-2.17 -1.87,-4.88 -2.37,-7.81 -0.51,-2.93 -0.73,-6.08 -0.85,-9.22 -0.09,-3.14 -0.06,-6.28 0.07,-9.21 0.11,-2.93 0.36,-5.66 0.51,-7.99 0.15,-2.34 0.37,-4.28 0.42,-5.64 0.08,-1.36 0.09,-2.15 0.09,-2.15z"/>
   <path class="fil30" d="M56.27 350.26c0,0 0.47,0.03 1.29,0.13 0.41,0.08 0.91,0.11 1.46,0.07 0.55,-0.01 1.16,-0.01 1.83,-0.14 0.67,-0.06 1.37,-0.24 2.11,-0.45 0.74,-0.17 1.47,-0.55 2.23,-0.85 0.74,-0.39 1.5,-0.79 2.22,-1.29 0.76,-0.44 1.44,-1.04 2.14,-1.59 1.38,-1.15 2.63,-2.46 3.76,-3.74 0.54,-0.67 1.09,-1.29 1.56,-1.92 0.46,-0.64 0.93,-1.22 1.31,-1.8 0.8,-1.13 1.45,-2.11 1.87,-2.82 0.41,-0.7 0.68,-1.1 0.68,-1.1 0,0 -0.11,0.46 -0.35,1.26 -0.27,0.78 -0.61,1.93 -1.25,3.21 -0.6,1.3 -1.46,2.74 -2.51,4.21 -0.56,0.7 -1.09,1.47 -1.77,2.15 -0.63,0.71 -1.36,1.35 -2.08,2.01 -0.78,0.58 -1.53,1.21 -2.38,1.68 -0.8,0.54 -1.7,0.9 -2.54,1.27 -0.88,0.3 -1.73,0.59 -2.57,0.7 -0.42,0.05 -0.83,0.11 -1.23,0.16 -0.39,0.03 -0.78,0 -1.15,-0.01 -0.73,0.04 -1.4,-0.11 -1.99,-0.24 -0.59,-0.1 -1.06,-0.24 -1.44,-0.41 -0.77,-0.3 -1.2,-0.49 -1.2,-0.49z"/>
   <path class="fil30" d="M149.03 338.62c0,0 0.22,0.48 0.57,1.35 0.34,0.87 0.89,2.05 1.62,3.44 0.34,0.71 0.77,1.43 1.21,2.21 0.42,0.78 0.99,1.54 1.49,2.37 1.11,1.59 2.36,3.22 3.77,4.71 0.73,0.72 1.42,1.48 2.2,2.11 0.75,0.68 1.54,1.27 2.31,1.85 0.8,0.51 1.56,1.07 2.33,1.48 0.78,0.42 1.51,0.83 2.23,1.12 0.7,0.33 1.37,0.59 1.97,0.79 0.6,0.23 1.13,0.4 1.58,0.49 0.9,0.23 1.42,0.38 1.42,0.38 0,0 -0.53,0.01 -1.47,-0.01 -0.48,0 -1.04,-0.07 -1.69,-0.17 -0.66,-0.08 -1.4,-0.2 -2.18,-0.45 -0.8,-0.19 -1.62,-0.51 -2.49,-0.88 -0.87,-0.35 -1.74,-0.84 -2.62,-1.36 -0.85,-0.57 -1.76,-1.12 -2.57,-1.84 -0.86,-0.66 -1.61,-1.45 -2.4,-2.21 -0.71,-0.82 -1.45,-1.63 -2.07,-2.51 -0.68,-0.83 -1.18,-1.76 -1.73,-2.61 -0.49,-0.9 -0.98,-1.75 -1.33,-2.61 -0.39,-0.85 -0.72,-1.66 -0.96,-2.43 -0.29,-0.76 -0.47,-1.48 -0.62,-2.13 -0.16,-0.63 -0.29,-1.18 -0.36,-1.64 -0.15,-0.92 -0.21,-1.45 -0.21,-1.45z"/>
   <path class="fil30" d="M78.97 373.16c0,0 0.45,8.32 1.12,20.8 0.09,1.56 0.13,3.19 0.26,4.87 0.16,1.67 0.32,3.4 0.48,5.18 0.36,3.55 0.65,7.3 1.06,11.18 0.46,3.87 0.93,7.87 1.41,11.94 0.49,4.06 1.15,8.17 1.71,12.29 1.09,8.25 2.38,16.48 3.52,24.2 1.2,7.72 2.14,14.95 2.99,21.14 0.89,6.19 1.34,11.39 1.78,15.01 0.37,3.62 0.59,5.7 0.59,5.7 0,0 -1.37,-8.22 -3.43,-20.55 -1.04,-6.16 -2.25,-13.34 -3.55,-21.04 -1.23,-7.72 -2.61,-15.94 -3.77,-24.19 -0.53,-4.14 -1.14,-8.27 -1.59,-12.35 -0.44,-4.08 -0.87,-8.1 -1.29,-11.99 -0.41,-3.89 -0.55,-7.68 -0.8,-11.26 -0.11,-1.79 -0.22,-3.53 -0.32,-5.22 -0.09,-1.68 -0.08,-3.31 -0.12,-4.87 -0.22,-12.5 -0.05,-20.84 -0.05,-20.84z"/>
   <path class="fil30" d="M93.79 528.27c0,0 0.27,1.4 0.73,3.86 0.43,2.45 1.12,5.95 1.81,10.16 0.69,4.22 1.57,9.13 2.36,14.41 0.8,5.28 1.65,10.91 2.5,16.54 0.6,5.67 1.2,11.33 1.76,16.65 0.57,5.31 0.95,10.29 1.36,14.54 0.4,4.26 0.61,7.82 0.81,10.3 0.17,2.49 0.26,3.91 0.26,3.91 0,0 -0.23,-1.41 -0.62,-3.87 -0.36,-2.47 -0.95,-5.98 -1.51,-10.21 -0.56,-4.24 -1.3,-9.16 -1.93,-14.46 -0.64,-5.3 -1.33,-10.94 -2.01,-16.59 -0.76,-5.65 -1.53,-11.29 -2.25,-16.58 -0.72,-5.29 -1.25,-10.25 -1.78,-14.49 -0.52,-4.24 -0.84,-7.79 -1.12,-10.26 -0.24,-2.49 -0.37,-3.91 -0.37,-3.91z"/>
   <path class="fil30" d="M93.3 642.31c0,0 0.25,0.06 0.68,0.19 0.43,0.1 1.02,0.4 1.73,0.55 0.35,0.09 0.72,0.19 1.1,0.31 0.37,0.13 0.82,0.16 1.24,0.29 0.86,0.23 1.79,0.32 2.7,0.49 0.93,0.05 1.85,0.19 2.72,0.13 0.43,-0.03 0.87,0.06 1.27,-0.02 0.39,-0.05 0.78,-0.08 1.14,-0.1 0.73,-0.03 1.3,-0.24 1.75,-0.27 0.44,-0.07 0.7,-0.1 0.7,-0.1 0,0 -0.18,0.17 -0.54,0.44 -0.37,0.23 -0.88,0.72 -1.61,0.97 -0.36,0.15 -0.76,0.31 -1.19,0.46 -0.42,0.17 -0.9,0.21 -1.38,0.29 -0.49,0.06 -1,0.19 -1.51,0.13 -0.52,-0.01 -1.05,-0.03 -1.57,-0.05 -0.52,-0.11 -1.03,-0.21 -1.53,-0.32 -0.52,-0.07 -0.98,-0.29 -1.44,-0.46 -0.45,-0.18 -0.89,-0.33 -1.28,-0.57 -0.4,-0.22 -0.76,-0.45 -1.09,-0.67 -0.68,-0.39 -1.06,-0.88 -1.4,-1.18 -0.32,-0.31 -0.49,-0.51 -0.49,-0.51z"/>
   <path class="fil30" d="M95.84 648.86c0,0 0.25,0.06 0.66,0.19 0.42,0.11 0.99,0.37 1.67,0.58 0.34,0.11 0.7,0.22 1.07,0.37 0.36,0.15 0.79,0.23 1.19,0.39 0.82,0.29 1.7,0.54 2.58,0.81 0.44,0.13 0.89,0.23 1.32,0.35 0.44,0.11 0.87,0.24 1.29,0.31 0.42,0.1 0.83,0.19 1.22,0.28 0.39,0.05 0.76,0.12 1.11,0.19 0.7,0.17 1.28,0.19 1.71,0.28 0.42,0.07 0.67,0.13 0.67,0.13 0,0 -0.22,0.1 -0.63,0.24 -0.41,0.12 -1.02,0.39 -1.76,0.44 -0.74,0.12 -1.62,0.19 -2.56,0.09 -0.47,-0.02 -0.96,-0.05 -1.43,-0.17 -0.48,-0.11 -0.98,-0.19 -1.46,-0.32 -0.47,-0.17 -0.94,-0.33 -1.4,-0.49 -0.48,-0.14 -0.89,-0.41 -1.31,-0.61 -0.84,-0.39 -1.57,-0.91 -2.16,-1.36 -0.61,-0.42 -1,-0.89 -1.32,-1.19 -0.3,-0.32 -0.46,-0.51 -0.46,-0.51z"/>
   <path class="fil30" d="M119.19 645.94c0,0 0.23,0.1 0.63,0.29 0.4,0.15 0.94,0.55 1.61,0.78 0.33,0.13 0.68,0.27 1.02,0.45 0.35,0.17 0.79,0.26 1.18,0.43 0.8,0.34 1.7,0.53 2.58,0.8 0.89,0.15 1.78,0.41 2.64,0.45 0.43,0.02 0.85,0.14 1.24,0.14 0.39,-0.01 0.77,0.01 1.13,0.02 0.72,0.08 1.29,-0.08 1.74,-0.06 0.44,-0.02 0.7,-0.01 0.7,-0.01 0,0 -0.2,0.14 -0.58,0.37 -0.39,0.18 -0.94,0.62 -1.69,0.78 -0.37,0.1 -0.77,0.22 -1.21,0.31 -0.44,0.11 -0.91,0.1 -1.39,0.12 -0.49,0.01 -1,0.07 -1.5,-0.04 -0.51,-0.08 -1.02,-0.16 -1.53,-0.24 -0.49,-0.16 -0.98,-0.33 -1.47,-0.49 -0.49,-0.13 -0.92,-0.42 -1.35,-0.63 -0.42,-0.24 -0.83,-0.44 -1.19,-0.73 -0.36,-0.27 -0.68,-0.55 -0.97,-0.8 -0.62,-0.48 -0.91,-1.03 -1.2,-1.36 -0.26,-0.36 -0.39,-0.58 -0.39,-0.58z"/>
   <path class="fil30" d="M124.56 644.63c0,0 0.19,-0.07 0.53,-0.16 0.32,-0.09 0.83,-0.15 1.37,-0.29 0.27,-0.07 0.55,-0.14 0.85,-0.19 0.29,-0.04 0.61,-0.19 0.93,-0.24 0.66,-0.14 1.33,-0.37 2.01,-0.56 0.67,-0.22 1.35,-0.42 1.99,-0.66 0.64,-0.2 1.24,-0.45 1.78,-0.61 1.06,-0.37 1.87,-0.54 1.87,-0.54 0,0 -0.11,0.17 -0.33,0.44 -0.23,0.26 -0.53,0.66 -0.98,1.04 -0.45,0.39 -0.99,0.84 -1.64,1.19 -0.33,0.16 -0.64,0.41 -1.02,0.53 -0.37,0.14 -0.74,0.28 -1.12,0.43 -0.39,0.09 -0.78,0.17 -1.16,0.26 -0.39,0.11 -0.78,0.1 -1.16,0.13 -0.74,0.07 -1.47,-0.03 -2.06,-0.14 -0.6,-0.08 -1.03,-0.3 -1.36,-0.41 -0.32,-0.13 -0.5,-0.22 -0.5,-0.22z"/>
   <path class="fil30" d="M131.94 516.63c0,0 0.22,1.45 0.6,3.97 0.17,1.27 0.39,2.8 0.63,4.56 0.12,0.88 0.25,1.82 0.39,2.8 0.09,1 0.14,2.05 0.21,3.14 0.13,2.19 0.28,4.57 0.43,7.08 0.18,2.52 0.11,5.16 0.12,7.9 -0.02,2.74 0.01,5.58 -0.15,8.45 -0.11,2.87 -0.22,5.79 -0.34,8.71 -0.44,5.81 -0.86,11.64 -1.33,17.08 -0.5,5.44 -0.97,10.52 -1.37,14.87 -0.4,4.35 -0.72,7.98 -0.95,10.52 -0.25,2.54 -0.39,3.99 -0.39,3.99 0,0 0.01,-1.45 0.02,-4.01 0.08,-2.55 -0.01,-6.2 0.25,-10.57 0.23,-4.37 0.4,-9.48 0.8,-14.92 0.34,-5.45 0.71,-11.26 1.08,-17.08 0.16,-2.9 0.31,-5.8 0.47,-8.66 0.2,-2.86 0.21,-5.67 0.26,-8.4 0,-2.72 0.22,-5.36 0.15,-7.85 -0.04,-2.49 -0.08,-4.85 -0.11,-7.02 -0.02,-1.09 -0.04,-2.14 -0.05,-3.13 -0.07,-1 -0.13,-1.94 -0.19,-2.83 -0.11,-1.77 -0.22,-3.32 -0.3,-4.59 -0.14,-2.55 -0.23,-4.01 -0.23,-4.01z"/>
   <path class="fil30" d="M141.39 400.6c0,0 0.1,1.5 0.28,4.13 0.14,2.63 0.42,6.38 0.6,10.89 0.17,4.51 0.47,9.77 0.57,15.41 0.15,5.65 0.14,11.67 0.18,17.69 -0.08,3.02 -0.17,6.03 -0.25,8.99 -0.05,2.97 -0.24,5.88 -0.4,8.7 -0.17,2.83 -0.3,5.55 -0.58,8.13 -0.28,2.58 -0.54,5.01 -0.78,7.26 -0.12,1.12 -0.24,2.2 -0.35,3.22 -0.16,1.02 -0.32,1.99 -0.47,2.89 -0.3,1.81 -0.56,3.39 -0.77,4.69 -0.45,2.6 -0.71,4.08 -0.71,4.08 0,0 0.12,-1.5 0.34,-4.13 0.12,-1.31 0.27,-2.9 0.44,-4.72 0.19,-1.82 0.34,-3.88 0.46,-6.13 0.14,-2.25 0.3,-4.68 0.46,-7.26 0.17,-2.57 0.16,-5.3 0.32,-8.1 0.11,-2.82 0.26,-5.72 0.27,-8.68 0.04,-2.95 0.09,-5.95 0.13,-8.95 0.04,-6.01 0.14,-12.02 0.06,-17.66 0.01,-5.63 0.01,-10.9 0.01,-15.41 0,-4.51 0.08,-8.27 0.1,-10.9 0.06,-2.64 0.09,-4.14 0.09,-4.14z"/>
   <path class="fil13" d="M147.7 196.41c-9.57,1.41 -22.23,-1.31 -32.44,-1.69 -4.8,0.11 -15.04,-1.47 -19.2,0.43 -5.93,3.13 -5.19,9.71 -6.24,16.34 -5.27,33.12 -15.83,110.35 -18.68,117.01 0,0 28.22,16.61 37.96,23 3.99,-6.69 7.31,-14.65 10.78,-20.73 6.08,7.75 8.87,14.38 13.2,19.6 6.53,7.86 35.08,-15.18 36.17,-20 1.11,-4.23 -6.42,-19.07 -7.72,-23.84 -7.38,-35.24 0.21,-72.02 -5.95,-106.69l-7.88 -3.43z"/>
   <path class="fil31" d="M119.88 330.77c0,0 0.17,-2.1 0.46,-5.78 0.16,-1.84 0.35,-4.07 0.57,-6.63 0.12,-2.56 0.26,-5.45 0.41,-8.61 0.15,-3.15 0.37,-6.56 0.5,-10.17 0.12,-3.62 0.25,-7.43 0.38,-11.38 0.37,-7.88 0.51,-16.31 0.76,-24.73 0.5,-16.84 0.99,-33.69 1.37,-46.32 0.22,-6.32 0.41,-11.58 0.53,-15.27 0.16,-3.68 0.25,-5.79 0.25,-5.79 0,0 0.23,8.43 0.29,21.07 0,6.33 0.03,13.7 -0.07,21.61 -0.07,3.95 -0.14,8.03 -0.22,12.18 -0.09,4.15 -0.12,8.36 -0.26,12.57 -0.33,8.43 -0.56,16.86 -1.01,24.75 -0.36,7.9 -0.89,15.26 -1.46,21.58 -0.25,3.15 -0.5,6.04 -0.77,8.59 -0.35,2.55 -0.66,4.77 -0.91,6.59 -0.52,3.65 -0.82,5.74 -0.82,5.74z"/>
   <path class="fil32" d="M109.38 193.51c-0.01,-0.46 0.85,-2.28 1.29,-2.74 -1.62,0.61 -3.3,0.96 -5.02,1.15 -6.73,7.23 -14.49,13.19 -19.76,18.3 4.1,2.16 11.48,3.35 15.15,6.43 -2.17,4.09 -10.86,4.73 -12.56,9.27 -1.08,3.52 5.79,48.47 14.23,68.07 5.1,-37.21 8.29,-94.55 6.67,-100.48z"/>
   <path class="fil33" d="M88.48 225.92c1.7,-4.54 10.39,-5.18 12.56,-9.27 -3.67,-3.08 -11.05,-4.27 -15.15,-6.43 5.27,-5.11 13.03,-11.07 19.76,-18.3 -7.75,0.85 -16.29,-1.66 -23.76,0.39 -3.57,0.98 -26.78,29.86 -37.08,39.52 -6.65,6.23 -35.31,25.09 -38.26,34.15 -3.84,9.54 32.38,58 43.8,65.4 3.07,-3.67 11.84,-11.91 13.25,-15.94 0.85,-2.42 -6.2,-9.17 -8.56,-14.07 -3.3,-6.67 -7.36,-13.19 -10.34,-19.57 -8.97,-19.31 0.58,-8.12 -1.22,-14.83 0.52,3.14 3.49,1.88 4.06,0.51 -0.03,-1.35 -0.49,-1.94 -0.52,-3.29 4.56,2.6 23.81,-15.53 28.61,-20.28 1.21,11.98 -2.72,51.67 -2.96,61.13l-0.36 4.06c1.46,4.92 16.1,15.85 21.52,16.63 3.2,0.84 6.29,-12.87 8.88,-31.74 -8.44,-19.6 -15.31,-64.55 -14.23,-68.07z"/>
   <path class="fil32" d="M151.27 222.44c-2.31,-3.07 -6.27,-5.41 -8.59,-8.51 3.57,-1.43 8.05,-2.43 11.15,-4.75 -3.49,-5.18 -7.74,-13.03 -12.24,-18.04l-4.39 -1.4c1.96,7.16 1.3,17.98 1.47,26.07 0.2,8.71 1.74,54.36 2.05,86.02 6.46,-23.13 14.33,-74.38 10.55,-79.39z"/>
   <path class="fil33" d="M161.07 190.57c-6.76,-0.76 -11.9,3.97 -18.27,0.96l-1.21 -0.39c4.5,5.01 8.75,12.86 12.24,18.04 -3.1,2.32 -7.58,3.32 -11.15,4.75 2.32,3.1 6.28,5.44 8.59,8.51 3.78,5.01 -4.09,56.26 -10.55,79.39 0.09,9.23 0.08,17.28 -0.1,22.87 4.94,-0.56 19.64,-7.64 22.7,-11.75 3.5,-4.58 0.97,-17.13 1.28,-23.44 0.97,-17.12 0.98,-30.62 3.72,-49.29 6.54,6.16 13.44,15.3 18.18,21.8 7.58,10.41 4.88,17 9.37,16.45 0.77,7.79 -21.53,23.88 -29.45,32.15 8.67,5.67 13.31,12.17 15.78,22.47 14.52,-15.63 40.95,-42.17 42.62,-48.06 1.68,-5.43 -52.47,-93.36 -63.75,-94.46z"/>
   <path class="fil34" d="M134.4 186.14c5.31,4.35 6.63,8.36 7.3,13.18 0.66,3.98 -0.01,9.42 -4.02,8.37 -3.44,-1.06 -10.8,-8.79 -12.57,-11.6 3.93,-2.36 7.08,-5.07 8.99,-8.82l0.3 -1.13z"/>
   <path class="fil34" d="M117.9 186.78c-4.8,1.53 -8.07,8.15 -8.54,13 -0.48,3.99 1.36,9.65 5.31,8.42 3.39,-1.21 8.8,-9.23 10.44,-12.11 -4.04,-2.19 -5.16,-4.56 -7.24,-8.22l0.03 -1.09z"/>
   <path class="fil16" d="M103.23 114.08c-1.59,1.36 -1.5,5.69 -0.4,7.1 1.84,2.34 3.6,2.58 4.47,-0.65 0.53,-1.96 0.13,-7.45 -3.27,-6.84 -0.3,0.06 -0.57,0.19 -0.8,0.39z"/>
   <path class="fil16" d="M149.29 113.07c1.64,1.29 1.74,5.62 0.7,7.07 -1.72,2.42 -3.47,2.74 -4.49,-0.45 -0.61,-1.93 -0.46,-7.44 2.97,-6.98 0.31,0.04 0.58,0.17 0.82,0.36z"/>
   <path class="fil27" d="M100.97 94.15c0,0 -0.02,-0.19 -0.03,-0.52 0.02,-0.33 -0.08,-0.78 0.12,-1.34 0.09,-0.29 0.2,-0.61 0.35,-0.93 0.12,-0.36 0.37,-0.61 0.6,-0.92 0.24,-0.29 0.46,-0.63 0.81,-0.84 0.32,-0.22 0.64,-0.49 0.99,-0.69 0.37,-0.14 0.74,-0.29 1.11,-0.44 0.36,-0.16 0.76,-0.14 1.12,-0.21 0.73,-0.14 1.41,0 1.98,0.08 0.56,0.09 1,0.35 1.3,0.47 0.3,0.14 0.45,0.24 0.45,0.24 0,0 -0.19,0.06 -0.51,0.13 -0.31,0.09 -0.75,0.12 -1.25,0.25 -0.25,0.08 -0.52,0.15 -0.79,0.21 -0.28,0.03 -0.55,0.17 -0.84,0.26 -0.58,0.16 -1.13,0.43 -1.69,0.69 -0.27,0.14 -0.51,0.32 -0.77,0.48 -0.27,0.14 -0.49,0.33 -0.71,0.52 -0.19,0.2 -0.49,0.34 -0.63,0.55 -0.15,0.19 -0.34,0.37 -0.51,0.55 -0.37,0.35 -0.56,0.82 -0.78,1.05 -0.19,0.27 -0.32,0.41 -0.32,0.41z"/>
   <path class="fil27" d="M143.2 88.32c0,0 0.16,-0.12 0.45,-0.28 0.3,-0.15 0.66,-0.44 1.24,-0.56 0.57,-0.18 1.27,-0.33 2,-0.31 0.36,0 0.75,-0.02 1.13,0.08 0.38,0.09 0.78,0.14 1.17,0.26 0.36,0.17 0.73,0.33 1.09,0.5 0.38,0.14 0.65,0.46 0.96,0.68 0.63,0.43 0.98,1.09 1.3,1.57 0.18,0.23 0.23,0.52 0.3,0.74 0.08,0.23 0.12,0.44 0.16,0.6 0.07,0.33 0.09,0.51 0.09,0.51 0,0 -0.16,-0.12 -0.42,-0.33 -0.12,-0.1 -0.26,-0.23 -0.43,-0.37 -0.17,-0.14 -0.31,-0.33 -0.54,-0.46 -0.22,-0.14 -0.45,-0.28 -0.67,-0.46 -0.2,-0.18 -0.49,-0.29 -0.75,-0.43 -0.27,-0.13 -0.52,-0.31 -0.82,-0.41l-0.88 -0.34c-0.29,-0.12 -0.61,-0.17 -0.92,-0.26 -0.3,-0.1 -0.61,-0.18 -0.92,-0.22 -0.3,-0.03 -0.6,-0.14 -0.88,-0.17 -0.28,-0.02 -0.55,-0.07 -0.81,-0.11 -0.51,-0.11 -1.01,-0.08 -1.33,-0.15 -0.33,-0.04 -0.52,-0.08 -0.52,-0.08z"/>
   <path class="fil4" d="M63.77 325.18c-4.09,2.03 1.77,9.54 3.24,11.84 1.07,1.66 3.23,5.62 5.56,5.44 2.58,-0.19 1.72,-3.92 1.29,-5.59 2.55,3.82 7.19,2.82 5.14,-1.93 3.82,3.15 3.2,-7.7 3.15,-9.51 -0.19,-3.23 -1.45,-7.22 -2.81,-10.16 1.58,1.25 6.05,10.09 8.45,7.44 2.4,-2.64 -0.72,-9.3 -2.33,-11.46 -2.53,-3.44 -6.79,-8.78 -11.57,-8.54 -4.52,0.22 -1.55,5.72 -0.34,7.9 -4.16,-0.69 -7.69,3.27 -4.51,6.82 -3.09,0.46 -5.59,4.52 -3.46,7.33l-1.81 0.42z"/>
   <path class="fil5" d="M74 336.99c0,0 -0.14,-0.19 -0.35,-0.54 -0.1,-0.18 -0.23,-0.39 -0.35,-0.64 -0.12,-0.26 -0.32,-0.49 -0.49,-0.77 -0.18,-0.28 -0.37,-0.57 -0.54,-0.88 -0.21,-0.31 -0.45,-0.63 -0.66,-0.98 -0.42,-0.7 -0.93,-1.41 -1.39,-2.15 -0.49,-0.73 -0.94,-1.48 -1.38,-2.18 -0.44,-0.7 -0.83,-1.37 -1.17,-1.95 -0.32,-0.6 -0.6,-1.09 -0.78,-1.45 -0.18,-0.37 -0.28,-0.59 -0.28,-0.59 0,0 0.86,0.43 1.9,1.34 0.54,0.44 1.11,1 1.67,1.66 0.59,0.62 1.09,1.4 1.63,2.14 0.45,0.8 0.97,1.57 1.27,2.39 0.36,0.78 0.62,1.58 0.76,2.29 0.19,0.7 0.17,1.26 0.18,1.67 0,0.41 -0.02,0.64 -0.02,0.64z"/>
   <path class="fil5" d="M79.38 334.55c0,0 -0.64,-0.83 -1.37,-2.15 -0.18,-0.33 -0.38,-0.69 -0.56,-1.08 -0.18,-0.4 -0.45,-0.75 -0.66,-1.15 -0.46,-0.79 -0.89,-1.66 -1.32,-2.52 -0.47,-0.85 -0.95,-1.7 -1.34,-2.54 -0.22,-0.4 -0.37,-0.83 -0.58,-1.2 -0.2,-0.37 -0.37,-0.74 -0.53,-1.08 -0.64,-1.35 -0.93,-2.36 -0.93,-2.36 0,0 0.81,0.64 1.84,1.76 0.52,0.56 1.12,1.22 1.63,2.02 0.55,0.78 1.07,1.65 1.59,2.52 0.42,0.93 0.85,1.87 1.18,2.77 0.38,0.89 0.56,1.74 0.7,2.48 0.3,1.48 0.35,2.53 0.35,2.53z"/>
   <path class="fil5" d="M76.03 311.84c0,0 0.47,-0.02 1.01,0.13 0.54,0.11 1.18,0.55 1.72,1.06 0.46,0.59 0.84,1.24 0.89,1.86 0.08,0.59 -0.03,1.02 -0.03,1.02 0,0 -0.47,-0.16 -0.9,-0.45 -0.42,-0.31 -0.98,-0.66 -1.36,-1.14 -0.44,-0.44 -0.74,-1 -1.02,-1.51 -0.25,-0.5 -0.31,-0.97 -0.31,-0.97z"/>
   <path class="fil4" d="M171.72 327.41c4,2.21 -2.17,9.46 -3.74,11.69 -1.14,1.61 -3.46,5.48 -5.78,5.2 -2.57,-0.29 -1.56,-3.99 -1.06,-5.64 -2.7,3.72 -7.29,2.51 -5.05,-2.14 -3.95,2.99 -2.87,-7.83 -2.75,-9.64 0.34,-3.22 1.76,-7.15 3.24,-10.03 -1.63,1.19 -6.47,9.82 -8.75,7.08 -2.29,-2.74 1.11,-9.26 2.8,-11.35 2.68,-3.33 7.16,-8.49 11.93,-8.05 4.51,0.42 1.31,5.79 0.01,7.91 4.18,-0.51 7.55,3.59 4.21,7.01 3.08,0.59 5.4,4.75 3.15,7.46l1.79 0.5z"/>
   <path class="fil5" d="M161 338.78c0,0 -0.01,-0.23 0.01,-0.64 0.03,-0.41 0.03,-0.97 0.25,-1.66 0.17,-0.7 0.46,-1.49 0.85,-2.26 0.34,-0.81 0.89,-1.55 1.37,-2.34 0.57,-0.71 1.1,-1.46 1.72,-2.06 0.59,-0.63 1.19,-1.17 1.74,-1.59 1.08,-0.87 1.95,-1.25 1.95,-1.25 0,0 -0.1,0.21 -0.3,0.57 -0.19,0.35 -0.49,0.84 -0.84,1.41 -0.36,0.57 -0.79,1.22 -1.25,1.91 -0.47,0.68 -0.96,1.41 -1.47,2.11 -0.49,0.72 -1.03,1.41 -1.48,2.09 -0.23,0.34 -0.47,0.65 -0.7,0.95 -0.19,0.31 -0.39,0.59 -0.58,0.86 -0.18,0.27 -0.39,0.5 -0.52,0.75 -0.13,0.25 -0.27,0.45 -0.38,0.62 -0.22,0.34 -0.37,0.53 -0.37,0.53z"/>
   <path class="fil5" d="M155.73 336.11c0,0 0.09,-1.04 0.45,-2.51 0.18,-0.74 0.39,-1.58 0.81,-2.45 0.37,-0.88 0.84,-1.8 1.3,-2.72 0.56,-0.84 1.11,-1.69 1.69,-2.45 0.55,-0.78 1.17,-1.41 1.72,-1.95 1.07,-1.07 1.92,-1.67 1.92,-1.67 0,0 -0.34,0.99 -1.04,2.32 -0.17,0.33 -0.36,0.69 -0.58,1.05 -0.22,0.36 -0.39,0.78 -0.63,1.17 -0.42,0.82 -0.94,1.65 -1.44,2.49 -0.47,0.84 -0.93,1.68 -1.43,2.45 -0.22,0.4 -0.51,0.74 -0.7,1.13 -0.2,0.38 -0.42,0.73 -0.61,1.05 -0.78,1.29 -1.46,2.09 -1.46,2.09z"/>
   <path class="fil5" d="M160.03 313.57c0,0 -0.08,0.46 -0.35,0.95 -0.29,0.5 -0.62,1.05 -1.08,1.46 -0.4,0.47 -0.97,0.8 -1.4,1.09 -0.45,0.27 -0.92,0.41 -0.92,0.41 0,0 -0.09,-0.44 0.02,-1.02 0.06,-0.62 0.48,-1.25 0.96,-1.82 0.56,-0.49 1.22,-0.9 1.76,-0.98 0.55,-0.13 1.01,-0.09 1.01,-0.09z"/>
   <path class="fil31" d="M113.32 270.38c0,0 1.19,-0.63 3.03,-1.34 1.84,-0.72 4.34,-1.53 6.87,-2.19 2.53,-0.65 5.1,-1.16 7.07,-1.42 1.96,-0.27 3.32,-0.29 3.32,-0.29 0,0 -1.18,0.63 -3.02,1.34 -1.84,0.73 -4.34,1.54 -6.88,2.2 -2.54,0.65 -5.12,1.15 -7.08,1.41 -1.96,0.27 -3.31,0.29 -3.31,0.29z"/>
   <path class="fil32" d="M195.89 279.37c0,0 0.16,-0.17 0.46,-0.45 0.15,-0.14 0.33,-0.31 0.55,-0.48 0.22,-0.18 0.44,-0.4 0.75,-0.57 0.6,-0.35 1.32,-0.84 2.14,-1.12 0.42,-0.15 0.83,-0.35 1.28,-0.46 0.45,-0.11 0.91,-0.22 1.37,-0.32 0.92,-0.13 1.85,-0.27 2.71,-0.24 0.87,-0.01 1.67,0.06 2.36,0.15 1.36,0.18 2.26,0.49 2.26,0.49 0,0 -0.89,0.33 -2.22,0.6 -1.34,0.28 -3.08,0.56 -4.77,0.86 -0.85,0.15 -1.69,0.32 -2.48,0.51 -0.81,0.13 -1.5,0.39 -2.17,0.5 -0.65,0.17 -1.21,0.34 -1.61,0.41 -0.4,0.09 -0.63,0.12 -0.63,0.12z"/>
   <path class="fil32" d="M194.9 275.34c0,0 0.39,-0.73 1.14,-1.64 0.33,-0.48 0.86,-0.93 1.49,-1.37 0.6,-0.46 1.29,-0.93 1.99,-1.32 1.41,-0.69 2.87,-1.29 4.05,-1.49 1.17,-0.26 2,-0.26 2,-0.26 0,0 -0.6,0.6 -1.56,1.26 -0.97,0.64 -2.24,1.5 -3.6,2.16 -0.35,0.15 -0.64,0.35 -0.96,0.52 -0.31,0.18 -0.64,0.32 -0.95,0.48 -0.63,0.28 -1.25,0.54 -1.76,0.85 -1.04,0.56 -1.84,0.81 -1.84,0.81z"/>
   <path class="fil32" d="M28 259.21c0,0 1.04,0.3 2.47,0.92 0.71,0.3 1.53,0.68 2.39,1.15 0.87,0.44 1.75,1.04 2.62,1.63 0.42,0.34 0.83,0.68 1.24,1.01 0.42,0.31 0.73,0.75 1.09,1.1 0.71,0.71 1.19,1.55 1.61,2.23 0.42,0.69 0.59,1.37 0.76,1.79 0.14,0.44 0.21,0.7 0.21,0.7 0,0 -0.21,-0.18 -0.54,-0.51 -0.34,-0.31 -0.73,-0.81 -1.3,-1.32 -0.28,-0.25 -0.59,-0.52 -0.89,-0.82 -0.28,-0.31 -0.67,-0.56 -1.01,-0.87 -0.7,-0.6 -1.5,-1.18 -2.29,-1.78 -1.62,-1.17 -3.28,-2.37 -4.48,-3.39 -1.19,-1.01 -1.88,-1.84 -1.88,-1.84z"/>
   <path class="fil32" d="M30.63 256c0,0 0.23,-0.05 0.62,-0.12 0.39,-0.04 0.93,-0.17 1.61,-0.14 0.67,0 1.48,0.04 2.3,0.22 0.41,0.09 0.86,0.13 1.27,0.3 0.43,0.14 0.86,0.29 1.29,0.44 0.4,0.2 0.81,0.41 1.21,0.61 0.41,0.18 0.77,0.46 1.11,0.72 0.72,0.47 1.28,1.07 1.71,1.6 0.48,0.48 0.7,1.06 0.9,1.39 0.18,0.35 0.26,0.56 0.26,0.56 0,0 -0.21,-0.11 -0.55,-0.31 -0.35,-0.19 -0.74,-0.54 -1.32,-0.82 -0.28,-0.15 -0.58,-0.31 -0.87,-0.5 -0.31,-0.18 -0.67,-0.31 -1,-0.5 -0.67,-0.37 -1.45,-0.66 -2.18,-1 -0.77,-0.3 -1.53,-0.63 -2.27,-0.88 -0.37,-0.12 -0.72,-0.31 -1.06,-0.4 -0.34,-0.11 -0.66,-0.24 -0.96,-0.35 -0.59,-0.25 -1.14,-0.4 -1.5,-0.57 -0.36,-0.15 -0.57,-0.25 -0.57,-0.25z"/>
   <path class="fil32" d="M75.9 247.35c0,0 -0.1,-0.5 -0.23,-1.38 -0.11,-0.89 -0.32,-2.15 -0.47,-3.66 -0.34,-3.03 -0.65,-7.08 -0.76,-11.13 -0.05,-4.06 0.06,-8.12 0.27,-11.16 0.08,-1.52 0.24,-2.79 0.31,-3.67 0.09,-0.89 0.17,-1.39 0.17,-1.39 0,0 0.09,0.51 0.2,1.4 0.09,0.88 0.28,2.15 0.41,3.67 0.27,3.03 0.48,7.07 0.53,11.11 0.03,2.02 0.09,4.04 0.07,5.94 0,1.9 -0.05,3.68 -0.12,5.2 -0.06,1.52 -0.19,2.79 -0.24,3.68 -0.07,0.88 -0.14,1.39 -0.14,1.39z"/>
   <path class="fil32" d="M168.32 240.22c0,0 -0.41,-1.63 -0.76,-4.09 -0.38,-2.46 -0.72,-5.75 -0.9,-9.05 -0.16,-3.3 -0.15,-6.62 -0.03,-9.1 0.11,-2.48 0.36,-4.14 0.36,-4.14 0,0 0.39,1.64 0.73,4.11 0.36,2.46 0.67,5.74 0.83,9.04 0.17,3.29 0.19,6.6 0.09,9.08 -0.09,2.49 -0.32,4.15 -0.32,4.15z"/>
  </g>
 </g>
</svg>
