<?xml version="1.0" encoding="UTF-8"?>
<!DOCTYPE svg PUBLIC "-//W3C//DTD SVG 1.1//EN" "http://www.w3.org/Graphics/SVG/1.1/DTD/svg11.dtd">
<!-- Creator: CorelDRAW 2017 -->
<svg xmlns="http://www.w3.org/2000/svg" xml:space="preserve" width="1000px" height="1000px" version="1.1" style="shape-rendering:geometricPrecision; text-rendering:geometricPrecision; image-rendering:optimizeQuality; fill-rule:evenodd; clip-rule:evenodd"
viewBox="0 0 1000 1000"
 xmlns:xlink="http://www.w3.org/1999/xlink">
 <defs>
  <style type="text/css">
   <![CDATA[
    .fil2 {fill:#1D1D1E;fill-rule:nonzero}
    .fil4 {fill:#202022;fill-rule:nonzero}
    .fil3 {fill:#5A4392;fill-rule:nonzero}
    .fil1 {fill:#F7AA1D;fill-rule:nonzero}
    .fil0 {fill:#FEFEFE;fill-rule:nonzero}
   ]]>
  </style>
 </defs>
 <g id="Layer_x0020_1">
  <metadata id="CorelCorpID_0Corel-Layer"/>
  <g id="_2085687844608">
   <path class="fil0" d="M55.16 46.15c-1.15,-1.21 -2.53,-1.86 -4,-1.86 -1.46,0 -2.85,0.64 -4.05,1.85l-3.74 3.79c-0.31,-0.17 -0.62,-0.32 -0.91,-0.48 -0.43,-0.22 -0.83,-0.42 -1.17,-0.64 -3.51,-2.26 -6.7,-5.21 -9.75,-9.02 -1.48,-1.9 -2.48,-3.51 -3.2,-5.13 0.97,-0.9 1.87,-1.84 2.75,-2.75 0.33,-0.33 0.66,-0.68 0.99,-1.02 2.49,-2.52 2.49,-5.8 0,-8.33l-3.23 -3.28c-0.37,-0.37 -0.75,-0.76 -1.1,-1.14 -0.71,-0.75 -1.46,-1.52 -2.23,-2.24 -1.14,-1.16 -2.52,-1.77 -3.96,-1.77 -1.45,0 -2.84,0.61 -4.03,1.77 -0.01,0.01 -0.01,0.01 -0.02,0.02l-4.03 4.13c-1.52,1.54 -2.38,3.42 -2.57,5.6 -0.28,3.51 0.74,6.78 1.52,8.92 1.92,5.27 4.78,10.14 9.06,15.36 5.18,6.3 11.42,11.27 18.55,14.77 2.72,1.31 6.36,2.86 10.42,3.13 0.25,0.01 0.51,0.02 0.75,0.02 2.73,0 5.03,-1 6.83,-2.98 0.01,-0.03 0.03,-0.04 0.05,-0.06 0.61,-0.76 1.32,-1.45 2.07,-2.18 0.51,-0.49 1.03,-1.01 1.54,-1.55 1.17,-1.24 1.79,-2.69 1.79,-4.17 0,-1.49 -0.63,-2.92 -1.83,-4.13l-6.5 -6.63 0 0zm4.24 12.68l0 0c-0.01,0 -0.01,0.01 0,0 -0.46,0.5 -0.93,0.96 -1.44,1.46 -0.77,0.75 -1.56,1.53 -2.29,2.41 -1.19,1.3 -2.6,1.91 -4.45,1.91 -0.18,0 -0.37,0 -0.55,-0.01 -3.51,-0.23 -6.78,-1.62 -9.23,-2.81 -6.7,-3.3 -12.59,-7.98 -17.48,-13.92 -4.04,-4.94 -6.74,-9.52 -8.53,-14.43 -1.1,-2.99 -1.5,-5.33 -1.32,-7.53 0.12,-1.41 0.65,-2.58 1.63,-3.58l4.04 -4.1c0.58,-0.55 1.2,-0.85 1.8,-0.85 0.75,0 1.35,0.46 1.73,0.84 0.01,0.01 0.02,0.02 0.04,0.04 0.72,0.68 1.4,1.39 2.13,2.15 0.36,0.39 0.74,0.77 1.12,1.17l3.23 3.28c1.26,1.28 1.26,2.46 0,3.73 -0.34,0.35 -0.67,0.7 -1.02,1.04 -0.99,1.03 -1.94,2 -2.97,2.94 -0.02,0.02 -0.04,0.03 -0.06,0.06 -1.01,1.03 -0.82,2.04 -0.61,2.73 0.01,0.03 0.02,0.07 0.03,0.11 0.84,2.07 2.03,4.02 3.83,6.34l0.01 0.01c3.27,4.09 6.71,7.28 10.51,9.72 0.49,0.32 0.99,0.57 1.46,0.81 0.43,0.22 0.83,0.42 1.17,0.64 0.05,0.02 0.1,0.06 0.15,0.08 0.4,0.21 0.78,0.3 1.17,0.3 0.98,0 1.6,-0.62 1.8,-0.83l4.05 -4.11c0.4,-0.41 1.04,-0.9 1.79,-0.9 0.73,0 1.33,0.46 1.7,0.87 0.01,0.02 0.01,0.02 0.03,0.03l6.52 6.63c1.22,1.23 1.22,2.49 0.01,3.77l0 0z"/>
   <path class="fil0" d="M41.14 24.39c3.11,0.53 5.92,2.03 8.17,4.31 2.25,2.29 3.71,5.15 4.24,8.31 0.13,0.79 0.81,1.34 1.58,1.34 0.09,0 0.17,-0.01 0.27,-0.02 0.87,-0.14 1.46,-0.99 1.31,-1.88 -0.64,-3.81 -2.41,-7.29 -5.12,-10.05 -2.71,-2.75 -6.14,-4.56 -9.89,-5.21 -0.88,-0.14 -1.69,0.45 -1.85,1.32 -0.15,0.88 0.41,1.74 1.29,1.88l0 0z"/>
   <path class="fil0" d="M66.86 35.98c-1.05,-6.28 -3.97,-12 -8.44,-16.55 -4.48,-4.55 -10.1,-7.51 -16.28,-8.58 -0.87,-0.15 -1.69,0.45 -1.84,1.33 -0.14,0.89 0.44,1.72 1.32,1.88 5.51,0.95 10.55,3.6 14.55,7.66 4,4.07 6.61,9.18 7.54,14.79 0.13,0.8 0.81,1.35 1.58,1.35 0.09,0 0.17,-0.01 0.27,-0.02 0.86,-0.14 1.45,-0.98 1.3,-1.86l0 0z"/>
   <path class="fil1" d="M192.72 17.3l-3.48 0 0 -3.3c0,-0.74 -0.55,-1.37 -1.29,-1.45l-20.16 -2.38c-4.52,-0.54 -9.04,0.22 -13.13,2.19 -4.09,-1.97 -8.62,-2.73 -13.14,-2.19l-20.16 2.38c-0.73,0.08 -1.28,0.71 -1.28,1.45l0 3.3 -3.48 0c-0.81,0 -1.46,0.66 -1.46,1.46l0 47.81c0,0.8 0.65,1.46 1.46,1.46l76.12 0c0.8,0 1.45,-0.66 1.45,-1.46l0 -47.81c0,-0.8 -0.65,-1.46 -1.45,-1.46l0 0zm-25.26 -4.23l0 0 18.87 2.23 0 43.44 -18.54 -2.19c-3.99,-0.47 -7.98,0.07 -11.68,1.56l0 -43.2c3.54,-1.67 7.45,-2.3 11.35,-1.84l0 0zm-25.6 0l0 0c3.9,-0.46 7.8,0.17 11.34,1.84l0 43.2c-2.82,-1.14 -5.83,-1.73 -8.87,-1.73 -0.93,0 -1.87,0.06 -2.81,0.17l-18.54 2.19 0 -43.44 18.88 -2.23 0 0zm49.41 52.03l0 0 -73.22 0 0 -44.87 2.03 0 0 40.15c0,0.42 0.17,0.81 0.48,1.09 0.31,0.28 0.73,0.41 1.14,0.36l20.16 -2.38c4.19,-0.49 8.38,0.28 12.13,2.23 0.42,0.22 0.92,0.22 1.34,0 3.74,-1.95 7.94,-2.72 12.13,-2.23l20.16 2.38c0.05,0.01 0.11,0.01 0.16,0.01 0.36,0 0.7,-0.13 0.97,-0.37 0.31,-0.28 0.49,-0.67 0.49,-1.09l0 -40.15 2.03 0 0 44.87 0 0 0 0z"/>
   <path class="fil1" d="M159.46 21.3c2.61,-0.71 5.29,-0.92 7.97,-0.6l15.14 1.79c0.05,0.01 0.11,0.01 0.17,0.01 0.73,0 1.35,-0.55 1.44,-1.29 0.09,-0.8 -0.48,-1.53 -1.27,-1.62l-15.14 -1.79c-3.06,-0.36 -6.11,-0.13 -9.07,0.68 -0.78,0.21 -1.24,1.01 -1.02,1.79 0.21,0.78 1,1.24 1.78,1.03l0 0z"/>
   <path class="fil1" d="M126.52 22.5c0.06,0 0.12,0 0.17,-0.01l15.14 -1.79c2.68,-0.31 5.39,-0.11 7.97,0.6 0.77,0.21 1.57,-0.25 1.79,-1.03 0.21,-0.78 -0.25,-1.58 -1.03,-1.79 -2.93,-0.8 -6.02,-1.04 -9.07,-0.68l-15.13 1.79c-0.8,0.09 -1.37,0.82 -1.28,1.62 0.09,0.74 0.72,1.29 1.44,1.29z"/>
   <path class="fil1" d="M159.46 28c2.61,-0.71 5.29,-0.91 7.97,-0.6l15.14 1.79c0.05,0 0.11,0.01 0.17,0.01 0.73,0 1.35,-0.55 1.44,-1.29 0.09,-0.8 -0.48,-1.53 -1.27,-1.62l-15.14 -1.79c-3.05,-0.36 -6.11,-0.13 -9.07,0.68 -0.78,0.21 -1.24,1.01 -1.02,1.79 0.21,0.78 1,1.24 1.78,1.03l0 0z"/>
   <path class="fil1" d="M126.52 29.2c0.06,0 0.12,-0.01 0.17,-0.01l15.14 -1.79c2.68,-0.31 5.39,-0.11 7.97,0.6 0.77,0.21 1.57,-0.25 1.79,-1.03 0.21,-0.77 -0.25,-1.58 -1.03,-1.79 -2.93,-0.8 -6.02,-1.04 -9.07,-0.68l-15.13 1.79c-0.8,0.09 -1.37,0.82 -1.28,1.62 0.09,0.74 0.72,1.29 1.44,1.29l0 0z"/>
   <path class="fil1" d="M159.46 34.7c2.61,-0.71 5.29,-0.91 7.97,-0.6l15.14 1.79c0.05,0 0.11,0.01 0.17,0.01 0.73,0 1.35,-0.55 1.44,-1.29 0.09,-0.8 -0.48,-1.53 -1.27,-1.62l-15.14 -1.79c-3.05,-0.36 -6.11,-0.13 -9.07,0.68 -0.78,0.21 -1.24,1.01 -1.02,1.79 0.21,0.78 1,1.24 1.78,1.03l0 0z"/>
   <path class="fil1" d="M126.52 35.9c0.06,0 0.12,-0.01 0.17,-0.01l15.14 -1.79c2.68,-0.31 5.39,-0.11 7.97,0.6 0.77,0.21 1.57,-0.25 1.79,-1.03 0.21,-0.78 -0.25,-1.58 -1.03,-1.79 -2.93,-0.8 -6.02,-1.04 -9.07,-0.68l-15.13 1.79c-0.8,0.09 -1.37,0.82 -1.28,1.62 0.09,0.74 0.72,1.29 1.44,1.29z"/>
   <path class="fil1" d="M159.46 41.4c2.61,-0.71 5.29,-0.92 7.97,-0.6l15.14 1.79c0.05,0 0.11,0.01 0.17,0.01 0.73,0 1.35,-0.55 1.44,-1.29 0.09,-0.81 -0.48,-1.53 -1.27,-1.62l-15.14 -1.79c-3.05,-0.36 -6.11,-0.13 -9.07,0.68 -0.78,0.21 -1.24,1.01 -1.02,1.79 0.21,0.78 1,1.24 1.78,1.03l0 0z"/>
   <path class="fil1" d="M126.52 42.6c0.06,0 0.12,-0.01 0.17,-0.01l15.14 -1.79c2.68,-0.31 5.39,-0.11 7.97,0.6 0.77,0.21 1.57,-0.25 1.79,-1.03 0.21,-0.77 -0.25,-1.58 -1.03,-1.79 -2.93,-0.8 -6.02,-1.04 -9.07,-0.68l-15.13 1.79c-0.8,0.09 -1.37,0.81 -1.28,1.62 0.09,0.74 0.72,1.29 1.44,1.29l0 0z"/>
   <path class="fil1" d="M182.91 46.39l-15.14 -1.79c-3.06,-0.36 -6.11,-0.13 -9.07,0.68 -0.78,0.21 -1.23,1.01 -1.02,1.79 0.21,0.78 1.01,1.24 1.78,1.03 2.61,-0.72 5.29,-0.91 7.97,-0.6l15.14 1.79c0.05,0 0.11,0.01 0.17,0.01 0.73,0 1.35,-0.55 1.44,-1.29 0.09,-0.81 -0.48,-1.53 -1.27,-1.62l0 0z"/>
   <path class="fil1" d="M126.52 49.3c0.06,0 0.12,-0.01 0.17,-0.01l15.14 -1.79c2.68,-0.31 5.39,-0.11 7.97,0.6 0.77,0.21 1.57,-0.25 1.79,-1.03 0.21,-0.78 -0.25,-1.58 -1.03,-1.79 -2.93,-0.8 -6.02,-1.04 -9.07,-0.68l-15.13 1.79c-0.8,0.09 -1.37,0.81 -1.28,1.62 0.09,0.74 0.72,1.29 1.44,1.29z"/>
   <path class="fil2" d="M48.87 153.69l-26 0c-1.5,0 -2.72,1.24 -2.72,2.76l0 16.92c0,1.52 1.22,2.76 2.72,2.76l26 0c1.51,0 2.73,-1.24 2.73,-2.76l0 -16.92c0,-1.52 -1.22,-2.76 -2.73,-2.76zm-26 1.76l0 0 26 0c0.54,0 0.99,0.45 0.99,1l0 2.88 -27.97 0 0 -2.88c0,-0.55 0.44,-1 0.98,-1zm3.72 9.4l0 0c0.54,0 0.99,0.45 0.99,1l0 2.88 -1.98 0 0 -2.88c0,-0.55 0.44,-1 0.99,-1l0 0zm22.28 9.51l0 0 -26 0c-0.54,0 -0.98,-0.44 -0.98,-0.99l0 -12.28 3.83 0 0 2.14c-1.08,0.37 -1.86,1.41 -1.86,2.62l0 3.76c0,0.48 0.39,0.88 0.87,0.88l3.71 0c0.49,0 0.88,-0.4 0.88,-0.88l0 -3.76c0,-1.21 -0.78,-2.25 -1.86,-2.62l0 -2.14 22.4 0 0 12.28c0,0.55 -0.45,0.99 -0.99,0.99z"/>
   <path class="fil2" d="M27.52 148.87l16.71 0c0.48,0 0.87,-0.39 0.87,-0.88l0 -8.65c0,-1.25 -0.6,-2.4 -1.61,-3.07 -2.26,-1.51 -4.9,-2.31 -7.62,-2.31 -2.72,0 -5.35,0.8 -7.62,2.31 -1,0.67 -1.6,1.82 -1.6,3.07l0 8.65c0,0.49 0.39,0.88 0.87,0.88l0 0zm0.87 -9.53l0 0c0,-0.66 0.3,-1.25 0.82,-1.6 1.98,-1.32 4.28,-2.02 6.66,-2.02 2.38,0 4.69,0.7 6.66,2.02 0.52,0.35 0.83,0.94 0.83,1.6l0 7.77 -14.97 0 0 -7.77z"/>
   <path class="fil2" d="M38.66 137.72l-5.57 0c-0.48,0 -0.87,0.39 -0.87,0.88 0,0.48 0.39,0.88 0.87,0.88l5.57 0c0.48,0 0.87,-0.4 0.87,-0.88 0,-0.49 -0.39,-0.88 -0.87,-0.88z"/>
   <path class="fil2" d="M58.16 153.69l-0.99 0 0 -5.7c0,-3.14 -0.67,-6.12 -1.87,-8.81 0.01,-0.04 0.01,-0.08 0.01,-0.11l0 -9.87c0,-1.52 -1.22,-2.76 -2.73,-2.76l-2.78 0c-1.5,0 -2.73,1.24 -2.73,2.76l0 0.47c-0.92,-0.58 -1.89,-1.09 -2.9,-1.53l0 -2.7c0,-2.04 -1.64,-3.7 -3.66,-3.7l-9.28 0c-2.01,0 -3.65,1.66 -3.65,3.7l0 2.7c-1.01,0.44 -1.98,0.95 -2.91,1.53l0 -0.47c0,-1.52 -1.22,-2.76 -2.73,-2.76l-2.78 0c-1.5,0 -2.73,1.24 -2.73,2.76l0 9.87c0,0.03 0.01,0.07 0.01,0.11 -1.2,2.69 -1.86,5.67 -1.86,8.81l0 5.7 -0.99 0c-1.5,0 -2.73,1.24 -2.73,2.76l0 16.92c0,1.52 1.23,2.76 2.73,2.76l1.45 0c1.13,3.28 4.21,5.64 7.83,5.64l26 0c3.62,0 6.71,-2.36 7.84,-5.64l1.45 0c1.5,0 2.72,-1.24 2.72,-2.76l0 -16.92c0,-1.52 -1.22,-2.76 -2.72,-2.76l0 0zm0 1.76l0 0c0.54,0 0.98,0.45 0.98,1l0 2.88 -1.97 0 0 -3.88 0.99 0zm-22.29 -27.25l0 0c10.49,0 19.08,8.41 19.54,18.91l-1.07 0c-0.5,0 -0.92,-0.4 -0.97,-0.92 -0.44,-4.37 -2.45,-8.4 -5.67,-11.37 -3.24,-2.98 -7.44,-4.62 -11.83,-4.62 -4.38,0 -8.58,1.64 -11.82,4.62 -3.22,2.97 -5.24,7 -5.67,11.37 -0.05,0.52 -0.47,0.92 -0.98,0.92l-1.06 0c0.46,-10.5 9.04,-18.91 19.53,-18.91l0 0zm12.94 1l0 0c0,-0.55 0.45,-1 0.99,-1l2.78 0c0.55,0 0.99,0.45 0.99,1l0 6.82c-1.3,-1.96 -2.91,-3.7 -4.76,-5.13l0 -1.69 0 0zm-19.49 -3.76l0 0c0,-1.07 0.86,-1.94 1.91,-1.94l9.28 0c1.06,0 1.92,0.87 1.92,1.94l0 2.05c-2.07,-0.68 -4.27,-1.05 -6.56,-1.05 -2.29,0 -4.49,0.37 -6.55,1.05l0 -2.05 0 0zm-11.15 3.76l0 0c0,-0.55 0.45,-1 0.99,-1l2.78 0c0.55,0 0.99,0.45 0.99,1l0 1.69c-1.85,1.43 -3.45,3.17 -4.76,5.13l0 -6.82 0 0zm-4.58 26.25l0 0 0.99 0 0 3.88 -1.98 0 0 -2.88c0,-0.55 0.45,-1 0.99,-1l0 0zm0 18.91l0 0c-0.54,0 -0.99,-0.44 -0.99,-0.99l0 -12.28 1.98 0 0 12.28c0,0.33 0.02,0.67 0.06,0.99l-1.05 0zm35.28 5.64l0 0 -26 0c-3.61,0 -6.55,-2.97 -6.55,-6.63l0 -24.5 1.08 0c1.41,0 2.57,-1.08 2.71,-2.51 0.4,-3.93 2.21,-7.56 5.11,-10.23 2.92,-2.69 6.7,-4.17 10.65,-4.17 3.95,0 7.74,1.48 10.66,4.17 2.9,2.67 4.71,6.3 5.1,10.23 0.15,1.43 1.31,2.51 2.71,2.51l1.09 0 0 24.5c0,3.66 -2.94,6.63 -6.56,6.63l0 0zm9.29 -5.64l0 0 -1.05 0c0.04,-0.32 0.06,-0.66 0.06,-0.99l0 -12.28 1.97 0 0 12.28c0,0.55 -0.44,0.99 -0.98,0.99z"/>
   <path class="fil2" d="M156.52 171.46c-0.27,-0.06 -0.54,-0.16 -0.79,-0.29 -1.56,2.82 -3.88,5.16 -6.69,6.77 -6.19,0.79 -8.24,-4.47 -8.83,-6.71 5.82,0.87 11.22,0.03 14.48,-0.73 -0.21,-0.18 -0.42,-0.36 -0.61,-0.55 -0.24,-0.22 -0.46,-0.45 -0.68,-0.69 -3.24,0.67 -8.12,1.28 -13.32,0.44 0.55,-4.25 3.33,-5.45 7.2,-6.73 -0.17,-0.26 -0.32,-0.53 -0.45,-0.81 -0.08,-0.18 -0.14,-0.36 -0.21,-0.55 -3.88,1.3 -7.34,2.84 -8.03,7.81 -1.16,-0.26 -2.29,-0.58 -3.4,-0.97 2.02,-6.05 5.1,-11.06 7.82,-14.7 -0.09,-0.16 -0.17,-0.32 -0.25,-0.47 -0.18,-0.34 -0.34,-0.69 -0.49,-1.03 -2.9,3.77 -6.28,9.12 -8.49,15.65 -0.75,-0.33 -1.49,-0.69 -2.21,-1.08 1.05,-3.04 0.91,-5.75 0.78,-8.37 -0.19,-3.63 -0.37,-7.38 2.61,-12.3 0.94,-0.28 1.91,-0.49 2.89,-0.62 0.59,-0.08 1.18,-0.12 1.77,-0.14 -0.15,-0.49 -0.29,-0.98 -0.4,-1.48 -0.52,0.03 -1.05,0.08 -1.57,0.15 -1.2,0.16 -2.38,0.42 -3.53,0.8 -0.05,0 -0.11,0.02 -0.16,0.05 -8.5,2.85 -14.08,11.32 -12.85,20.41 1.4,10.35 11.09,17.65 21.61,16.28 6.2,-0.81 11.62,-4.56 14.53,-10.04 -0.25,-0.01 -0.49,-0.04 -0.73,-0.1l0 0zm-23.74 -24.49l0 0c-2.3,4.53 -2.12,8.09 -1.94,11.56 0.13,2.49 0.25,4.86 -0.6,7.5 -2.65,-1.69 -5.15,-4.02 -7.31,-7.19 1.27,-5.24 4.89,-9.61 9.85,-11.87zm-10.17 18.15l0 0c-0.19,-1.39 -0.2,-2.81 -0.04,-4.21 1.95,2.61 4.37,4.83 7.15,6.57 -0.34,0.84 -1.17,2.53 -2.6,3.13 -0.86,0.35 -1.84,0.26 -2.93,-0.26 -0.8,-1.65 -1.34,-3.41 -1.58,-5.23zm2.66 7.13l0 0c0.82,0.14 1.67,0.05 2.45,-0.28 1.82,-0.76 2.85,-2.63 3.32,-3.73 0.75,0.4 1.52,0.77 2.28,1.09 -0.87,2.85 -1.44,5.79 -1.72,8.76 -2.56,-1.41 -4.74,-3.41 -6.33,-5.84l0 0 0 0zm17.25 7.87l0 0c-3.21,0.43 -6.49,-0.03 -9.46,-1.32 0.24,-3.03 0.8,-6.02 1.68,-8.93 1.26,0.45 2.55,0.8 3.86,1.06 0.27,1.28 1.25,4.85 4.12,6.97 0.96,0.71 2.06,1.19 3.23,1.42 -1.11,0.38 -2.26,0.65 -3.43,0.8l0 0z"/>
   <path class="fil2" d="M156.47 171.68l-0.64 -0.22c-0.77,1.36 -1.72,2.6 -2.81,3.7 -1.14,1.16 -2.44,2.16 -3.87,2.98l-0.08 0.03c-3.19,0.4 -5.31,-0.76 -6.71,-2.3 -1.5,-1.65 -2.1,-3.57 -2.46,-4.91 5.07,0.75 9.79,0.42 14.31,-0.58l-0.89 -0.87c-4.26,0.87 -8.78,1.13 -13.49,0.37 0.58,-4.46 3.14,-5.7 7.11,-7.03l-0.45 -0.95c-4.19,1.41 -7.04,2.94 -7.71,7.79 -1.46,-0.32 -2.47,-0.6 -3.88,-1.11 1.87,-5.57 4.57,-10.45 7.84,-14.85l-0.52 -1.05c-3.46,4.57 -6.33,9.68 -8.3,15.52l-2.62 -1.28c1.88,-5.45 0.16,-9.01 0.94,-14.17 0.31,-2.03 1.02,-4.22 2.53,-6.71 0.28,-0.38 3.63,-0.82 4.55,-0.86l-0.28 -1.03 -3.12 0.44c-9.43,2.15 -15.9,11.02 -14.59,20.7 1.88,13.89 18.13,20.9 29.76,12.86 2.38,-1.64 4.37,-3.82 5.79,-6.39l-0.41 -0.08zm-23.49 -24.61c-4.01,7.9 -0.38,12.33 -2.62,19.3 -3.13,-1.99 -5.49,-4.29 -7.67,-7.49 1.3,-5.39 4.94,-9.81 9.99,-12.11l0.3 0.3zm-10.59 18.08c-0.19,-1.41 -0.21,-2.85 -0.05,-4.26l0.4 -0.11c2.02,2.69 4.4,4.82 7.26,6.6 -0.7,1.75 -1.99,3.85 -4.28,3.65 -0.32,-0.03 -1.52,-0.29 -1.73,-0.58 -0.41,-0.84 -0.75,-1.7 -1.02,-2.59 -0.26,-0.88 -0.46,-1.79 -0.58,-2.71zm2.92 6.88c2.85,0.49 4.64,-1.81 5.62,-4.1l2.67 1.27c-0.98,3.19 -1.5,5.92 -1.81,9.24 -2.91,-1.59 -4.99,-3.44 -6.81,-6.22l0.19 -0.2c0.05,0 0.09,0 0.14,0.01zm17.24 8.32c-3.37,0.44 -6.61,-0.06 -9.72,-1.41 0.26,-3.31 0.81,-6.18 1.76,-9.36 1.5,0.53 2.64,0.85 4.2,1.16 0.77,3.67 2.99,7.53 7.21,8.36l0.03 0.44c-1.13,0.38 -2.3,0.65 -3.48,0.81z"/>
   <path class="fil2" d="M163.59 141.4l0.02 0.06c0.09,0.26 0.32,0.44 0.6,0.47l7.76 0.73 0.07 0c0.25,0 0.48,-0.13 0.6,-0.35 0.64,-1.11 0.81,-2.43 0.46,-3.66 -0.76,-2.6 -3.51,-4.1 -6.14,-3.35 -2.56,0.74 -4.08,3.35 -3.43,5.91 0.02,0.07 0.04,0.13 0.06,0.19l0 0zm3.79 -4.86l0 0c1.9,-0.51 3.86,0.59 4.39,2.47 0.2,0.75 0.15,1.54 -0.14,2.25l-6.82 -0.64c-0.36,-1.82 0.76,-3.6 2.57,-4.08z"/>
   <path class="fil2" d="M163.8 141.33l0.02 0.06c0.03,0.09 0.09,0.16 0.16,0.21 0.07,0.06 0.15,0.09 0.25,0.1l7.75 0.74 0.06 0c0.08,0 0.17,-0.02 0.24,-0.07 0.07,-0.04 0.13,-0.1 0.17,-0.17 0.3,-0.53 0.5,-1.11 0.57,-1.7 0.07,-0.6 0.03,-1.2 -0.13,-1.79 -0.36,-1.24 -1.2,-2.22 -2.26,-2.79 -1.07,-0.58 -2.35,-0.76 -3.61,-0.4 -1.22,0.35 -2.2,1.15 -2.79,2.16 -0.58,1.02 -0.79,2.25 -0.48,3.47l0 0.01c0.01,0.03 0.02,0.06 0.02,0.08l0.03 0.09zm-0.4 0.2l-0.05 -0.15c-0.01,-0.04 -0.02,-0.08 -0.03,-0.12 -0.34,-1.34 -0.12,-2.69 0.53,-3.8 0.64,-1.11 1.71,-1.99 3.05,-2.37 1.37,-0.39 2.78,-0.2 3.94,0.43 1.16,0.63 2.08,1.71 2.48,3.06l0 0.01c0.18,0.64 0.23,1.31 0.15,1.96 -0.09,0.65 -0.3,1.29 -0.63,1.87 -0.08,0.15 -0.2,0.26 -0.34,0.34 -0.13,0.08 -0.29,0.13 -0.46,0.13l-0.07 0 -7.78 -0.74c-0.18,-0.02 -0.35,-0.08 -0.49,-0.19 -0.14,-0.11 -0.24,-0.26 -0.3,-0.43zm3.92 -5.21c1.01,-0.27 2.04,-0.11 2.88,0.36 0.85,0.48 1.51,1.27 1.78,2.27 0.11,0.4 0.16,0.81 0.13,1.21 -0.03,0.41 -0.12,0.81 -0.28,1.19l-0.06 0.15c-2.38,-0.23 -4.77,-0.45 -7.15,-0.68l-0.03 -0.16c-0.19,-0.97 0.01,-1.92 0.5,-2.7 0.49,-0.78 1.27,-1.38 2.23,-1.64zm2.66 0.75c-0.74,-0.42 -1.65,-0.56 -2.54,-0.32 -0.85,0.23 -1.54,0.76 -1.97,1.44 -0.4,0.65 -0.58,1.42 -0.47,2.22l6.48 0.61c0.1,-0.29 0.16,-0.58 0.18,-0.89 0.03,-0.35 -0.01,-0.71 -0.11,-1.06 -0.24,-0.88 -0.83,-1.58 -1.57,-2z"/>
   <path class="fil2" d="M151.13 148.23l6.32 -4.5c0.22,-0.16 0.33,-0.43 0.27,-0.69l-0.01 -0.06c-0.01,-0.07 -0.03,-0.13 -0.05,-0.2 -0.74,-2.61 -3.47,-4.12 -6.11,-3.39 -2.6,0.72 -4.14,3.37 -3.46,5.95 0.34,1.23 1.16,2.29 2.28,2.93 0.24,0.14 0.54,0.12 0.76,-0.04l0 0zm-1.7 -3.25l0 0c-0.51,-1.88 0.61,-3.81 2.51,-4.32l0 0c1.81,-0.48 3.69,0.49 4.32,2.24l-5.55 3.95c-0.62,-0.47 -1.07,-1.12 -1.28,-1.87l0 0z"/>
   <path class="fil2" d="M151 148.05l6.32 -4.5c0.08,-0.06 0.13,-0.13 0.16,-0.21 0.03,-0.08 0.04,-0.17 0.02,-0.26 0,-0.01 -0.01,-0.05 -0.01,-0.06 -0.01,-0.06 -0.02,-0.12 -0.04,-0.17l0 -0.01c-0.35,-1.24 -1.18,-2.23 -2.24,-2.81 -1.06,-0.59 -2.34,-0.78 -3.6,-0.42 -1.24,0.34 -2.23,1.14 -2.83,2.17 -0.59,1.02 -0.79,2.27 -0.47,3.5 0.16,0.59 0.44,1.13 0.81,1.61 0.37,0.47 0.83,0.88 1.36,1.18l0.01 0.01c0.08,0.04 0.17,0.07 0.26,0.06 0.09,0 0.18,-0.03 0.25,-0.09zm6.58 -4.14l-6.32 4.51c-0.14,0.1 -0.32,0.16 -0.49,0.17 -0.18,0.01 -0.35,-0.03 -0.51,-0.13 -0.58,-0.33 -1.09,-0.77 -1.5,-1.3 -0.4,-0.52 -0.71,-1.12 -0.88,-1.76l0 -0.01c-0.36,-1.35 -0.14,-2.71 0.52,-3.84 0.65,-1.12 1.73,-2 3.09,-2.38 1.38,-0.38 2.78,-0.17 3.94,0.47 1.15,0.64 2.06,1.72 2.45,3.08 0.02,0.07 0.04,0.14 0.05,0.21l0.01 0.06c0.04,0.18 0.02,0.35 -0.04,0.51 -0.06,0.16 -0.17,0.31 -0.32,0.41zm-8.36 1.13l-0.01 -0.02c-0.27,-0.99 -0.1,-2 0.38,-2.82 0.48,-0.83 1.27,-1.48 2.27,-1.75l0.03 -0.01c0.96,-0.25 1.93,-0.12 2.76,0.3 0.82,0.43 1.49,1.16 1.82,2.09l0.05 0.16c-1.94,1.38 -3.88,2.76 -5.82,4.14l-0.13 -0.1c-0.33,-0.25 -0.61,-0.55 -0.84,-0.89 -0.23,-0.33 -0.41,-0.7 -0.51,-1.1zm0.42 -0.14l0.01 0.02c0.09,0.35 0.25,0.68 0.45,0.97 0.17,0.26 0.38,0.49 0.61,0.68l5.27 -3.75c-0.3,-0.74 -0.86,-1.32 -1.54,-1.68 -0.73,-0.37 -1.59,-0.49 -2.44,-0.26l-0.02 0c-0.88,0.24 -1.58,0.81 -2,1.54 -0.43,0.73 -0.57,1.61 -0.34,2.48z"/>
   <path class="fil2" d="M181.93 154.26c0.02,-0.34 0.03,-0.66 0.03,-0.98 0.02,-2.76 -0.17,-5.52 -0.56,-8.25 -0.06,-0.4 -0.02,-0.07 -0.28,-1.87 -0.29,-1.74 -0.64,-3.55 -1.07,-5.4 -0.09,-0.42 -0.28,-1.15 -0.41,-1.74 -0.86,-3.45 -1.8,-6.55 -2.6,-8.92 -0.09,-0.24 -0.34,-1.02 -0.45,-1.32 -0.77,-2.23 -1.32,-3.56 -1.34,-3.62 -0.12,-0.27 -0.4,-0.44 -0.69,-0.42 -0.04,0 -0.07,0 -0.1,0.01 -0.6,0.08 -1.2,0.17 -1.8,0.26 -0.33,0.05 -1.04,0.16 -1.39,0.22 -2.39,0.39 -4.78,0.82 -7.15,1.32 -0.15,0.03 -1.47,0.3 -1.52,0.32 -8.76,1.92 -17.34,4.56 -25.65,7.91 -0.29,0.11 -0.46,0.41 -0.42,0.73 0.03,0.18 2.81,18.12 10.19,30.18 3.97,6.49 9.86,9.51 14.1,10.91 1.39,0.46 2.84,0.69 4.3,0.69 3.92,0 7.65,-1.66 10.24,-4.57 2.61,-2.95 5.69,-7.65 6.41,-13.98 0.15,-1.15 0.12,-0.9 0.16,-1.48l0 0zm-7.61 14.56l0 0c-2.33,2.61 -5.68,4.11 -9.2,4.11 -1.31,0 -2.61,-0.21 -3.86,-0.62 -4.02,-1.33 -9.6,-4.19 -13.36,-10.32 -6.53,-10.67 -9.4,-26.12 -9.91,-29.16 8.17,-3.25 16.6,-5.83 25.2,-7.69 0.04,0 0.08,-0.01 0.12,-0.02 2.9,-0.62 5.84,-1.17 8.73,-1.63l0.06 -0.01c0.67,-0.1 1.34,-0.2 2.01,-0.3 1.14,2.91 6.58,17.51 6.43,30.08 -0.09,7.16 -3.43,12.41 -6.22,15.56l0 0z"/>
   <path class="fil2" d="M181.71 154.25c0.01,-0.18 0.01,-0.34 0.02,-0.5 0.01,-0.16 0.01,-0.32 0.01,-0.48 0.01,-1.36 -0.04,-2.73 -0.13,-4.11 -0.09,-1.37 -0.24,-2.74 -0.43,-4.1l-0.04 -0.23c-0.02,-0.15 -0.06,-0.36 -0.24,-1.64 -0.15,-0.86 -0.31,-1.75 -0.49,-2.67 -0.18,-0.9 -0.37,-1.8 -0.58,-2.71l0 0c-0.05,-0.23 -0.13,-0.57 -0.21,-0.92 -0.08,-0.3 -0.15,-0.61 -0.2,-0.82 -0.39,-1.57 -0.8,-3.07 -1.2,-4.45 -0.48,-1.65 -0.96,-3.15 -1.39,-4.44 -0.05,-0.13 -0.14,-0.4 -0.23,-0.67 -0.08,-0.26 -0.17,-0.52 -0.22,-0.65 -0.73,-2.09 -1.25,-3.38 -1.33,-3.59l-0.01 -0.02c-0.04,-0.09 -0.1,-0.17 -0.19,-0.21 -0.08,-0.06 -0.18,-0.08 -0.28,-0.07l-0.01 0c-0.03,0 -0.05,0 -0.07,0l0 0c-0.27,0.04 -0.57,0.08 -0.9,0.13 -0.28,0.04 -0.58,0.09 -0.9,0.13 -0.22,0.04 -0.58,0.09 -0.84,0.13 -0.18,0.03 -0.38,0.06 -0.55,0.09l0 0c-1.2,0.19 -2.4,0.4 -3.6,0.62 -1.18,0.22 -2.35,0.45 -3.53,0.7l0 0c-0.1,0.02 -0.64,0.13 -1.05,0.22l-0.44 0.09 -0.03 0.01c-4.38,0.96 -8.71,2.09 -12.98,3.41 -4.27,1.32 -8.49,2.81 -12.63,4.48 -0.1,0.04 -0.18,0.11 -0.23,0.2 -0.05,0.09 -0.07,0.19 -0.06,0.29l0 0.01c0.06,0.39 2.84,18.14 10.16,30.09 1.7,2.78 3.75,4.92 5.88,6.56 2.79,2.16 5.71,3.47 8.1,4.26 0.69,0.22 1.39,0.39 2.09,0.51 0.71,0.11 1.43,0.17 2.14,0.17 1.93,0 3.81,-0.41 5.53,-1.18 1.72,-0.76 3.27,-1.89 4.54,-3.32 1.46,-1.65 3.07,-3.85 4.32,-6.57 0.97,-2.11 1.72,-4.54 2.04,-7.28l0.04 -0.38c0.04,-0.3 0.06,-0.45 0.08,-0.57 0.01,-0.11 0.01,-0.19 0.02,-0.33l0.02 -0.19zm0.47 -0.48c-0.01,0.17 -0.02,0.34 -0.03,0.5l-0.01 0.19c-0.01,0.16 -0.02,0.24 -0.03,0.35 -0.01,0.11 -0.03,0.27 -0.07,0.59l-0.05 0.37c-0.32,2.78 -1.09,5.26 -2.07,7.41 -1.27,2.78 -2.91,5.01 -4.39,6.69 -1.32,1.48 -2.92,2.64 -4.7,3.43 -1.77,0.79 -3.71,1.22 -5.71,1.22 -0.74,-0.01 -1.48,-0.07 -2.21,-0.18 -0.73,-0.12 -1.45,-0.3 -2.15,-0.53 -2.43,-0.8 -5.4,-2.13 -8.25,-4.33 -2.16,-1.67 -4.25,-3.85 -5.98,-6.67 -7.36,-12.03 -10.16,-29.87 -10.22,-30.27l0 0c-0.03,-0.21 0.01,-0.41 0.11,-0.58 0.1,-0.17 0.26,-0.31 0.45,-0.39 4.16,-1.68 8.39,-3.18 12.67,-4.5 4.29,-1.32 8.63,-2.46 13.01,-3.42 0.08,-0.02 0.26,-0.06 0.48,-0.1 0.42,-0.09 0.96,-0.21 1.05,-0.22 1.17,-0.25 2.35,-0.48 3.54,-0.7 1.2,-0.22 2.4,-0.42 3.61,-0.62 0.11,-0.02 0.32,-0.05 0.55,-0.09 0.37,-0.06 0.68,-0.1 0.85,-0.13 0.28,-0.04 0.58,-0.09 0.9,-0.13 0.27,-0.04 0.57,-0.09 0.9,-0.13 0.04,-0.01 0.08,-0.01 0.13,-0.01 0.19,-0.01 0.37,0.04 0.52,0.13 0.17,0.1 0.3,0.25 0.38,0.42l0.01 0.04c0.08,0.2 0.6,1.5 1.34,3.6 0.05,0.15 0.13,0.41 0.22,0.66 0.09,0.27 0.18,0.54 0.22,0.65l0 0.01c0.43,1.29 0.91,2.8 1.4,4.46 0.41,1.4 0.82,2.9 1.21,4.48l0 0c0.07,0.3 0.13,0.56 0.19,0.81 0.08,0.35 0.16,0.68 0.22,0.93 0.21,0.93 0.41,1.84 0.58,2.72 0.18,0.91 0.34,1.8 0.49,2.69l0 0.01c0.18,1.28 0.22,1.48 0.24,1.63l0.04 0.24c0.2,1.37 0.34,2.75 0.44,4.13 0.09,1.38 0.14,2.76 0.13,4.15l0 0c0,0.16 -0.01,0.33 -0.01,0.49zm-7.69 15.2c-1.19,1.33 -2.63,2.37 -4.23,3.09 -1.6,0.71 -3.35,1.09 -5.14,1.09 -0.66,0 -1.33,-0.05 -1.99,-0.16 -0.66,-0.1 -1.31,-0.26 -1.94,-0.47 -2.02,-0.67 -4.45,-1.72 -6.84,-3.38 -2.39,-1.67 -4.74,-3.94 -6.64,-7.04 -2.39,-3.9 -4.29,-8.44 -5.77,-12.78 -2.57,-7.56 -3.84,-14.52 -4.17,-16.45l-0.03 -0.18 0.17 -0.07c4.09,-1.63 8.25,-3.09 12.46,-4.37 4.21,-1.29 8.47,-2.4 12.77,-3.33l0.05 -0.01 0.03 0 0.04 0c1.45,-0.32 2.92,-0.61 4.4,-0.89 1.44,-0.27 2.9,-0.52 4.35,-0.75l0.06 -0.01 1 -0.15 1.19 -0.18 0.06 0.17c0.73,1.85 3.19,8.43 4.85,16.21 0.96,4.47 1.65,9.35 1.59,13.95 -0.04,3.13 -0.69,5.89 -1.64,8.28 -1.26,3.14 -3.04,5.62 -4.63,7.43zm-4.41 2.68c1.54,-0.69 2.93,-1.7 4.07,-2.98 1.57,-1.77 3.32,-4.22 4.55,-7.3 0.94,-2.34 1.58,-5.05 1.62,-8.11 0.05,-4.57 -0.64,-9.41 -1.59,-13.86 -1.61,-7.53 -3.97,-13.93 -4.76,-15.97l-0.83 0.12c-0.35,0.06 -0.71,0.12 -1.07,0.16 -1.42,0.23 -2.87,0.48 -4.33,0.75 -1.46,0.27 -2.92,0.57 -4.39,0.88 -0.02,0.01 -0.05,0.02 -0.08,0.02 -0.02,0 -0.04,0 -0.06,0 -4.29,0.93 -8.53,2.04 -12.71,3.32 -4.14,1.26 -8.23,2.69 -12.26,4.29 0.37,2.15 1.64,8.89 4.13,16.21 1.47,4.31 3.35,8.82 5.72,12.69 1.86,3.04 4.17,5.26 6.52,6.9 2.35,1.63 4.73,2.67 6.72,3.33 0.62,0.2 1.24,0.35 1.87,0.45 0.63,0.1 1.28,0.15 1.92,0.15 1.73,0 3.42,-0.36 4.96,-1.05z"/>
   <path class="fil2" d="M170.3 153.84c-1.79,1.09 -3.71,1.95 -5.73,2.56 -2.04,0.48 -4.15,0.69 -6.25,0.64 -3.44,-0.09 -6.76,-1.36 -6.8,-1.38 -0.35,-0.13 -0.75,0.04 -0.89,0.39 -0.07,0.18 -0.07,0.38 0.02,0.55 0.07,0.14 1.73,3.42 6.67,6.04 0.75,0.39 1.51,0.73 2.31,1 1.76,0.62 3.31,0.92 4.74,0.92 3.08,0 5.6,-1.35 8.19,-4.37 0.54,-0.64 1.03,-1.31 1.46,-2.01 2.93,-4.73 2.68,-8.39 2.66,-8.54 -0.03,-0.38 -0.36,-0.66 -0.74,-0.63 -0.19,0.02 -0.37,0.11 -0.49,0.26 -0.02,0.02 -2.23,2.77 -5.15,4.57l0 0zm4.85 -2.19l0 0c-0.25,1.41 -0.85,3.47 -2.3,5.82 -0.41,0.64 -0.86,1.26 -1.35,1.84 -2.3,2.69 -4.5,3.89 -7.13,3.89 -1.27,0 -2.67,-0.28 -4.29,-0.84 -0.72,-0.25 -1.42,-0.56 -2.1,-0.92 -2.46,-1.3 -4.04,-2.78 -4.97,-3.87 1.36,0.37 3.28,0.78 5.26,0.83 2.25,0.06 4.49,-0.17 6.67,-0.68 2.14,-0.64 4.19,-1.56 6.09,-2.73 1.69,-1.03 3.13,-2.34 4.12,-3.34l0 0z"/>
   <path class="fil2" d="M170.41 154.03c-0.89,0.55 -1.83,1.04 -2.8,1.48 -0.96,0.43 -1.96,0.8 -2.97,1.1l-0.01 0.01c-1.04,0.24 -2.08,0.41 -3.14,0.52 -1.05,0.11 -2.11,0.15 -3.17,0.12 -1.17,-0.03 -2.33,-0.19 -3.35,-0.4 -1.97,-0.4 -3.44,-0.95 -3.53,-0.99 -0.12,-0.04 -0.25,-0.04 -0.36,0.01 -0.11,0.05 -0.2,0.13 -0.24,0.25 -0.03,0.06 -0.04,0.13 -0.04,0.19 0,0.06 0.02,0.12 0.05,0.18 0.03,0.07 0.46,0.9 1.47,2.04 1.03,1.15 2.67,2.6 5.11,3.9 0.37,0.2 0.74,0.38 1.12,0.54 0.37,0.16 0.76,0.32 1.15,0.45 0.87,0.31 1.69,0.53 2.47,0.68 0.77,0.15 1.5,0.22 2.2,0.22 1.5,0 2.87,-0.32 4.17,-1.02 1.32,-0.7 2.57,-1.78 3.85,-3.27 0.26,-0.31 0.52,-0.63 0.76,-0.96 0.24,-0.33 0.47,-0.67 0.68,-1.02 1.45,-2.33 2.11,-4.4 2.41,-5.91 0.29,-1.49 0.23,-2.42 0.22,-2.5 -0.01,-0.12 -0.07,-0.23 -0.16,-0.31 -0.09,-0.07 -0.21,-0.12 -0.34,-0.11 -0.07,0.01 -0.13,0.03 -0.19,0.06 -0.05,0.03 -0.1,0.07 -0.15,0.12 -0.1,0.12 -1.07,1.31 -2.53,2.61 -0.78,0.68 -1.69,1.4 -2.68,2.01zm-2.98 1.07c0.94,-0.43 1.86,-0.91 2.75,-1.46 0.97,-0.59 1.86,-1.29 2.61,-1.96 1.5,-1.33 2.47,-2.52 2.48,-2.54l0.01 -0.01c0.08,-0.1 0.17,-0.18 0.28,-0.24 0.11,-0.06 0.23,-0.09 0.36,-0.1 0.25,-0.02 0.49,0.06 0.67,0.21 0.18,0.15 0.3,0.37 0.32,0.62 0,0.08 0.07,1.06 -0.23,2.62 -0.31,1.54 -0.98,3.66 -2.46,6.05 -0.23,0.36 -0.46,0.71 -0.71,1.05 -0.25,0.34 -0.51,0.67 -0.78,0.99 -1.31,1.54 -2.61,2.65 -3.98,3.37 -1.37,0.74 -2.8,1.08 -4.38,1.08 -0.73,0 -1.49,-0.07 -2.29,-0.23 -0.79,-0.15 -1.63,-0.38 -2.53,-0.7 -0.4,-0.14 -0.8,-0.29 -1.18,-0.46 -0.4,-0.17 -0.78,-0.36 -1.15,-0.55 -2.5,-1.33 -4.17,-2.82 -5.23,-4.01 -1.06,-1.18 -1.51,-2.06 -1.54,-2.13l0 0c-0.06,-0.12 -0.09,-0.24 -0.1,-0.37 0,-0.12 0.02,-0.25 0.07,-0.37 0.09,-0.23 0.27,-0.4 0.49,-0.49 0.21,-0.09 0.46,-0.1 0.69,-0.01l0.01 0c0.02,0.01 1.48,0.56 3.45,0.96 1,0.2 2.13,0.36 3.26,0.4 1.05,0.02 2.09,-0.02 3.13,-0.12 1.03,-0.11 2.05,-0.28 3.07,-0.52 0.99,-0.3 1.97,-0.66 2.91,-1.08zm7.94 -3.41c-0.13,0.71 -0.34,1.59 -0.71,2.6 -0.37,0.99 -0.89,2.11 -1.62,3.3 -0.21,0.32 -0.42,0.65 -0.65,0.96 -0.23,0.31 -0.47,0.61 -0.72,0.91 -1.17,1.36 -2.32,2.35 -3.51,3 -1.2,0.65 -2.44,0.96 -3.79,0.96 -0.65,0 -1.33,-0.07 -2.06,-0.21 -0.71,-0.14 -1.48,-0.35 -2.3,-0.64 -0.37,-0.13 -0.73,-0.27 -1.09,-0.43 -0.36,-0.15 -0.7,-0.32 -1.04,-0.5 -1.25,-0.66 -2.27,-1.36 -3.1,-2.04 -0.83,-0.68 -1.47,-1.33 -1.94,-1.88l0.23 -0.37c0.68,0.19 1.49,0.38 2.38,0.53 0.89,0.16 1.85,0.27 2.83,0.3 1.11,0.03 2.22,-0.01 3.33,-0.13 1.1,-0.11 2.19,-0.3 3.28,-0.55 1.06,-0.32 2.09,-0.7 3.1,-1.15 1,-0.45 1.98,-0.97 2.93,-1.55 0.83,-0.51 1.6,-1.09 2.29,-1.66 0.69,-0.58 1.29,-1.15 1.78,-1.64l0.38 0.19zm-1.13 2.44c0.24,-0.66 0.41,-1.26 0.54,-1.8 -0.38,0.37 -0.82,0.76 -1.28,1.15 -0.71,0.59 -1.5,1.18 -2.35,1.7 -0.95,0.59 -1.95,1.12 -2.98,1.58 -1.03,0.46 -2.09,0.85 -3.17,1.17l-0.01 0c-1.1,0.26 -2.21,0.45 -3.34,0.57 -1.12,0.12 -2.25,0.16 -3.38,0.13 -1.01,-0.03 -2,-0.15 -2.9,-0.3 -0.61,-0.11 -1.18,-0.23 -1.69,-0.36 0.38,0.4 0.84,0.84 1.39,1.28 0.8,0.67 1.8,1.35 3.01,1.99 0.34,0.18 0.68,0.34 1.02,0.49 0.35,0.15 0.7,0.29 1.06,0.42 0.79,0.28 1.54,0.48 2.24,0.62 0.7,0.14 1.35,0.2 1.97,0.2 1.28,0 2.45,-0.29 3.58,-0.9 1.14,-0.63 2.24,-1.58 3.38,-2.9 0.24,-0.29 0.47,-0.58 0.69,-0.88 0.23,-0.31 0.44,-0.62 0.64,-0.94 0.71,-1.16 1.22,-2.25 1.58,-3.22z"/>
   <path class="fil2" d="M289.66 177.97c2.9,0 5.65,-1.1 7.74,-3.11 0.55,-0.53 0.87,-1.24 0.88,-2.01 0.02,-0.76 -0.27,-1.49 -0.8,-2.04 -0.53,-0.56 -1.25,-0.87 -2.02,-0.89 -0.76,-0.01 -1.49,0.27 -2.04,0.8 -1.02,0.98 -2.35,1.51 -3.76,1.51 -2.99,0 -5.43,-2.43 -5.43,-5.42 0,-2.98 2.44,-5.42 5.43,-5.42 1.41,0 2.74,0.54 3.76,1.52 0.55,0.53 1.28,0.81 2.04,0.8 0.77,-0.02 1.49,-0.33 2.02,-0.89 0.53,-0.55 0.82,-1.28 0.8,-2.04 -0.01,-0.77 -0.33,-1.48 -0.88,-2.01 -2.09,-2.01 -4.84,-3.11 -7.74,-3.11 -2.25,0 -4.42,0.66 -6.28,1.93 -0.44,0.3 -0.55,0.89 -0.25,1.33 0.3,0.43 0.89,0.55 1.33,0.25 1.54,-1.05 3.34,-1.6 5.2,-1.6 2.4,0 4.68,0.91 6.41,2.57 0.18,0.18 0.29,0.42 0.3,0.68 0,0.25 -0.09,0.49 -0.27,0.68 -0.18,0.18 -0.42,0.29 -0.67,0.29 -0.25,0.01 -0.5,-0.09 -0.68,-0.26 -1.38,-1.32 -3.19,-2.05 -5.09,-2.05 -4.05,0 -7.34,3.29 -7.34,7.33 0,4.05 3.29,7.34 7.34,7.34 1.9,0 3.71,-0.73 5.09,-2.05 0.18,-0.17 0.42,-0.27 0.68,-0.26 0.25,0 0.49,0.11 0.67,0.29 0.17,0.19 0.27,0.43 0.27,0.68 -0.01,0.26 -0.12,0.49 -0.3,0.67 -1.73,1.66 -4.01,2.58 -6.41,2.58 -5.11,0 -9.26,-4.15 -9.26,-9.25 0,-1.86 0.56,-3.65 1.6,-5.19 0.3,-0.43 0.19,-1.03 -0.25,-1.33 -0.44,-0.29 -1.03,-0.18 -1.33,0.26 -1.26,1.85 -1.93,4.02 -1.93,6.26 0,6.16 5.01,11.16 11.17,11.16z"/>
   <path class="fil2" d="M277.56 147.04c0.28,0.71 0.81,1.28 1.52,1.59 0.37,0.16 0.76,0.24 1.16,0.24 0.35,0 0.7,-0.06 1.03,-0.19 1.48,-0.57 2.22,-2.23 1.65,-3.7l-6.38 -16.58c-0.42,-1.11 -1.5,-1.84 -2.68,-1.84 -1.18,0 -2.26,0.73 -2.69,1.84l-0.89 2.32c-0.19,0.5 0.05,1.05 0.55,1.24 0.49,0.19 1.05,-0.06 1.24,-0.55l0.89 -2.33c0.14,-0.36 0.5,-0.61 0.9,-0.61 0.39,0 0.75,0.25 0.89,0.61l6.39 16.58c0.19,0.49 -0.06,1.05 -0.55,1.24 -0.24,0.09 -0.5,0.08 -0.74,-0.02 -0.23,-0.11 -0.41,-0.29 -0.5,-0.53l-2.72 -7.06c-0.14,-0.37 -0.5,-0.61 -0.89,-0.61l-3.76 0c-0.4,0 -0.75,0.24 -0.9,0.61l-2.71 7.06c-0.15,0.36 -0.51,0.61 -0.9,0.61 -0.12,0 -0.23,-0.02 -0.34,-0.06 -0.24,-0.09 -0.43,-0.27 -0.53,-0.51 -0.11,-0.23 -0.11,-0.49 -0.02,-0.73l4.11 -10.68c0.19,-0.49 -0.06,-1.04 -0.55,-1.23 -0.49,-0.19 -1.05,0.05 -1.24,0.55l-4.11 10.68c-0.28,0.71 -0.26,1.49 0.06,2.19 0.31,0.7 0.87,1.24 1.59,1.51 0.33,0.13 0.68,0.19 1.03,0.19 1.18,0 2.26,-0.73 2.68,-1.83l2.48 -6.45 2.45 0 2.48 6.45 0 0z"/>
   <path class="fil2" d="M273.45 136.76l0.81 0c0.32,0 0.61,-0.15 0.79,-0.41 0.18,-0.26 0.22,-0.59 0.11,-0.88l-0.41 -1.06c-0.14,-0.37 -0.5,-0.61 -0.89,-0.61 -0.4,0 -0.75,0.24 -0.9,0.61l-0.4 1.06c-0.12,0.29 -0.08,0.62 0.1,0.88 0.18,0.26 0.48,0.41 0.79,0.41l0 0z"/>
   <path class="fil2" d="M267.95 162.67c0,-3.87 -3.06,-7.01 -6.82,-7.01l-7.55 0c-1.58,0 -2.87,1.28 -2.87,2.86 0,0.53 0.43,0.96 0.96,0.96 0.53,0 0.96,-0.43 0.96,-0.96 0,-0.52 0.42,-0.95 0.95,-0.95l7.55 0c2.7,0 4.9,2.29 4.9,5.1 0,1.3 -0.47,2.55 -1.34,3.5 -0.33,0.37 -0.33,0.92 0,1.29 0.87,0.95 1.34,2.19 1.34,3.5 0,2.81 -2.2,5.1 -4.9,5.1l-7.55 0c-0.53,0 -0.95,-0.43 -0.95,-0.96l0 -12.75c0,-0.53 -0.43,-0.96 -0.96,-0.96 -0.53,0 -0.96,0.43 -0.96,0.96l0 12.75c0,1.59 1.29,2.87 2.87,2.87l7.55 0c3.76,0 6.82,-3.14 6.82,-7.01 0,-1.5 -0.47,-2.95 -1.32,-4.14 0.85,-1.2 1.32,-2.65 1.32,-4.15l0 0z"/>
   <path class="fil2" d="M255.5 165.86l5.48 0c0.03,0 0.06,0 0.08,0 0.02,-0.01 0.05,-0.01 0.07,-0.01 1.65,0 2.99,-1.42 2.99,-3.18 0,-1.76 -1.34,-3.19 -2.99,-3.19l-5.63 0c-0.53,0 -0.96,0.43 -0.96,0.96l0 4.46c0,0.53 0.43,0.96 0.96,0.96l0 0zm0.96 -4.47l0 0 4.67 0c0.59,0 1.07,0.57 1.07,1.28 0,0.7 -0.48,1.27 -1.07,1.27 -0.06,0 -0.12,0 -0.18,0.01l-4.49 0 0 -2.56 0 0z"/>
   <path class="fil2" d="M254.54 173.19c0,0.53 0.43,0.96 0.96,0.96l5.63 0c1.65,0 2.99,-1.43 2.99,-3.19 0,-1.76 -1.34,-3.19 -2.99,-3.19l-5.63 0c-0.53,0 -0.96,0.43 -0.96,0.96l0 4.46zm1.92 -3.5l0 0 4.67 0c0.59,0 1.07,0.57 1.07,1.27 0,0.7 -0.48,1.27 -1.07,1.27l-4.67 0 0 -2.54z"/>
   <path class="fil2" d="M302.91 151.35l-13.57 0 0 -28.14c0,-0.53 -0.43,-0.96 -0.96,-0.96l-29.05 0c-0.53,0 -0.96,0.43 -0.96,0.96l0 28.14 -13.57 0c-0.53,0 -0.96,0.43 -0.96,0.96l0 29.01c0,0.53 0.43,0.96 0.96,0.96l58.11 0c0.53,0 0.96,-0.43 0.96,-0.96l0 -29.01c0,-0.53 -0.43,-0.96 -0.96,-0.96zm-42.62 -27.18l0 0 27.14 0 0 27.18 -27.14 0 0 -27.18zm-14.53 29.09l0 0 27.14 0 0 27.1 -27.14 0 0 -27.1zm56.19 27.1l0 0 -27.14 0 0 -27.1 27.14 0 0 27.1z"/>
   <polygon class="fil0" points="50.58,292.9 50.58,297.88 58.58,303.41 62.58,301.53 69.09,296.97 69.09,292.14 "/>
   <polygon class="fil0" points="83.76,277.96 88.09,275.3 102.84,275.3 102.84,285.13 101.39,288.97 99.94,297.77 96.43,299.13 97.1,303.41 102.84,306.32 106.44,307.59 107.59,323.86 85.91,323.86 82.67,306.32 87.93,303.93 87.43,299.58 84.76,296.3 82.67,291.3 82.67,288.13 80.93,284.23 "/>
   <path class="fil2" d="M97.38 283.71c-3.37,-1.7 -9.69,-1.72 -9.96,-1.72 -0.8,0 -1.45,0.66 -1.45,1.46 0,0.8 0.65,1.46 1.45,1.46 1.64,0 6.37,0.25 8.66,1.4 0.21,0.11 0.43,0.16 0.65,0.16 0.53,0 1.05,-0.3 1.3,-0.81 0.36,-0.72 0.07,-1.59 -0.65,-1.95l0 0z"/>
   <polygon class="fil0" points="47.23,301.53 34.95,306.71 33.84,311.6 33.17,323.86 85.91,323.86 85.91,309.64 82.67,305.31 73.09,301.88 70.1,299.13 67.95,297.77 49.75,297.88 "/>
   <polygon class="fil0" points="25.41,275.3 33.17,278.8 36.17,286.47 37.07,297.77 37.07,298.64 34.95,301.94 31.52,303.41 33.84,306.71 33.84,311.6 33.17,323.86 11.45,323.86 11.45,311.6 18.23,306.32 19.11,303.41 14.65,301.53 13.23,299.13 14.65,290.14 15.87,281.99 24.26,275.3 "/>
   <polygon class="fil3" points="50.58,297.88 47.23,301.53 53.13,309.31 59.52,304.98 "/>
   <path class="fil3" d="M59.83 303.6l9.26 -5.83c0,0 3.06,2.46 2.7,2.92 -0.37,0.45 -0.37,0.45 -0.37,0.45l-5.59 8.17 -6 -5.71 0 0z"/>
   <polygon class="fil0" points="47.23,254.79 53.13,252.62 60.58,252.62 76.42,252.62 76.42,266.96 75.76,272.45 75.15,279.13 72.92,286.47 67.4,291.8 63.59,293.83 58.42,293.83 53.13,292.9 48.98,288.8 45.08,283.47 43.93,277.12 43.93,273.22 42.08,265.96 43.93,258.79 "/>
   <path class="fil2" d="M104.61 304.45l-5.99 -1.72c-0.26,-0.07 -0.44,-0.31 -0.44,-0.58l0 -2.01c0.49,-0.34 0.96,-0.72 1.39,-1.14 2.11,-2.06 3.27,-4.81 3.27,-7.76l0 -2.77 0.58 -1.16c0.63,-1.28 0.97,-2.71 0.97,-4.14l0 -7.51c0,-0.8 -0.65,-1.46 -1.45,-1.46l-13.97 0c-5.07,0 -9.2,4.15 -9.2,9.25l0 0.09c0,1.19 0.28,2.37 0.81,3.44l0.74 1.49 0 2.38c0,3.77 1.85,7.16 4.65,9.19l0 2.11c0,0.32 0,0.46 -1.19,0.8l-2.93 0.84 -8.45 -3.09c0.03,-0.4 -0.11,-0.81 -0.4,-1.11l-2.7 -2.86 0 -4.78c0.28,-0.24 0.57,-0.48 0.84,-0.74 3.41,-3.21 5.36,-7.74 5.36,-12.43l0 -3.83c1.03,-2.25 1.55,-4.63 1.55,-7.08l0 -15.58c0,-0.8 -0.65,-1.46 -1.45,-1.46l-21.71 0c-7.65,0 -13.86,6.25 -13.86,13.92l0 3.12c0,2.45 0.52,4.83 1.55,7.08l0 3.29c0,5.45 2.41,10.36 6.2,13.59l0 4.9 -2.7 2.86c-0.29,0.3 -0.43,0.71 -0.4,1.11l-8.92 3.26c-0.65,0.24 -1.25,0.56 -1.8,0.95l-1.4 -0.71c4.17,-1.82 5.5,-4.39 5.56,-4.52 0.2,-0.41 0.2,-0.89 0,-1.3 -1.04,-2.1 -1.17,-5.95 -1.27,-9.05 -0.04,-1.03 -0.07,-2 -0.13,-2.87 -0.5,-6.98 -5.79,-12.26 -12.31,-12.26 -6.52,0 -11.81,5.28 -12.3,12.26 -0.06,0.87 -0.1,1.84 -0.13,2.87 -0.1,3.1 -0.23,6.95 -1.28,9.05 -0.2,0.41 -0.2,0.89 0,1.3 0.07,0.13 1.39,2.69 5.57,4.52l-3.89 1.95c-2.09,1.05 -3.38,3.15 -3.38,5.49l0 10.76c0,0.81 0.65,1.46 1.45,1.46 0.8,0 1.45,-0.65 1.45,-1.46l0 -10.76c0,-1.23 0.68,-2.33 1.77,-2.88l4.85 -2.43 1.69 1.61c1.18,1.12 2.69,1.68 4.2,1.68 1.51,0 3.03,-0.56 4.21,-1.68l1.68 -1.61 1.58 0.79c-0.74,1.2 -1.16,2.6 -1.16,4.07l0 11.21c0,0.81 0.65,1.46 1.45,1.46 0.8,0 1.45,-0.65 1.45,-1.46l0 -11.21c0,-2 1.26,-3.81 3.13,-4.49l9.41 -3.44 3.92 5.91c0.5,0.75 1.3,1.23 2.2,1.32 0.1,0.01 0.2,0.02 0.3,0.02 0.79,0 1.55,-0.31 2.12,-0.88l2.39 -2.4 0 15.17c0,0.81 0.65,1.46 1.45,1.46 0.8,0 1.45,-0.65 1.45,-1.46l0 -15.17 2.39 2.4c0.57,0.57 1.33,0.88 2.12,0.88 0.1,0 0.2,-0.01 0.3,-0.01 0.9,-0.1 1.7,-0.58 2.2,-1.33l3.92 -5.91 9.41 3.44c1.87,0.68 3.13,2.49 3.13,4.49l0 11.21c0,0.81 0.65,1.46 1.45,1.46 0.8,0 1.45,-0.65 1.45,-1.46l0 -11.21c0,-2.03 -0.8,-3.93 -2.14,-5.33l0.35 -0.11c0.37,-0.1 0.86,-0.24 1.35,-0.49l3.71 3.72 0 13.42c0,0.81 0.65,1.46 1.45,1.46 0.8,0 1.45,-0.65 1.45,-1.46l0 -13.42 3.68 -3.69c0.19,0.1 0.4,0.18 0.61,0.25l6 1.72c1.36,0.39 2.32,1.66 2.32,3.09l0 12.05c0,0.81 0.65,1.46 1.45,1.46 0.8,0 1.45,-0.65 1.45,-1.46l0 -12.05c0,-2.72 -1.82,-5.15 -4.43,-5.9zm-85.3 -2.57l0 0c-2.71,-0.98 -4.07,-2.29 -4.66,-3 0.4,-1.04 0.66,-2.24 0.83,-3.49 0.8,1.92 2.14,3.57 3.83,4.74l0 1.75zm8.31 3.94l0 0c-1.24,1.18 -3.17,1.18 -4.41,0l-1.35 -1.28c0.22,-0.43 0.35,-0.92 0.35,-1.43l0 -1.55c1.01,0.32 2.09,0.49 3.2,0.49 1.12,0 2.19,-0.17 3.21,-0.49l0 1.55c0,0.51 0.12,1 0.35,1.43l-1.35 1.28 0 0zm-2.21 -6.69l0 0c-4.33,0 -7.85,-3.54 -7.85,-7.89 0,-0.8 -0.65,-1.46 -1.45,-1.46 -0.08,0 -0.17,0.01 -0.24,0.03 0,-0.13 0.01,-0.26 0.01,-0.38 0.03,-1 0.06,-1.95 0.12,-2.76 0.19,-2.62 1.23,-5.03 2.93,-6.79 1.73,-1.78 4.03,-2.76 6.48,-2.76 2.46,0 4.76,0.98 6.48,2.76 1.71,1.76 2.75,4.17 2.93,6.79 0.06,0.81 0.09,1.76 0.13,2.76 0,0.09 0,0.17 0,0.26 -1.57,-2.44 -4.01,-4.24 -7.16,-5.26 -2.91,-0.94 -5.41,-0.88 -5.52,-0.88 -0.38,0.01 -0.74,0.17 -1,0.45l-2.62 2.73c-0.56,0.57 -0.54,1.5 0.04,2.06 0.57,0.55 1.49,0.54 2.05,-0.04l2.18 -2.27c1.87,0.09 7.91,0.8 10.25,5.99 -0.59,3.82 -3.86,6.66 -7.76,6.66l0 0zm6.11 2.75l0 0 0 -1.73c1.69,-1.17 3.03,-2.81 3.83,-4.75 0.17,1.25 0.43,2.44 0.82,3.48 -0.58,0.71 -1.94,2.02 -4.65,3l0 0zm13.96 -23.64l0 0 0 -3.61c0,-0.22 -0.05,-0.44 -0.15,-0.64 -0.93,-1.94 -1.4,-4 -1.4,-6.12l0 -3.12c0,-6.06 4.91,-11 10.96,-11l20.26 0 0 14.12c0,2.12 -0.47,4.18 -1.4,6.12 -0.1,0.2 -0.15,0.42 -0.15,0.64l0 4.15c0,3.94 -1.58,7.6 -4.45,10.3 -0.35,0.34 -0.73,0.66 -1.11,0.95 -0.01,0.01 -0.02,0.01 -0.02,0.02 -2.69,2.05 -5.98,3.04 -9.42,2.82 -7.36,-0.48 -13.12,-6.9 -13.12,-14.63l0 0zm8.17 29.32l0 0c-0.01,0.02 -0.04,0.04 -0.08,0.03 -0.05,0 -0.07,-0.03 -0.08,-0.04l-4.51 -6.8 1.45 -1.53 6.85 4.7 -3.63 3.64zm5.89 -5.62l0 0 -7.86 -5.39 0 -2.72c2.04,1.1 4.31,1.79 6.73,1.95 0.39,0.02 0.76,0.04 1.14,0.04 2.78,0 5.45,-0.67 7.85,-1.93l0 2.66 -7.86 5.39 0 0zm6.05 5.61l0 0c-0.01,0.01 -0.03,0.04 -0.08,0.04 -0.04,0.01 -0.07,-0.01 -0.08,-0.02l-3.63 -3.65 6.85 -4.7 1.45 1.53 -4.51 6.8 0 0zm26.49 -1.23l0 0 -3.29 -3.31c0.05,-0.26 0.09,-0.55 0.08,-0.86l0 -0.62c0.92,0.31 1.88,0.48 2.88,0.51 0.11,0.01 0.22,0.01 0.33,0.01 1.1,0 2.18,-0.17 3.2,-0.49l0 0.59c0,0.29 0.04,0.57 0.11,0.85l-3.31 3.32 0 0zm5.47 -9.41l0 0c-1.54,1.49 -3.57,2.29 -5.71,2.22 -4.2,-0.13 -7.62,-3.84 -7.62,-8.28l0 -2.72c0,-0.23 -0.05,-0.45 -0.15,-0.66l-0.9 -1.8c-0.33,-0.66 -0.5,-1.39 -0.5,-2.13l0 -0.09c0,-3.49 2.83,-6.33 6.31,-6.33l12.51 0 0 6.05c0,0.98 -0.23,1.96 -0.67,2.83l-0.73 1.47c-0.1,0.21 -0.15,0.43 -0.15,0.66l0 3.11c0,2.16 -0.85,4.17 -2.39,5.67l0 0z"/>
   <path class="fil2" d="M101.39 311.6c-0.81,0 -1.45,0.65 -1.45,1.45l0 9.35c0,0.81 0.64,1.46 1.45,1.46 0.8,0 1.45,-0.65 1.45,-1.46l0 -9.35c0,-0.8 -0.65,-1.45 -1.45,-1.45z"/>
   <path class="fil2" d="M17.66 313.52c-0.8,0 -1.45,0.66 -1.45,1.46l0 7.42c0,0.81 0.65,1.46 1.45,1.46 0.8,0 1.45,-0.65 1.45,-1.46l0 -7.42c0,-0.8 -0.65,-1.46 -1.45,-1.46z"/>
   <path class="fil2" d="M71.42 268.4c-5.48,-5.51 -16.96,-4.46 -21.64,-3.75 -1.48,0.22 -2.55,1.48 -2.55,2.98l0 3.36c0,0.8 0.65,1.46 1.45,1.46 0.8,0 1.45,-0.66 1.45,-1.46l0 -3.36c0,-0.05 0.03,-0.09 0.08,-0.1 1.87,-0.28 5.58,-0.72 9.42,-0.46 4.53,0.3 7.8,1.44 9.74,3.39 0.57,0.57 1.49,0.57 2.05,0 0.57,-0.57 0.57,-1.49 0,-2.06l0 0z"/>
   <path class="fil2" d="M42.48 314.71c-0.81,0 -1.45,0.66 -1.45,1.46l0 6.23c0,0.81 0.64,1.46 1.45,1.46 0.8,0 1.45,-0.65 1.45,-1.46l0 -6.23c0,-0.8 -0.65,-1.46 -1.45,-1.46z"/>
   <path class="fil2" d="M76.6 314.71c-0.8,0 -1.45,0.66 -1.45,1.46l0 6.23c0,0.81 0.65,1.46 1.45,1.46 0.8,0 1.45,-0.65 1.45,-1.46l0 -6.23c0,-0.8 -0.65,-1.46 -1.45,-1.46z"/>
   <path class="fil0" d="M193.3 251.79l0 58.76 28.31 0 -0.18 3.93 -1.33 17.17 1.51 0 3.93 -3.33 3.93 4.33 1.35 0 0 -11.67c0,0 0.83,1.17 2.67,0.83 1.83,-0.33 1.83,-0.33 1.83,-0.33l1.17 10 1.34 0.34 3.69 -3.5 4.8 4.33 0 -4.33 -0.96 -10.59 0 -3.42 0 -2.71 -0.87 -2.05 3.73 0 0 1 25.28 0 0 -57.25 -80.2 -1.51z"/>
   <path class="fil3" d="M237.83 305.87c0,2.58 -2.1,4.68 -4.68,4.68 -2.59,0 -4.68,-2.1 -4.68,-4.68 0,-2.59 2.09,-4.69 4.68,-4.69 2.58,0 4.68,2.1 4.68,4.69z"/>
   <path class="fil2" d="M275 250.62l-83.03 0 0 61.6 27.98 0c-0.48,1.31 -0.44,2.77 0.14,4.05l-1.45 17.38 3.35 0 3.46 -3.46 3.46 3.46 3.24 0 0 -10.9c0.43,0.11 0.87,0.19 1.34,0.19 0.46,0 0.9,-0.08 1.33,-0.19l0 10.9 3.24 0 3.46 -3.46 3.47 3.46 3.34 0 -1.45 -17.38c0.58,-1.28 0.62,-2.74 0.14,-4.05l27.98 0 0 -61.6 0 0zm-45.53 79.8l0 0 -4.02 -4.02 -3.84 3.84 0.95 -11.42c1.79,0.9 3.98,0.75 5.62,-0.49 0.15,1.06 0.62,2 1.29,2.77l0 9.32 0 0zm12.05 -4.02l0 0 -4.02 4.02 0 -9.32c0.67,-0.77 1.14,-1.71 1.29,-2.77 1.64,1.24 3.83,1.39 5.62,0.49l0.95 11.42 -3.84 -3.84 0 0zm4.02 -18.19l0 0c-0.16,0 -0.3,-0.03 -0.45,-0.05l-1.12 -0.19 -0.37 1.07c-0.14,0.4 -0.3,0.78 -0.48,1.16l-0.5 1.02 0.93 0.65c0.12,0.09 0.25,0.18 0.35,0.29 1.05,1.04 1.05,2.74 0,3.79 -1.04,1.04 -2.74,1.04 -3.78,0 -0.11,-0.11 -0.2,-0.24 -0.29,-0.36l-0.65 -0.92 -1.03 0.49c-0.37,0.18 -0.75,0.34 -1.15,0.48l-1.08 0.37 0.2 1.12c0.02,0.15 0.04,0.3 0.04,0.45 0,1.48 -1.2,2.68 -2.67,2.68 -1.48,0 -2.68,-1.2 -2.68,-2.68 0,-0.15 0.02,-0.3 0.05,-0.45l0.19 -1.12 -1.08 -0.37c-0.39,-0.14 -0.78,-0.3 -1.15,-0.48l-1.02 -0.49 -0.66 0.92c-0.08,0.12 -0.18,0.25 -0.28,0.36 -1.05,1.04 -2.75,1.04 -3.79,0 -1.05,-1.05 -1.05,-2.75 -0.01,-3.79 0.12,-0.11 0.24,-0.2 0.36,-0.29l0.93 -0.65 -0.5 -1.02c-0.18,-0.38 -0.34,-0.76 -0.47,-1.16l-0.38 -1.07 -1.12 0.19c-0.15,0.02 -0.29,0.05 -0.45,0.05 -1.47,0 -2.68,-1.21 -2.68,-2.68 0,-1.48 1.21,-2.68 2.68,-2.68 0.16,0 0.3,0.03 0.45,0.05l1.12 0.19 0.37 -1.07c0.14,-0.4 0.3,-0.79 0.48,-1.16l0.5 -1.02 -0.93 -0.66c-0.12,-0.08 -0.24,-0.17 -0.35,-0.28 -1.05,-1.04 -1.05,-2.74 0,-3.79 1.04,-1.04 2.74,-1.04 3.78,0 0.11,0.11 0.2,0.23 0.29,0.36l0.66 0.92 1.02 -0.49c0.37,-0.18 0.76,-0.35 1.15,-0.48l1.08 -0.37 -0.19 -1.12c-0.03,-0.15 -0.05,-0.3 -0.05,-0.46 0,-1.47 1.2,-2.67 2.68,-2.67 1.47,0 2.67,1.2 2.67,2.67 0,0.16 -0.02,0.31 -0.04,0.46l-0.2 1.12 1.08 0.37c0.4,0.13 0.78,0.3 1.15,0.48l1.02 0.49 0.66 -0.93c0.09,-0.12 0.18,-0.24 0.28,-0.35 1.05,-1.04 2.75,-1.04 3.79,0 1.05,1.04 1.05,2.74 0.01,3.79 -0.12,0.1 -0.24,0.2 -0.36,0.28l-0.93 0.66 0.5 1.02c0.18,0.37 0.34,0.76 0.48,1.16l0.37 1.07 1.12 -0.19c0.15,-0.02 0.29,-0.05 0.45,-0.05 1.48,0 2.68,1.2 2.68,2.68 0,1.47 -1.2,2.68 -2.68,2.68zm0.26 -14.99l0 0c-1.91,-1.91 -4.91,-2.08 -7.01,-0.5 -0.37,-2.6 -2.6,-4.6 -5.3,-4.6 -2.7,0 -4.94,2 -5.31,4.6 -2.09,-1.57 -5.09,-1.41 -7.01,0.5 -1.9,1.9 -2.07,4.91 -0.49,7 -2.15,0.31 -3.87,1.9 -4.41,3.97l-16.26 0 0 -45.54 66.96 0 0 45.54 -16.26 0c-0.54,-2.07 -2.26,-3.66 -4.42,-3.97 1.58,-2.09 1.42,-5.1 -0.49,-7zm26.52 16.33l0 0 -23.27 0c0.8,-0.7 1.38,-1.63 1.66,-2.68l18.94 0 0 -50.89 -72.32 0 0 50.89 18.93 0c0.28,1.05 0.86,1.98 1.65,2.68l-23.26 0 0 -56.25 77.67 0 0 56.25z"/>
   <polygon class="fil2" points="241.52,261.33 264.29,261.33 264.29,264.01 241.52,264.01 "/>
   <polygon class="fil2" points="210.72,269.37 264.29,269.37 264.29,272.05 210.72,272.05 "/>
   <polygon class="fil2" points="202.68,274.73 264.29,274.73 264.29,277.41 202.68,277.41 "/>
   <polygon class="fil2" points="202.68,280.08 264.29,280.08 264.29,282.76 202.68,282.76 "/>
   <polygon class="fil2" points="218.75,285.44 221.43,285.44 221.43,288.12 218.75,288.12 "/>
   <polygon class="fil2" points="202.68,285.44 216.08,285.44 216.08,288.12 202.68,288.12 "/>
   <path class="fil2" d="M233.49 298.83c-3.7,0 -6.7,3.01 -6.7,6.7 0,3.69 3,6.69 6.7,6.69 3.69,0 6.69,-3 6.69,-6.69 0,-3.69 -3,-6.7 -6.69,-6.7zm0 10.72l0 0c-2.22,0 -4.02,-1.81 -4.02,-4.02 0,-2.22 1.8,-4.02 4.02,-4.02 2.21,0 4.01,1.8 4.01,4.02 0,2.21 -1.8,4.02 -4.01,4.02z"/>
   <polygon class="fil0" points="369.87,256.43 374.71,256.43 375.38,252.12 446.4,252.12 447.41,256.43 452.07,256.43 452.07,309.31 442.6,310.83 426.9,310.83 369.87,309.48 "/>
   <path class="fil0" d="M388.11 316.56l3.44 -1.25 21.51 0c0,0 2.5,2.84 2.5,3.5 0,0.67 0,0.67 0,0.67l0 11.39 -3.34 1.45 -24.11 0 -1.23 -4 0 -11.76 1.23 0 0 0z"/>
   <path class="fil3" d="M382.38 257.79c0.33,16 0.33,16 0.33,16l21.18 -0.83 0 -15.17 -21.51 0 0 0z"/>
   <polygon class="fil3" points="422.53,257.12 422.53,275.04 441.17,275.04 441.17,257.79 "/>
   <path class="fil2" d="M452.64 255l-4.3 0 0 -2.87c0,-0.85 -0.57,-1.43 -1.44,-1.43l-35.84 0 -35.85 0c-0.86,0 -1.43,0.58 -1.43,1.43l0 2.87 -4.31 0c-0.86,0 -1.43,0.57 -1.43,1.43l0 52.97c0,0.86 0.57,1.43 1.43,1.43l61.66 0 0 -2.86 -60.22 0 0 -50.11 2.87 0 0 45.81c0,0.86 0.57,1.43 1.43,1.43l35.85 0 20.07 0 0 -2.86 -18.64 0 0 -48.67 2.73 0 0 37.07c0,2.01 0.86,3.01 1.43,3.58 1.15,1.01 2.58,0.86 3.01,0.86l13.62 0c1.15,0 1.44,0.43 1.58,0.57 0.57,0.58 0.57,1.72 0.57,2.15l0 0.15 0 21.47c0,0.57 0,1 -0.28,1.15 -0.43,0.28 -1.01,0.28 -1.15,0.28l-15.77 0 0 2.87 15.63 0c0,0 0.14,0 0.28,0 0.58,0 1.87,-0.15 2.73,-1.01 0.57,-0.57 1.29,-1.57 1.29,-3.29l0 -21.33c0.14,-0.57 0.29,-2.72 -1.15,-4.3 -0.72,-0.71 -1.72,-1.57 -3.73,-1.57l-13.76 0 -0.15 0c0,0 -0.57,0 -0.86,-0.29 -0.43,-0.28 -0.43,-0.86 -0.43,-1.29l0 -37.07 27.39 0 0 2.86 0 45.81 -2.87 0 0 2.86 4.3 0c0.87,0 1.44,-0.57 1.44,-1.43l0 -45.81 2.87 0 0 50.11 -8.61 0 0 2.86 10.04 0c0.86,0 1.44,-0.57 1.44,-1.43l0 -52.97c0,-0.86 -0.58,-1.43 -1.44,-1.43l0 0zm-76 47.24l0 0 0 -45.81 0 -2.86 32.98 0 0 48.67 -32.98 0 0 0z"/>
   <path class="fil2" d="M412.21 313.69l-22.23 0c-2.58,0 -4.73,2.29 -4.73,5.01l0 9.88c0,2.87 2.15,5.16 4.73,5.16l22.08 0c2.3,0 4.3,-2.01 4.73,-4.44 0.15,-0.14 0.15,-0.43 0.15,-0.72l0 -9.88c0,-2.72 -2.15,-5.01 -4.73,-5.01l0 0zm1.86 14.32l0 0c-0.15,0.14 -0.15,0.29 -0.15,0.57 0,1 -0.86,2.29 -1.86,2.29l-22.08 0c-1,0 -1.87,-1 -1.87,-2.29l0 -9.88c0,-1.14 0.87,-2.14 1.87,-2.14l22.23 0c0.85,0 1.86,1.14 1.86,2.14l0 9.31z"/>
   <polygon class="fil2" points="406.76,320.85 411.06,320.85 411.06,323.72 406.76,323.72 "/>
   <path class="fil2" d="M442.6 257.86c0,-0.86 -0.57,-1.43 -1.43,-1.43l-18.64 0 0 2.86 17.2 0 0 14.32 -17.2 0 0 2.86 18.64 0c0.86,0 1.43,-0.57 1.43,-1.43l0 -17.18z"/>
   <polygon class="fil2" points="422.53,279.34 441.17,279.34 441.17,282.2 422.53,282.2 "/>
   <polygon class="fil2" points="422.53,285.06 441.17,285.06 441.17,287.92 422.53,287.92 "/>
   <polygon class="fil2" points="380.94,279.34 396.72,279.34 396.72,282.2 380.94,282.2 "/>
   <polygon class="fil2" points="380.94,285.06 403.89,285.06 403.89,287.92 380.94,287.92 "/>
   <polygon class="fil2" points="380.94,290.79 403.89,290.79 403.89,293.65 380.94,293.65 "/>
   <path class="fil2" d="M403.89 256.43l-21.51 0c-0.86,0 -1.44,0.57 -1.44,1.43l0 15.75c0,0.86 0.58,1.43 1.44,1.43l21.51 0c0.86,0 1.43,-0.57 1.43,-1.43l0 -15.75c0,-0.86 -0.57,-1.43 -1.43,-1.43zm-1.43 15.75l0 0 -18.65 0 0 -12.89 18.65 0 0 12.89z"/>
   <polygon class="fil0" points="549.11,262.12 549.11,323.48 591.63,323.48 598.65,331.98 606.14,335.99 614.93,335.99 624.48,331.98 630.14,325.83 632.31,318.48 632.31,311.56 630.31,303.37 627.64,300.82 627.14,262.79 618.47,262.12 617.97,254.62 614.93,252.45 612.4,253.83 610.79,258.46 610.79,262.29 566.79,262.63 565.95,257.96 565.95,255.12 564.12,252.45 559.72,253.12 558.12,255.96 558.28,259.79 558.28,261.3 558.12,263.47 "/>
   <path class="fil3" d="M562.21 252.45c-3.26,1.17 -3.26,1.17 -3.26,1.17l-0.67 6.17 0 7.34 1.97 1.95 1.96 1.38 3.74 -2.5 0 -10 -0.89 -4.13 -2.85 -1.38 0 0z"/>
   <path class="fil3" d="M615.02 252.45c-3.25,1.17 -3.25,1.17 -3.25,1.17l-0.67 6.17 0 7.34 1.96 1.95 1.96 1.38 3.74 -2.5 0 -10 -0.88 -4.13 -2.86 -1.38 0 0z"/>
   <path class="fil3" d="M613.26 314.5c0,1.07 -1.03,1.94 -2.31,1.94 -1.28,0 -2.31,-0.87 -2.31,-1.94 0,-1.07 1.03,-1.94 2.31,-1.94 1.28,0 2.31,0.87 2.31,1.94z"/>
   <path class="fil2" d="M612.38 310.77l0 -8.68c0,-0.7 -0.57,-1.27 -1.27,-1.27 -0.7,0 -1.27,0.57 -1.27,1.27l0 8.68c-1.49,0.53 -2.55,1.95 -2.55,3.63 0,0.72 0.2,1.39 0.54,1.97l-3.97 4.34c-0.47,0.52 -0.44,1.32 0.08,1.8 0.24,0.22 0.55,0.33 0.85,0.33 0.34,0 0.68,-0.14 0.94,-0.41l4.05 -4.43c0.42,0.15 0.86,0.23 1.33,0.23 2.11,0 3.82,-1.72 3.82,-3.84 0,-1.67 -1.07,-3.09 -2.55,-3.62l0 0zm-1.27 4.92l0 0c-0.71,0 -1.29,-0.58 -1.29,-1.3 0,-0.71 0.58,-1.29 1.29,-1.29 0.71,0 1.29,0.58 1.29,1.29 0,0.72 -0.58,1.3 -1.29,1.3z"/>
   <path class="fil2" d="M628.68 299.68l0 -23.4c0.03,-0.1 0.04,-0.21 0.04,-0.32l0 -13.76c0,-0.71 -0.56,-1.27 -1.26,-1.27l-0.04 0 -7.87 0 0 -4.6c0,-2.78 -2.25,-5.04 -5.02,-5.04 -2.77,0 -5.03,2.26 -5.03,5.04l0 4.6 -42.27 0 0 -4.6c0,-2.78 -2.25,-5.04 -5.02,-5.04 -2.77,0 -5.03,2.26 -5.03,5.04l0 4.6 -7.9 0 -0.05 0c-0.7,0 -1.27,0.56 -1.27,1.27l0 61.44c0,0.7 0.57,1.27 1.27,1.27l41.63 0c3.8,7.37 11.47,12.41 20.29,12.41 12.6,0 22.85,-10.29 22.85,-22.94 0,-5.59 -2,-10.72 -5.32,-14.7l0 0zm-16.65 -43.35l0 0c0,-1.38 1.12,-2.5 2.5,-2.5 1.37,0 2.49,1.12 2.49,2.5l0 9.94c0,0.17 -0.02,0.34 -0.05,0.5 -0.24,1.14 -1.24,2 -2.44,2 -1.38,0 -2.5,-1.12 -2.5,-2.5l0 -9.94 0 0zm-52.31 0l0 0c0,-1.38 1.11,-2.5 2.49,-2.5 1.37,0 2.49,1.12 2.49,2.5l0 9.94c0,1.38 -1.12,2.5 -2.49,2.5 -1.38,0 -2.49,-1.12 -2.49,-2.5l0 -9.94 0 0zm-9.18 7.14l0 0 6.64 0 0 2.8c0,2.78 2.26,5.04 5.03,5.04 2.77,0 5.02,-2.26 5.02,-5.04l0 -2.8 42.27 0 0 2.8c0,2.78 2.26,5.04 5.03,5.04 2.77,0 5.02,-2.26 5.02,-5.04l0 -2.8 6.6 0 0 11.22 -75.61 0 0 -11.22 0 0zm-0.04 58.9l0 0 0 -45.14 75.65 0 0 19.84c-1.69,-1.48 -3.57,-2.68 -5.59,-3.6 -0.07,-0.04 -0.15,-0.07 -0.23,-0.1 -0.07,-0.04 -0.15,-0.07 -0.23,-0.1 -0.13,-0.06 -0.27,-0.12 -0.4,-0.17 -0.02,-0.01 -0.04,-0.02 -0.06,-0.03 -1.12,-0.45 -2.3,-0.82 -3.51,-1.09l0 -7.47c0,-0.7 -0.57,-1.27 -1.27,-1.27l-8.15 0c-0.7,0 -1.27,0.57 -1.27,1.27l0 7.64c-9.85,2.56 -17.14,11.55 -17.14,22.23 0,0.19 0,0.37 0.01,0.56 0,0.04 0,0.09 0,0.13 0.01,0.15 0.01,0.3 0.02,0.45 0,0.03 0,0.07 0,0.1 0.01,0.17 0.02,0.33 0.04,0.5 0,0.01 0,0.03 0,0.04 0.16,2.14 0.61,4.21 1.35,6.21l-39.22 0 0 0zm63.1 -36.59l0 0 0 5.65 -5.63 0 0 -5.65 5.63 0zm-2.45 49l0 0c-10.5,0 -19.17,-8.04 -20.21,-18.32 0,0 0,-0.01 0,-0.01 -0.02,-0.16 -0.03,-0.33 -0.05,-0.49 0,-0.03 0,-0.07 0,-0.1 -0.01,-0.14 -0.02,-0.28 -0.03,-0.41 0,-0.08 -0.01,-0.16 -0.01,-0.24 0,-0.1 -0.01,-0.19 -0.01,-0.29 -0.01,-0.18 -0.01,-0.36 -0.01,-0.54 0,-11.26 9.12,-20.41 20.32,-20.41 0.18,0 0.36,0 0.54,0.01 0.03,0 0.06,0 0.1,0 0.15,0.01 0.3,0.01 0.45,0.02 0.02,0 0.04,0.01 0.07,0.01 0.16,0.01 0.32,0.02 0.47,0.03 0.02,0 0.03,0 0.04,0 2.34,0.2 4.61,0.79 6.71,1.75 0.08,0.04 0.15,0.07 0.22,0.1 0.08,0.04 0.15,0.07 0.23,0.11 0.12,0.06 0.25,0.13 0.38,0.19 0.01,0.01 0.03,0.02 0.04,0.02 6.57,3.39 11.07,10.26 11.07,18.17 0,11.25 -9.12,20.4 -20.32,20.4l0 0z"/>
   <path class="fil2" d="M622.14 326.49c-0.43,-0.56 -1.23,-0.66 -1.78,-0.22 -2.65,2.07 -5.84,3.17 -9.21,3.17 -8.27,0 -15,-6.76 -15,-15.06 0,-3.31 1.05,-6.45 3.02,-9.08 0.43,-0.56 0.32,-1.35 -0.24,-1.77 -0.56,-0.43 -1.35,-0.32 -1.78,0.24 -2.31,3.08 -3.53,6.74 -3.53,10.61 0,9.7 7.86,17.6 17.53,17.6 3.94,0 7.67,-1.28 10.77,-3.71 0.55,-0.43 0.65,-1.23 0.22,-1.78l0 0z"/>
   <path class="fil2" d="M611.15 296.77c-4.01,0 -7.79,1.33 -10.92,3.83 -0.54,0.44 -0.63,1.24 -0.2,1.78 0.44,0.56 1.23,0.64 1.78,0.21 2.68,-2.14 5.91,-3.28 9.34,-3.28 8.27,0 15,6.76 15,15.07 0,3.45 -1.13,6.69 -3.27,9.38 -0.44,0.55 -0.35,1.35 0.2,1.79 0.23,0.18 0.51,0.28 0.79,0.28 0.37,0 0.74,-0.17 0.99,-0.48 2.5,-3.15 3.82,-6.94 3.82,-10.97 0,-9.71 -7.86,-17.61 -17.53,-17.61l0 0z"/>
   <path class="fil2" d="M570.03 283.24l-8.16 0c-0.7,0 -1.27,0.57 -1.27,1.27l0 8.19c0,0.7 0.57,1.27 1.27,1.27l8.16 0c0.7,0 1.26,-0.57 1.26,-1.27l0 -8.19c0,-0.7 -0.56,-1.27 -1.26,-1.27zm-1.27 8.19l0 0 -5.62 0 0 -5.65 5.62 0 0 5.65 0 0z"/>
   <path class="fil2" d="M584.97 283.24l-8.15 0c-0.7,0 -1.27,0.57 -1.27,1.27l0 8.19c0,0.7 0.57,1.27 1.27,1.27l8.15 0c0.7,0 1.27,-0.57 1.27,-1.27l0 -8.19c0,-0.7 -0.57,-1.27 -1.27,-1.27zm-1.26 8.19l0 0 -5.63 0 0 -5.65 5.63 0 0 5.65z"/>
   <path class="fil2" d="M599.92 283.24l-8.16 0c-0.7,0 -1.26,0.57 -1.26,1.27l0 8.19c0,0.7 0.56,1.27 1.26,1.27l8.16 0c0.7,0 1.27,-0.57 1.27,-1.27l0 -8.19c0,-0.7 -0.57,-1.27 -1.27,-1.27zm-1.27 8.19l0 0 -5.62 0 0 -5.65 5.62 0 0 5.65z"/>
   <path class="fil2" d="M570.03 300.82l-8.16 0c-0.7,0 -1.27,0.57 -1.27,1.27l0 8.19c0,0.71 0.57,1.28 1.27,1.28l8.16 0c0.7,0 1.26,-0.57 1.26,-1.28l0 -8.19c0,-0.7 -0.56,-1.27 -1.26,-1.27zm-1.27 8.19l0 0 -5.62 0 0 -5.64 5.62 0 0 5.64 0 0z"/>
   <path class="fil2" d="M584.97 300.82l-8.15 0c-0.7,0 -1.27,0.57 -1.27,1.27l0 8.19c0,0.71 0.57,1.28 1.27,1.28l8.15 0c0.7,0 1.27,-0.57 1.27,-1.28l0 -8.19c0,-0.7 -0.57,-1.27 -1.27,-1.27zm-1.26 8.19l0 0 -5.63 0 0 -5.64 5.63 0 0 5.64z"/>
   <path class="fil4" d="M19 388.67l-0.81 -0.57 -0.03 -0.02 -0.05 -0.02 -0.59 -0.28 0.01 0.04c-0.56,-0.23 -1.15,-0.39 -1.79,-0.39 -2.84,0 -5.14,2.36 -5.14,5.26 0,2.9 2.31,5.26 5.14,5.26 0.91,0 1.75,-0.27 2.5,-0.69 -0.26,2.81 -1.7,6.91 -6.96,11.09 -0.74,0.58 -0.88,1.67 -0.3,2.42 0.33,0.45 0.83,0.67 1.33,0.67 0.37,0 0.73,-0.12 1.04,-0.36 6.46,-5.14 8.08,-10.42 8.29,-13.94 0.37,-4.51 -1.02,-6.88 -2.29,-8.12l-0.35 -0.35 0 0z"/>
   <path class="fil4" d="M36.26 389.02l-0.36 -0.35 -0.81 -0.57 -0.03 -0.02 -0.05 -0.02 -0.59 -0.28 0.01 0.04c-0.56,-0.23 -1.15,-0.39 -1.79,-0.39 -2.84,0 -5.13,2.35 -5.13,5.26 0,2.9 2.29,5.26 5.13,5.26 0.91,0 1.75,-0.27 2.5,-0.69 -0.25,2.81 -1.69,6.91 -6.96,11.09 -0.74,0.58 -0.87,1.67 -0.3,2.42 0.34,0.45 0.84,0.67 1.34,0.67 0.36,0 0.73,-0.12 1.04,-0.36 6.46,-5.14 8.07,-10.42 8.29,-13.94 0.37,-4.51 -1.01,-6.88 -2.29,-8.12l0 0z"/>
   <path class="fil0" d="M72.87 400.51l13.89 13.49c0.61,0.59 1.6,0.59 2.21,0 0.61,-0.59 0.61,-1.55 0,-2.14l-12.79 -12.42 12.79 -12.42c0.61,-0.59 0.61,-1.55 0,-2.15 -0.61,-0.59 -1.6,-0.59 -2.21,0l-13.89 13.5c-0.6,0.58 -0.6,1.55 0,2.14z"/>
   <path class="fil0" d="M146.05 398.37l-13.9 -13.5c-0.6,-0.59 -1.59,-0.59 -2.2,0 -0.61,0.6 -0.61,1.56 0,2.15l12.78 12.42 -12.78 12.42c-0.61,0.59 -0.61,1.55 0,2.14 0.61,0.59 1.59,0.59 2.2,0l13.89 -13.49c0.61,-0.59 0.61,-1.56 0.01,-2.14z"/>
  </g>
 </g>
</svg>
